<svg width="152" height="59" viewBox="0 0 152 59" fill="none" xmlns="http://www.w3.org/2000/svg">
<path d="M46.7384 26.6783L43.1471 20.6757H41.7619V26.6783H38.6836V11.2357H44.5836C46.3793 11.2357 47.7645 11.6975 48.688 12.5696C49.6114 13.4418 50.0732 14.5705 50.0732 16.007C50.0732 17.187 49.7653 18.1618 49.0984 18.9314C48.4314 19.7009 47.5079 20.2653 46.2766 20.5218L50.1245 26.6783H46.7384ZM41.7619 18.5209H44.2758C46.0201 18.5209 46.9436 17.7514 46.9436 16.161C46.9436 15.4427 46.7384 14.827 46.2766 14.4166C45.8662 14.0062 45.1992 13.8009 44.2758 13.8009H41.7619V18.5209Z" fill="#00395A"/>
<path d="M63.5149 14.5192V26.627H60.4366V24.1644C60.1288 24.9852 59.5644 25.6009 58.8462 26.0626C58.1279 26.5244 57.2557 26.7296 56.281 26.7296C54.8957 26.7296 53.767 26.2678 52.9462 25.3444C52.1253 24.4209 51.7148 23.1383 51.7148 21.4965V14.4678H54.7931V21.1374C54.7931 22.1122 55.0496 22.8305 55.5114 23.3948C56.0244 23.9078 56.6914 24.2157 57.5123 24.2157C58.3845 24.2157 59.1027 23.9079 59.6158 23.3435C60.1288 22.7792 60.3853 21.9583 60.3853 20.8809V14.4678H63.5149V14.5192Z" fill="#00395A"/>
<path d="M73.8781 15.494C74.7503 16.2122 75.3146 17.2383 75.5198 18.4697H72.6468C72.5442 17.9053 72.2877 17.4436 71.8773 17.0844C71.4668 16.7253 70.9538 16.5714 70.2868 16.5714C69.7738 16.5714 69.3634 16.674 69.0555 16.9305C68.7477 17.187 68.5938 17.4949 68.5938 17.9566C68.5938 18.3157 68.6964 18.5722 68.9529 18.7775C69.2094 18.9827 69.466 19.1366 69.8251 19.2392C70.1842 19.3418 70.6973 19.4957 71.3129 19.6496C72.2364 19.8549 72.9546 20.0601 73.5703 20.3166C74.1346 20.5218 74.6477 20.8809 75.0581 21.394C75.4685 21.907 75.6737 22.5227 75.6737 23.3949C75.6737 24.4209 75.2633 25.2931 74.4425 25.9088C73.6216 26.5757 72.5442 26.8835 71.159 26.8835C69.5686 26.8835 68.3373 26.5244 67.3625 25.8062C66.439 25.0879 65.8234 24.1131 65.6182 22.7792H68.5938C68.6451 23.3948 68.9529 23.8566 69.3633 24.1644C69.8251 24.5236 70.3894 24.6775 71.159 24.6775C71.672 24.6775 72.0825 24.5748 72.339 24.3183C72.5955 24.0618 72.7494 23.754 72.7494 23.3436C72.7494 22.9844 72.6468 22.7279 72.3903 22.4714C72.1338 22.2149 71.8259 22.0609 71.5181 21.9583C71.159 21.8557 70.646 21.7018 69.979 21.5479C69.0555 21.3427 68.3373 21.1375 67.7729 20.9323C67.2086 20.727 66.7468 20.3679 66.3364 19.9062C65.926 19.4444 65.7208 18.7775 65.7208 17.9566C65.7208 16.9305 66.1312 16.0583 66.9008 15.3914C67.7216 14.7244 68.799 14.4166 70.2355 14.4166C71.7746 14.3653 72.9546 14.7757 73.8781 15.494Z" fill="#00395A"/>
<path d="M85.1651 15.1348C85.8834 15.5966 86.3964 16.2635 86.7042 17.0844V14.5704H89.7825V26.6783H86.7042V24.1644C86.3964 24.9852 85.8834 25.6522 85.1651 26.1139C84.4468 26.627 83.5747 26.8322 82.5486 26.8322C81.5225 26.8322 80.599 26.5757 79.7781 26.1139C78.9572 25.6009 78.3416 24.8826 77.8798 23.9591C77.4181 23.0357 77.2129 21.907 77.2129 20.6244C77.2129 19.3417 77.4181 18.2644 77.8798 17.2896C78.3416 16.3661 78.9572 15.6479 79.7781 15.1348C80.599 14.6218 81.5225 14.4165 82.5486 14.4165C83.5234 14.3652 84.3955 14.6218 85.1651 15.1348ZM81.1633 18.0078C80.599 18.6235 80.2912 19.4957 80.2912 20.5731C80.2912 21.6505 80.599 22.5226 81.1633 23.1383C81.7277 23.7539 82.4973 24.0617 83.472 24.0617C84.3955 24.0617 85.1651 23.7539 85.7808 23.087C86.3964 22.4713 86.7042 21.5992 86.7042 20.5218C86.7042 19.4444 86.3964 18.5722 85.7808 17.9566C85.1651 17.3409 84.3955 16.9818 83.472 16.9818C82.4973 17.0844 81.7277 17.3922 81.1633 18.0078Z" fill="#00395A"/>
<path d="M102.917 15.7505C103.737 16.6739 104.148 17.9565 104.148 19.5983V26.627H101.07V19.9574C101.07 18.9826 100.813 18.2644 100.351 17.7C99.8383 17.187 99.1714 16.8792 98.2992 16.8792C97.427 16.8792 96.7088 17.187 96.1957 17.7513C95.6827 18.3157 95.4262 19.1365 95.4262 20.2139V26.627H92.3479V14.5192H95.4262V16.9305C95.734 16.1096 96.2983 15.494 97.0166 15.0322C97.7348 14.5705 98.607 14.3653 99.5818 14.3653C100.967 14.3653 102.096 14.827 102.917 15.7505Z" fill="#00395A"/>
<path d="M106.867 9.85048C107.226 9.54266 107.688 9.38876 108.252 9.38876C108.817 9.38876 109.278 9.54266 109.637 9.85048C109.997 10.1583 110.151 10.5688 110.151 11.0818C110.151 11.5435 109.997 11.954 109.637 12.2618C109.278 12.5696 108.817 12.7235 108.252 12.7235C107.688 12.7235 107.226 12.5696 106.867 12.2618C106.508 11.954 106.354 11.5435 106.354 11.0818C106.303 10.5688 106.508 10.1583 106.867 9.85048ZM109.74 26.6783H106.662V14.5705H109.74V26.6783Z" fill="#00395A"/>
<path d="M117.641 23.5487L120.668 14.5192H123.951L119.488 26.6783H115.743L111.228 14.5192H114.563L117.641 23.5487Z" fill="#00395A"/>
<path d="M46.7384 44.84L43.1471 38.8374H41.7619V44.84H38.6836V29.3974H44.5836C46.3793 29.3974 47.7645 29.8592 48.688 30.7313C49.6114 31.6035 50.0732 32.7322 50.0732 34.1687C50.0732 35.3487 49.7653 36.3235 49.0984 37.0931C48.4314 37.8626 47.5079 38.427 46.2766 38.6835L50.1245 44.84H46.7384ZM41.7619 36.7339H44.2758C46.0201 36.7339 46.9436 35.9644 46.9436 34.374C46.9436 33.6557 46.7384 33.04 46.2766 32.6296C45.8662 32.2192 45.1992 32.0139 44.2758 32.0139H41.7619V36.7339Z" fill="#00395A"/>
<path d="M63.4123 39.4018H54.5366C54.5879 40.4792 54.8958 41.3 55.4088 41.7618C55.9732 42.2748 56.6401 42.5313 57.4097 42.5313C58.1279 42.5313 58.7436 42.3774 59.2053 42.0183C59.6671 41.6592 59.9749 41.1974 60.1288 40.5818H63.4123C63.2584 41.4026 62.8993 42.1722 62.3862 42.8392C61.8732 43.5061 61.2062 44.0192 60.3853 44.4296C59.5645 44.7887 58.641 44.9939 57.6662 44.9939C56.4862 44.9939 55.4601 44.7374 54.5366 44.2244C53.6132 43.7113 52.8949 42.9931 52.3819 42.0696C51.8688 41.1461 51.6123 40.0174 51.6123 38.7861C51.6123 37.5035 51.8688 36.4261 52.3819 35.4513C52.8949 34.5279 53.6132 33.8096 54.5366 33.2965C55.4601 32.7835 56.4862 32.527 57.6662 32.527C58.8462 32.527 59.9236 32.7835 60.7958 33.2965C61.6679 33.8096 62.3862 34.4765 62.8479 35.3487C63.361 36.2209 63.5662 37.1957 63.5662 38.3244C63.5149 38.6322 63.5149 38.9913 63.4123 39.4018ZM59.6671 35.8105C59.1027 35.2974 58.4358 35.0409 57.6149 35.0409C56.794 35.0409 56.0758 35.2974 55.5114 35.8105C54.9471 36.3235 54.6393 37.0931 54.5879 38.0678H60.4879C60.4879 37.0418 60.2314 36.3235 59.6671 35.8105Z" fill="#00395A"/>
<path d="M73.4677 33.707C74.3399 34.4253 74.9043 35.4514 75.1095 36.6827H72.2364C72.1338 36.1183 71.8773 35.6566 71.4669 35.2975C71.0564 34.9383 70.5434 34.7844 69.8764 34.7844C69.3634 34.7844 68.953 34.887 68.6451 35.1436C68.3373 35.4001 68.1834 35.7079 68.1834 36.1696C68.1834 36.5288 68.286 36.7853 68.5425 36.9905C68.7991 37.1957 69.0556 37.3496 69.4147 37.4523C69.7738 37.5549 70.2869 37.7088 70.9025 37.8627C71.826 38.0679 72.5443 38.2731 73.1599 38.5296C73.7243 38.7349 74.2373 39.094 74.6478 39.607C75.0582 40.1201 75.2634 40.7357 75.2634 41.6079C75.2634 42.634 74.853 43.5062 74.0321 44.1218C73.2112 44.7888 72.1338 45.0966 70.7486 45.0966C69.1582 45.0966 67.9269 44.7375 66.9521 44.0192C66.0286 43.3009 65.413 42.3262 65.2078 40.9922H68.1834C68.2347 41.6079 68.5425 42.0696 68.953 42.3775C69.4147 42.7366 69.9791 42.8905 70.7486 42.8905C71.2617 42.8905 71.6721 42.7879 71.9286 42.5314C72.1851 42.2748 72.3391 41.967 72.3391 41.5566C72.3391 41.1975 72.2364 40.9409 71.9799 40.6844C71.7234 40.4792 71.4156 40.274 71.1078 40.1714C70.7486 40.0688 70.2356 39.9149 69.5686 39.761C68.6452 39.5557 67.9269 39.3505 67.3625 39.1453C66.7982 38.9401 66.3365 38.5809 65.926 38.1192C65.5156 37.6575 65.3104 36.9905 65.3104 36.1696C65.3104 35.1436 65.7208 34.2714 66.4904 33.6044C67.3112 32.9375 68.3886 32.6296 69.8252 32.6296C71.3643 32.5783 72.5443 32.9888 73.4677 33.707Z" fill="#00395A"/>
<path d="M77.5721 28.0635C77.9313 27.7557 78.393 27.6018 78.9574 27.6018C79.5217 27.6018 79.9835 27.7557 80.3426 28.0635C80.7017 28.3713 80.8556 28.7818 80.8556 29.2948C80.8556 29.7566 80.7017 30.167 80.3426 30.4748C79.9835 30.7826 79.5217 30.9366 78.9574 30.9366C78.393 30.9366 77.9313 30.7826 77.5721 30.4748C77.213 30.167 77.0591 29.7566 77.0591 29.2948C77.0591 28.7818 77.213 28.3713 77.5721 28.0635ZM80.4965 44.84H77.4182V32.7322H80.4965V44.84Z" fill="#00395A"/>
<path d="M90.8088 33.2965C91.527 33.7583 92.0401 34.4252 92.3479 35.2461V28.6791H95.4261V44.84H92.3479V42.3261C92.0401 43.147 91.527 43.8139 90.8088 44.2757C90.0905 44.7887 89.2184 44.9939 88.1923 44.9939C87.1662 44.9939 86.2427 44.7374 85.4219 44.2757C84.601 43.7626 83.9854 43.0444 83.5236 42.1209C83.0619 41.1974 82.8567 40.0687 82.8567 38.7861C82.8567 37.5035 83.0619 36.4261 83.5236 35.4513C83.9854 34.5278 84.601 33.8096 85.4219 33.2965C86.2427 32.7835 87.1662 32.527 88.1923 32.527C89.2184 32.5783 90.0905 32.8348 90.8088 33.2965ZM86.8071 36.2209C86.2427 36.8365 85.9349 37.7087 85.9349 38.7861C85.9349 39.8635 86.2427 40.7357 86.8071 41.3513C87.3714 41.967 88.141 42.2748 89.1157 42.2748C90.0392 42.2748 90.8088 41.967 91.4244 41.3C92.0401 40.6844 92.3479 39.8122 92.3479 38.7348C92.3479 37.6574 92.0401 36.7852 91.4244 36.1696C90.8088 35.5539 90.0392 35.1948 89.1157 35.1948C88.1923 35.2974 87.4227 35.6052 86.8071 36.2209Z" fill="#00395A"/>
<path d="M109.484 39.4018H100.608C100.659 40.4792 100.967 41.3 101.48 41.7618C102.044 42.2748 102.711 42.5313 103.481 42.5313C104.199 42.5313 104.815 42.3774 105.277 42.0183C105.738 41.6592 106.046 41.1974 106.2 40.5818H109.484C109.33 41.4026 108.971 42.1722 108.458 42.8392C107.944 43.5061 107.278 44.0192 106.457 44.4296C105.636 44.7887 104.712 44.9939 103.737 44.9939C102.557 44.9939 101.531 44.7374 100.608 44.2244C99.6845 43.7113 98.9662 42.9931 98.4532 42.0696C97.9401 41.1461 97.6836 40.0174 97.6836 38.7861C97.6836 37.5035 97.9401 36.4261 98.4532 35.4513C98.9662 34.5279 99.6845 33.8096 100.608 33.2965C101.531 32.7835 102.557 32.527 103.737 32.527C104.917 32.527 105.995 32.7835 106.867 33.2965C107.739 33.8096 108.457 34.4765 108.919 35.3487C109.432 36.2209 109.637 37.1957 109.637 38.3244C109.586 38.6322 109.586 38.9913 109.484 39.4018ZM105.738 35.8105C105.174 35.2974 104.507 35.0409 103.686 35.0409C102.865 35.0409 102.147 35.2974 101.583 35.8105C101.018 36.3235 100.711 37.0931 100.659 38.0678H106.559C106.559 37.0418 106.303 36.3235 105.738 35.8105Z" fill="#00395A"/>
<path d="M122.361 33.9635C123.182 34.887 123.592 36.1696 123.592 37.8113V44.84H120.514V38.1705C120.514 37.1957 120.257 36.4774 119.796 35.9131C119.283 35.4 118.616 35.0922 117.744 35.0922C116.871 35.0922 116.153 35.4 115.64 35.9644C115.127 36.5287 114.871 37.3496 114.871 38.427V44.84H111.792V32.7322H114.871V35.1435C115.178 34.3227 115.743 33.707 116.461 33.2453C117.179 32.7835 118.051 32.5783 119.026 32.5783C120.411 32.5783 121.54 33.04 122.361 33.9635Z" fill="#00395A"/>
<path d="M135.649 33.8609C136.675 34.6818 137.342 35.8618 137.598 37.2983H134.315C134.161 36.6826 133.904 36.1696 133.442 35.7591C132.981 35.4 132.365 35.1948 131.647 35.1948C130.826 35.1948 130.159 35.5026 129.595 36.1183C129.03 36.7339 128.774 37.6061 128.774 38.7861C128.774 39.9661 129.03 40.8383 129.595 41.4539C130.159 42.0696 130.826 42.3774 131.647 42.3774C132.365 42.3774 132.929 42.1722 133.442 41.8131C133.904 41.454 134.212 40.9409 134.315 40.274H137.598C137.342 41.7105 136.675 42.8905 135.649 43.7113C134.622 44.5322 133.289 44.9939 131.749 44.9939C130.569 44.9939 129.543 44.7374 128.62 44.2244C127.696 43.7113 126.978 42.9931 126.465 42.0696C125.952 41.1461 125.696 40.0174 125.696 38.7861C125.696 37.5035 125.952 36.4261 126.465 35.4513C126.978 34.5279 127.696 33.8096 128.62 33.2965C129.543 32.7835 130.569 32.527 131.749 32.527C133.289 32.5783 134.622 33.04 135.649 33.8609Z" fill="#00395A"/>
<path d="M151.091 39.4018H142.216C142.267 40.4792 142.575 41.3 143.088 41.7618C143.652 42.2748 144.319 42.5313 145.089 42.5313C145.807 42.5313 146.423 42.3774 146.884 42.0183C147.346 41.6592 147.654 41.1974 147.808 40.5818H151.091C150.937 41.4026 150.578 42.1722 150.065 42.8392C149.552 43.5061 148.885 44.0192 148.064 44.4296C147.243 44.7887 146.32 44.9939 145.345 44.9939C144.165 44.9939 143.139 44.7374 142.216 44.2244C141.292 43.7113 140.574 42.9931 140.061 42.0696C139.548 41.1461 139.291 40.0174 139.291 38.7861C139.291 37.5035 139.548 36.4261 140.061 35.4513C140.574 34.5279 141.292 33.8096 142.216 33.2965C143.139 32.7835 144.165 32.527 145.345 32.527C146.525 32.527 147.603 32.7835 148.475 33.2965C149.347 33.8096 150.065 34.4765 150.527 35.3487C151.04 36.2209 151.245 37.1957 151.245 38.3244C151.194 38.6322 151.143 38.9913 151.091 39.4018ZM147.295 35.8105C146.73 35.2974 146.063 35.0409 145.243 35.0409C144.422 35.0409 143.703 35.2974 143.139 35.8105C142.575 36.3235 142.267 37.0931 142.216 38.0678H148.116C148.116 37.0418 147.859 36.3235 147.295 35.8105Z" fill="#00395A"/>
<path d="M0 51.92H17.4435C18.4182 50.8939 19.1365 49.9705 19.9574 48.7905H0V51.92Z" fill="#00395A"/>
<path d="M0 44.8913H22.3174C23.0357 43.5061 23.5487 42.3774 24.0617 40.8896H0V44.8913Z" fill="#00395A"/>
<path d="M0 59H7.74695C9.13217 58.3331 10.4661 57.6148 11.7487 56.7426H0V59Z" fill="#00395A"/>
<path d="M0 3.05176e-05V31.347H25.7548C25.7548 31.1418 25.7548 30.9365 25.7548 30.68C25.7548 15.34 14.6217 2.56525 0 3.05176e-05Z" fill="#00395A"/>
<path d="M0 38.273H24.8313C25.2417 36.5287 25.5495 34.7843 25.6521 32.9374H0V38.273Z" fill="#00395A"/>
</svg>
