<svg width="77" height="30" viewBox="0 0 77 30" fill="none" xmlns="http://www.w3.org/2000/svg">
<path d="M23.7652 13.5652L21.9391 10.513H21.2348V13.5652H19.6696V5.71298H22.6696C23.5826 5.71298 24.287 5.94777 24.7565 6.39125C25.2261 6.83473 25.4609 7.40863 25.4609 8.13907C25.4609 8.73907 25.3044 9.23472 24.9652 9.62602C24.6261 10.0173 24.1565 10.3043 23.5304 10.4347L25.487 13.5652H23.7652ZM21.2348 9.41733H22.5131C23.4 9.41733 23.8696 9.02603 23.8696 8.21734C23.8696 7.85212 23.7652 7.53907 23.5304 7.33038C23.3217 7.12168 22.9826 7.01733 22.5131 7.01733H21.2348V9.41733Z" fill="white"/>
<path d="M32.2957 7.38266V13.5392H30.7305V12.287C30.5739 12.7044 30.287 13.0174 29.9218 13.2522C29.5565 13.487 29.1131 13.5914 28.6174 13.5914C27.9131 13.5914 27.3391 13.3566 26.9217 12.887C26.5043 12.4174 26.2957 11.7653 26.2957 10.9305V7.35657H27.8609V10.7479C27.8609 11.2435 27.9913 11.6087 28.2261 11.8957C28.487 12.1566 28.8261 12.3131 29.2435 12.3131C29.687 12.3131 30.0522 12.1566 30.3131 11.8696C30.5739 11.5827 30.7044 11.1653 30.7044 10.6174V7.35657H32.2957V7.38266Z" fill="white"/>
<path d="M37.5652 7.87835C38.0087 8.24356 38.2956 8.76531 38.4 9.3914H36.9391C36.8869 9.10445 36.7565 8.86966 36.5478 8.68705C36.3391 8.50444 36.0782 8.42618 35.7391 8.42618C35.4782 8.42618 35.2696 8.47836 35.113 8.60879C34.9565 8.73923 34.8782 8.89575 34.8782 9.13053C34.8782 9.31314 34.9304 9.44357 35.0609 9.54792C35.1913 9.65227 35.3217 9.73053 35.5043 9.78271C35.6869 9.83488 35.9478 9.91314 36.2609 9.9914C36.7304 10.0957 37.0956 10.2001 37.4087 10.3305C37.6956 10.4349 37.9565 10.6175 38.1652 10.8783C38.3739 11.1392 38.4782 11.4523 38.4782 11.8957C38.4782 12.4175 38.2695 12.861 37.8521 13.174C37.4348 13.5131 36.8869 13.6697 36.1826 13.6697C35.3739 13.6697 34.7478 13.4871 34.2522 13.1218C33.7826 12.7566 33.4696 12.261 33.3652 11.5827H34.8782C34.9043 11.8957 35.0609 12.1305 35.2696 12.287C35.5043 12.4697 35.7913 12.5479 36.1826 12.5479C36.4435 12.5479 36.6522 12.4957 36.7826 12.3653C36.913 12.2349 36.9913 12.0784 36.9913 11.8697C36.9913 11.6871 36.9391 11.5566 36.8087 11.4262C36.6782 11.2957 36.5217 11.2175 36.3652 11.1653C36.1826 11.1131 35.9217 11.0349 35.5826 10.9566C35.113 10.8523 34.7478 10.7479 34.4609 10.6436C34.1739 10.5392 33.9391 10.3566 33.7304 10.1218C33.5217 9.88705 33.4174 9.54792 33.4174 9.13053C33.4174 8.60879 33.6261 8.16532 34.0174 7.82618C34.4348 7.48705 34.9826 7.33053 35.713 7.33053C36.4956 7.30444 37.0956 7.51313 37.5652 7.87835Z" fill="white"/>
<path d="M43.3044 7.69565C43.6696 7.93043 43.9305 8.26956 44.087 8.68695V7.40868H45.6522V13.5652H44.087V12.2869C43.9305 12.7043 43.6696 13.0435 43.3044 13.2782C42.9391 13.5391 42.4957 13.6435 41.9739 13.6435C41.4522 13.6435 40.9826 13.513 40.5652 13.2782C40.1478 13.0174 39.8348 12.6522 39.6 12.1826C39.3652 11.713 39.2609 11.1391 39.2609 10.4869C39.2609 9.83477 39.3652 9.28694 39.6 8.79129C39.8348 8.32172 40.1478 7.95652 40.5652 7.69565C40.9826 7.43478 41.4522 7.33042 41.9739 7.33042C42.4696 7.30434 42.9131 7.43478 43.3044 7.69565ZM41.2696 9.15651C40.9826 9.46955 40.8261 9.91303 40.8261 10.4609C40.8261 11.0087 40.9826 11.4522 41.2696 11.7652C41.5565 12.0783 41.9478 12.2348 42.4435 12.2348C42.9131 12.2348 43.3044 12.0783 43.6174 11.7391C43.9304 11.4261 44.087 10.9826 44.087 10.4348C44.087 9.88695 43.9304 9.44347 43.6174 9.13043C43.3044 8.81739 42.9131 8.63477 42.4435 8.63477C41.9478 8.68695 41.5565 8.84347 41.2696 9.15651Z" fill="white"/>
<path d="M52.3304 8.0086C52.7478 8.47816 52.9565 9.13033 52.9565 9.96512V13.539H51.3913V10.1477C51.3913 9.65208 51.2609 9.28687 51.0261 8.99991C50.7652 8.73904 50.4261 8.58251 49.9826 8.58251C49.5391 8.58251 49.1739 8.73904 48.9131 9.02599C48.6522 9.31295 48.5218 9.73034 48.5218 10.2782V13.539H46.9565V7.38252H48.5218V8.60861C48.6783 8.19122 48.9652 7.87817 49.3305 7.64339C49.6957 7.4086 50.1391 7.30426 50.6348 7.30426C51.3391 7.30426 51.9131 7.53903 52.3304 8.0086Z" fill="white"/>
<path d="M54.3391 5.0087C54.5218 4.85218 54.7565 4.77393 55.0435 4.77393C55.3305 4.77393 55.5652 4.85218 55.7479 5.0087C55.9305 5.16522 56.0087 5.37392 56.0087 5.63479C56.0087 5.86958 55.9305 6.07827 55.7479 6.23479C55.5652 6.39131 55.3305 6.46958 55.0435 6.46958C54.7565 6.46958 54.5218 6.39131 54.3391 6.23479C54.1565 6.07827 54.0783 5.86958 54.0783 5.63479C54.0522 5.37392 54.1565 5.16522 54.3391 5.0087ZM55.8 13.5652H54.2348V7.4087H55.8V13.5652Z" fill="white"/>
<path d="M59.8174 11.9739L61.3565 7.3826H63.0261L60.7565 13.5652H58.8522L56.5565 7.3826H58.2522L59.8174 11.9739Z" fill="white"/>
<path d="M23.7652 22.8L21.9391 19.7479H21.2348V22.8H19.6696V14.9479H22.6696C23.5826 14.9479 24.287 15.1827 24.7565 15.6261C25.2261 16.0696 25.4609 16.6435 25.4609 17.374C25.4609 17.974 25.3044 18.4696 24.9652 18.8609C24.6261 19.2522 24.1565 19.5392 23.5304 19.6696L25.487 22.8H23.7652ZM21.2348 18.6783H22.5131C23.4 18.6783 23.8696 18.287 23.8696 17.4783C23.8696 17.1131 23.7652 16.8 23.5304 16.5913C23.3217 16.3827 22.9826 16.2783 22.5131 16.2783H21.2348V18.6783Z" fill="white"/>
<path d="M32.2435 20.0347H27.7304C27.7565 20.5825 27.913 20.9999 28.1739 21.2347C28.4609 21.4956 28.8 21.626 29.1913 21.626C29.5565 21.626 29.8695 21.5478 30.1043 21.3652C30.3391 21.1825 30.4956 20.9478 30.5739 20.6347H32.2435C32.1652 21.0521 31.9826 21.4434 31.7217 21.7826C31.4609 22.1217 31.1217 22.3825 30.7043 22.5912C30.2869 22.7739 29.8174 22.8782 29.3217 22.8782C28.7217 22.8782 28.2 22.7478 27.7304 22.4869C27.2608 22.226 26.8956 21.8608 26.6348 21.3912C26.3739 20.9217 26.2435 20.3478 26.2435 19.7217C26.2435 19.0695 26.3739 18.5217 26.6348 18.026C26.8956 17.5565 27.2608 17.1912 27.7304 16.9304C28.2 16.6695 28.7217 16.5391 29.3217 16.5391C29.9217 16.5391 30.4695 16.6695 30.913 16.9304C31.3565 17.1912 31.7217 17.5304 31.9565 17.9738C32.2174 18.4173 32.3217 18.913 32.3217 19.4869C32.2956 19.6434 32.2956 19.826 32.2435 20.0347ZM30.3391 18.2086C30.0522 17.9478 29.713 17.8173 29.2956 17.8173C28.8782 17.8173 28.513 17.9478 28.2261 18.2086C27.9391 18.4695 27.7826 18.8608 27.7565 19.3565H30.7565C30.7565 18.8347 30.6261 18.4695 30.3391 18.2086Z" fill="white"/>
<path d="M37.3565 17.1391C37.8 17.5043 38.087 18.0261 38.1913 18.6522H36.7304C36.6783 18.3652 36.5478 18.1304 36.3391 17.9478C36.1304 17.7652 35.8696 17.687 35.5304 17.687C35.2696 17.687 35.0609 17.7391 34.9044 17.8696C34.7478 18 34.6696 18.1565 34.6696 18.3913C34.6696 18.5739 34.7218 18.7043 34.8522 18.8087C34.9826 18.913 35.1131 18.9913 35.2957 19.0435C35.4783 19.0957 35.7391 19.1739 36.0522 19.2522C36.5217 19.3565 36.887 19.4609 37.2 19.5913C37.487 19.6956 37.7478 19.8782 37.9565 20.1391C38.1652 20.4 38.2696 20.713 38.2696 21.1565C38.2696 21.6783 38.0609 22.1217 37.6435 22.4348C37.2261 22.7739 36.6783 22.9304 35.9739 22.9304C35.1652 22.9304 34.5391 22.7478 34.0435 22.3826C33.5739 22.0174 33.2609 21.5217 33.1565 20.8435H34.6696C34.6957 21.1565 34.8522 21.3913 35.0609 21.5478C35.2957 21.7304 35.5826 21.8087 35.9739 21.8087C36.2348 21.8087 36.4435 21.7565 36.5739 21.6261C36.7044 21.4956 36.7826 21.3391 36.7826 21.1304C36.7826 20.9478 36.7304 20.8174 36.6 20.687C36.4696 20.5826 36.3131 20.4783 36.1565 20.4261C35.9739 20.3739 35.7131 20.2957 35.3739 20.2174C34.9044 20.113 34.5391 20.0087 34.2522 19.9043C33.9652 19.8 33.7305 19.6174 33.5218 19.3826C33.3131 19.1478 33.2087 18.8087 33.2087 18.3913C33.2087 17.8696 33.4174 17.4261 33.8087 17.087C34.2261 16.7478 34.7739 16.5913 35.5044 16.5913C36.287 16.5652 36.887 16.7739 37.3565 17.1391Z" fill="white"/>
<path d="M39.4435 14.2696C39.6261 14.1131 39.8609 14.0349 40.1479 14.0349C40.4348 14.0349 40.6696 14.1131 40.8522 14.2696C41.0348 14.4261 41.1131 14.6348 41.1131 14.8957C41.1131 15.1305 41.0348 15.3392 40.8522 15.4957C40.6696 15.6522 40.4348 15.7305 40.1479 15.7305C39.8609 15.7305 39.6261 15.6522 39.4435 15.4957C39.2609 15.3392 39.1826 15.1305 39.1826 14.8957C39.1826 14.6348 39.2609 14.4261 39.4435 14.2696ZM40.9305 22.8001H39.3652V16.6435H40.9305V22.8001Z" fill="white"/>
<path d="M46.1739 16.9304C46.5391 17.1652 46.8 17.5043 46.9565 17.9217V14.5826H48.5217V22.8H46.9565V21.5217C46.8 21.9391 46.5391 22.2782 46.1739 22.513C45.8087 22.7739 45.3652 22.8782 44.8435 22.8782C44.3218 22.8782 43.8522 22.7478 43.4348 22.513C43.0174 22.2522 42.7044 21.8869 42.4696 21.4174C42.2348 20.9478 42.1305 20.3739 42.1305 19.7217C42.1305 19.0695 42.2348 18.5217 42.4696 18.0261C42.7044 17.5565 43.0174 17.1913 43.4348 16.9304C43.8522 16.6695 44.3218 16.5391 44.8435 16.5391C45.3652 16.5652 45.8087 16.6956 46.1739 16.9304ZM44.1391 18.4174C43.8522 18.7304 43.6957 19.1739 43.6957 19.7217C43.6957 20.2695 43.8522 20.713 44.1391 21.0261C44.4261 21.3391 44.8174 21.4956 45.3131 21.4956C45.7826 21.4956 46.1739 21.3391 46.487 21C46.8 20.6869 46.9565 20.2435 46.9565 19.6956C46.9565 19.1478 46.8 18.7043 46.487 18.3913C46.1739 18.0782 45.7826 17.8956 45.3131 17.8956C44.8435 17.9478 44.4522 18.1043 44.1391 18.4174Z" fill="white"/>
<path d="M55.6696 20.0347H51.1565C51.1826 20.5825 51.3391 20.9999 51.6 21.2347C51.887 21.4956 52.2261 21.626 52.6174 21.626C52.9826 21.626 53.2957 21.5478 53.5304 21.3652C53.7652 21.1825 53.9217 20.9478 54 20.6347H55.6696C55.5913 21.0521 55.4087 21.4434 55.1478 21.7826C54.887 22.1217 54.5478 22.3825 54.1304 22.5912C53.713 22.7739 53.2435 22.8782 52.7478 22.8782C52.1478 22.8782 51.6261 22.7478 51.1565 22.4869C50.687 22.226 50.3217 21.8608 50.0609 21.3912C49.8 20.9217 49.6696 20.3478 49.6696 19.7217C49.6696 19.0695 49.8 18.5217 50.0609 18.026C50.3217 17.5565 50.687 17.1912 51.1565 16.9304C51.6261 16.6695 52.1478 16.5391 52.7478 16.5391C53.3478 16.5391 53.8957 16.6695 54.3391 16.9304C54.7826 17.1912 55.1478 17.5304 55.3826 17.9738C55.6435 18.4173 55.7478 18.913 55.7478 19.4869C55.7217 19.6434 55.7217 19.826 55.6696 20.0347ZM53.7652 18.2086C53.4783 17.9478 53.1391 17.8173 52.7217 17.8173C52.3044 17.8173 51.9391 17.9478 51.6522 18.2086C51.3652 18.4695 51.2087 18.8608 51.1826 19.3565H54.1826C54.1826 18.8347 54.0522 18.4695 53.7652 18.2086Z" fill="white"/>
<path d="M62.2174 17.2695C62.6348 17.7391 62.8435 18.3913 62.8435 19.226V22.8H61.2783V19.4087C61.2783 18.913 61.1479 18.5478 60.9131 18.2608C60.6522 18 60.3131 17.8434 59.8696 17.8434C59.4261 17.8434 59.0609 18 58.8 18.2869C58.5392 18.5739 58.4087 18.9913 58.4087 19.5391V22.8H56.8435V16.6434H58.4087V17.8695C58.5652 17.4521 58.8522 17.1391 59.2174 16.9043C59.5826 16.6695 60.0261 16.5652 60.5218 16.5652C61.2261 16.5652 61.8 16.8 62.2174 17.2695Z" fill="white"/>
<path d="M68.9739 17.2173C69.4956 17.6347 69.8347 18.2347 69.9652 18.9651H68.2956C68.2173 18.6521 68.0869 18.3912 67.8521 18.1825C67.6174 17.9999 67.3043 17.8956 66.9391 17.8956C66.5217 17.8956 66.1826 18.0521 65.8956 18.3652C65.6087 18.6782 65.4782 19.1217 65.4782 19.7217C65.4782 20.3217 65.6087 20.7652 65.8956 21.0782C66.1826 21.3912 66.5217 21.5478 66.9391 21.5478C67.3043 21.5478 67.5913 21.4434 67.8521 21.2608C68.0869 21.0782 68.2434 20.8173 68.2956 20.4782H69.9652C69.8347 21.2086 69.4956 21.8086 68.9739 22.226C68.4521 22.6434 67.7739 22.8782 66.9913 22.8782C66.3913 22.8782 65.8695 22.7478 65.4 22.4869C64.9304 22.226 64.5652 21.8608 64.3043 21.3912C64.0435 20.9217 63.913 20.3478 63.913 19.7217C63.913 19.0695 64.0435 18.5217 64.3043 18.026C64.5652 17.5565 64.9304 17.1912 65.4 16.9304C65.8695 16.6695 66.3913 16.5391 66.9913 16.5391C67.7739 16.5651 68.4521 16.7999 68.9739 17.2173Z" fill="white"/>
<path d="M76.8261 20.0347H72.313C72.3391 20.5825 72.4957 20.9999 72.7565 21.2347C73.0435 21.4956 73.3826 21.626 73.7739 21.626C74.1391 21.626 74.4522 21.5478 74.687 21.3652C74.9217 21.1825 75.0783 20.9478 75.1565 20.6347H76.8261C76.7478 21.0521 76.5652 21.4434 76.3044 21.7826C76.0435 22.1217 75.7044 22.3825 75.287 22.5912C74.8696 22.7739 74.4 22.8782 73.9044 22.8782C73.3044 22.8782 72.7826 22.7478 72.313 22.4869C71.8435 22.226 71.4783 21.8608 71.2174 21.3912C70.9565 20.9217 70.8261 20.3478 70.8261 19.7217C70.8261 19.0695 70.9565 18.5217 71.2174 18.026C71.4783 17.5565 71.8435 17.1912 72.313 16.9304C72.7826 16.6695 73.3044 16.5391 73.9044 16.5391C74.5044 16.5391 75.0522 16.6695 75.4957 16.9304C75.9391 17.1912 76.3044 17.5304 76.5391 17.9738C76.8 18.4173 76.9044 18.913 76.9044 19.4869C76.8783 19.6434 76.8522 19.826 76.8261 20.0347ZM74.8957 18.2086C74.6087 17.9478 74.2696 17.8173 73.8522 17.8173C73.4348 17.8173 73.0696 17.9478 72.7826 18.2086C72.4957 18.4695 72.3391 18.8608 72.313 19.3565H75.313C75.313 18.8347 75.1826 18.4695 74.8957 18.2086Z" fill="white"/>
<path d="M0 26.4H8.86956C9.36521 25.8783 9.73042 25.4087 10.1478 24.8087H0V26.4Z" fill="white"/>
<path d="M0 22.826H11.3478C11.713 22.1217 11.9739 21.5478 12.2348 20.7913H0V22.826Z" fill="white"/>
<path d="M0 30.0001H3.93913C4.64347 29.661 5.32174 29.2958 5.97391 28.8523H0V30.0001Z" fill="white"/>
<path d="M0 0V15.9391H13.0956C13.0956 15.8348 13.0956 15.7304 13.0956 15.6C13.0956 7.8 7.43477 1.30435 0 0Z" fill="white"/>
<path d="M0 19.4609H12.6261C12.8348 18.5739 12.9913 17.6869 13.0435 16.7478H0V19.4609Z" fill="white"/>
</svg>
