<svg viewBox="0 0 58 58" fill="none" xmlns="http://www.w3.org/2000/svg">
<circle cx="28.6669" cy="29.3331" r="28.6669" fill="#B3717B"/>
<path d="M43.2662 24.788L39.9341 22.6008L39.8389 16.5078C39.8389 16.2221 39.6167 16 39.3311 16H18.6719C18.3863 16 18.1642 16.2221 18.1642 16.5078V22.4421L14.7052 24.788C14.7052 24.788 14.7051 24.788 14.7051 25.0443V42.657C14.7051 42.6253 14.7051 42.6887 14.7051 42.657H15.1811C15.1811 42.657 15.1811 42.657 15.2129 42.657H42.7584H43.2662C43.2662 42.657 43.2662 42.2127 43.2662 42.181V25.0443C43.2662 24.8857 43.2662 25.0077 43.2662 24.788ZM39.8389 23.7432L41.9333 25.0443L39.8389 26.6628V23.7432ZM19.1797 22.3786V17.0155H38.7916V22.3786V27.2658L28.9856 34.8186L19.1797 27.2658V22.3786ZM18.1324 23.7432V26.6628L17.5295 26.1868L16.038 25.0443L18.1324 23.7432ZM15.7206 26.0916L18.3228 28.1226L25.4948 33.5809L15.7206 41.102V26.0916ZM16.7044 41.6415L26.3199 34.2474L28.9856 36.3736L31.6513 34.2474L41.2352 41.6415H16.7044ZM42.2507 41.102L38.0617 37.8651L32.4764 33.5809L41.8064 26.3772L42.2189 26.0598V41.102H42.2507Z" fill="white"/>
<path d="M22.0995 20.3476H32.4767C32.7624 20.3476 32.9845 20.1255 32.9845 19.8399C32.9845 19.5543 32.7624 19.3321 32.4767 19.3321H22.0995C21.8139 19.3321 21.5918 19.5543 21.5918 19.8399C21.5918 20.1255 21.8139 20.3476 22.0995 20.3476Z" fill="white"/>
<path d="M36.3801 26.758C36.3801 26.4724 36.158 26.2503 35.8723 26.2503H22.0995C21.8139 26.2503 21.5918 26.4724 21.5918 26.758C21.5918 27.0437 21.8139 27.2658 22.0995 27.2658H35.8723C36.158 27.2975 36.3801 27.0437 36.3801 26.758Z" fill="white"/>
<path d="M22.0995 23.8385H32.7941C33.0797 23.8385 33.3018 23.6164 33.3018 23.3308C33.3018 23.0451 33.0797 22.823 32.7941 22.823H22.0995C21.8139 22.823 21.5918 23.0451 21.5918 23.3308C21.5918 23.6164 21.8139 23.8385 22.0995 23.8385Z" fill="white"/>
</svg>
