<svg viewBox="0 0 22 30" fill="none" xmlns="http://www.w3.org/2000/svg">
<path d="M20.0147 13.551C18.3415 12.2625 16.3659 12.1094 14.9854 12.0307C16.1684 10.8581 16.9024 9.23339 16.9039 7.43628C16.9039 7.12605 16.8746 6.82288 16.8326 6.52416C17.8691 6.23474 18.6331 5.26429 18.6331 4.10845C18.6346 2.723 17.5413 1.59985 16.1926 1.5991C15.5063 1.59873 14.887 1.89039 14.4427 2.35815C13.3393 1.4843 11.948 0.957836 10.4321 0.957093C8.90258 0.95635 7.49891 1.48913 6.39008 2.37524C5.94546 1.8941 5.31852 1.59242 4.62138 1.59242C3.27307 1.59167 2.17907 2.71371 2.17871 4.09879C2.17762 5.27247 2.96339 6.25555 4.02374 6.52937C3.9825 6.82399 3.95392 7.12271 3.95356 7.42848C3.95247 9.15129 4.62934 10.7136 5.72623 11.8743C4.47776 11.8431 2.97316 11.9671 1.56623 12.7923C-0.635505 14.0808 0.177756 17.6483 3.38232 17.3158C3.81789 17.2704 4.22163 17.195 4.61234 17.1047C4.45461 17.4376 4.30809 17.8032 4.18473 18.2164C4.02844 18.7424 3.96586 19.4506 4.08054 20.2018C3.374 22.4359 3.25715 25.4973 3.7535 27.6708C4.48934 30.8912 8.03903 30.5216 8.50933 27.9636C8.71265 26.8646 8.58639 25.5471 8.34039 24.2984C8.9279 24.4184 9.58777 24.4871 10.3298 24.4897C11.05 24.4927 11.6926 24.4318 12.267 24.3229C12.037 25.5783 11.9288 26.9017 12.1487 28.0003C12.6556 30.5506 16.2093 30.8671 16.8995 27.6366C17.3452 25.5475 17.2172 22.6532 16.5573 20.4589C16.7226 19.6326 16.668 18.8405 16.5005 18.2647C16.4014 17.9217 16.2856 17.6119 16.1611 17.3254C16.6264 17.5171 17.1216 17.6784 17.6647 17.8069C20.803 18.5459 22.0425 15.1111 20.0147 13.551ZM16.1919 2.79433C16.897 2.7947 17.4682 3.38247 17.4679 4.10696C17.4679 4.69993 17.0829 5.19481 16.5569 5.35717C16.2813 4.54351 15.8489 3.80379 15.2951 3.17144C15.5262 2.93886 15.8424 2.79396 16.1919 2.79433ZM13.3296 5.96501C13.7282 5.96538 14.0513 6.3057 14.0509 6.72665C14.0509 7.14686 13.7272 7.48681 13.3288 7.48681C12.9302 7.48644 12.6067 7.14574 12.6075 6.72554C12.6078 6.30496 12.9313 5.96463 13.3296 5.96501ZM10.4513 6.93434C10.8381 6.93397 11.2114 7.00084 11.5547 7.12122C11.9972 7.27392 12.3893 7.51802 12.7164 7.82193C13.161 8.24771 13.4775 8.7935 13.5973 9.40727C13.6345 9.58561 13.6526 9.77286 13.653 9.96457C13.6519 10.4149 13.5481 10.841 13.3654 11.2244C13.2026 11.5547 12.9812 11.852 12.7149 12.105C12.3864 12.4145 11.995 12.6534 11.5518 12.8061C11.2085 12.9264 10.8348 12.9907 10.4473 12.99C10.1076 12.9903 9.78132 12.9413 9.47309 12.8492C8.97891 12.6987 8.54045 12.4412 8.18302 12.1028C7.91458 11.849 7.69209 11.5521 7.53255 11.2215C7.3466 10.8377 7.24494 10.4112 7.24458 9.96049C7.24494 9.76952 7.26376 9.58189 7.2974 9.40356C7.41859 8.79015 7.73514 8.244 8.18519 7.81896C8.54334 7.48235 8.98144 7.22525 9.47598 7.07924C9.78494 6.98301 10.1109 6.93434 10.4513 6.93434ZM7.48371 5.96129C7.88275 5.96129 8.20581 6.30236 8.20508 6.72294C8.20508 7.14351 7.88166 7.48347 7.48299 7.4831C7.08396 7.4831 6.7609 7.14203 6.76126 6.72145C6.76126 6.30162 7.08468 5.96092 7.48371 5.96129ZM4.29579 5.36461C3.74735 5.21673 3.34108 4.70885 3.34144 4.09916C3.3418 3.3743 3.91412 2.78727 4.61994 2.78764C4.98243 2.78764 5.30766 2.94406 5.53992 3.19299C4.99401 3.82274 4.5682 4.55726 4.29579 5.36461ZM10.2335 22.9958C8.2977 22.9947 6.72978 21.1195 6.73123 18.8075C6.73268 16.4954 8.30276 14.6214 10.2386 14.6225C12.1744 14.624 13.7427 16.4995 13.7413 18.8112C13.7398 21.1232 12.1694 22.9969 10.2335 22.9958Z" />
</svg>
