<svg viewBox="0 0 33 30" fill="none" xmlns="http://www.w3.org/2000/svg">
<path fill-rule="evenodd" clip-rule="evenodd" d="M28.249 27.9674C28.2721 28.2168 28.2556 28.4696 28.2556 28.7578C28.6627 28.7578 29.2502 28.7578 29.6705 28.7578C29.6866 28.4096 29.7027 28.0599 29.722 27.6433C30.8549 27.7625 31.8491 27.8006 32.9014 28.2165C32.908 28.2768 32.9142 28.3372 32.9208 28.3972C32.6564 28.4857 32.3977 28.624 32.1271 28.6547C30.5041 28.839 28.8822 29.0925 27.2541 29.1485C23.0392 29.293 18.8206 29.4228 14.6042 29.4151C10.3286 29.4071 6.04785 29.331 1.79343 28.8116C1.3234 28.7542 0.859589 28.64 0.395777 28.5395C0.287505 28.516 0.191304 28.4385 0 28.3397C0.527825 27.9202 1.09406 27.9216 1.61713 27.85C2.57255 27.7186 3.53566 27.64 4.49766 27.5683C4.78151 27.5467 4.90771 27.4308 5.01415 27.1831C5.93958 25.0283 6.39973 22.7714 6.49923 20.4374C6.58702 18.367 6.44838 16.3113 6.05224 14.275C6.03578 14.1902 6.0131 14.106 5.99993 14.0515C5.49077 14.2315 5.01013 14.4784 4.50205 14.5687C2.08606 14.9974 0.120708 12.6813 0.914823 10.356C1.00224 10.1003 0.987248 9.94123 0.818988 9.72469C-0.207399 8.40787 -0.0618173 6.54348 1.15331 5.40114C1.34389 5.22227 1.42363 5.05803 1.41814 4.79357C1.37242 2.70898 2.93102 1.26011 5.00318 1.42252C5.15827 1.43422 5.37371 1.33875 5.47869 1.21951C6.80978 -0.29154 8.80147 -0.41042 10.3048 0.930174C10.4113 1.02491 10.6556 1.06881 10.7866 1.0154C13.234 0.020838 15.5973 1.79781 15.3493 4.44608C15.3354 4.59532 15.4338 4.81588 15.5538 4.90843C17.3802 6.32108 17.3721 8.79962 15.5202 10.2028C15.3508 10.3312 15.2253 10.4226 15.2648 10.6951C15.4554 12.0225 14.9901 13.1122 13.8939 13.8657C12.8093 14.6112 11.6443 14.6243 10.476 14.0117C10.4003 13.9722 10.3202 13.9396 10.1614 13.8668C10.0195 14.7096 9.85382 15.503 9.75762 16.3044C9.32563 19.8993 9.68995 23.4134 10.8502 26.8473C10.9702 27.2025 11.1377 27.294 11.4881 27.2713C12.0024 27.2373 12.2962 27.2625 12.8646 27.2625C12.8646 27.7647 12.8774 28.339 12.8774 28.8595C13.3064 28.8595 14.0369 28.8591 14.4704 28.8591C14.4704 28.4561 14.4429 28.0061 14.4429 28.0061C14.4429 28.0061 14.5607 28.0032 14.4813 27.9893C14.5823 28.0142 14.5234 27.9681 14.5234 27.9681C14.5234 27.9681 14.5706 27.8719 14.5816 27.9893C14.9748 27.9893 15.635 28.023 16.0425 28.023C16.0586 27.8068 16.0648 27.486 16.0879 27.1787C19.6967 27.2541 23.0052 27.3112 26.6048 27.3861C26.6487 27.595 26.6184 27.9282 26.6535 28.095C27.0142 28.095 27.8266 28.1119 28.0972 28.1119C28.1247 27.9549 28.091 27.4611 28.091 27.4611C28.091 27.4611 28.143 27.4688 28.2311 27.4469" />
<path fill-rule="evenodd" clip-rule="evenodd" d="M30.1748 24.5622C29.9096 24.5852 29.7081 24.5596 29.466 24.5805C29.466 25.6058 29.466 26.6135 29.466 27.6212C29.466 27.799 29.4674 27.9771 29.4681 28.1549C29.4703 28.7533 29.4956 28.6048 28.9228 28.6253C28.5581 28.6381 28.4052 28.6527 28.4118 28.2771C28.4323 27.0612 28.4194 25.8446 28.4194 24.5911C28.2406 24.5911 28.0899 24.5911 27.8806 24.5911C27.8806 25.5158 27.8858 26.4324 27.8755 27.3491C27.8737 27.5137 27.8335 27.8074 27.7687 27.8195C27.501 27.8707 27.2135 27.8572 26.9413 27.8144C26.8901 27.8067 26.8513 27.5572 26.8502 27.4186C26.8422 26.4848 26.8458 25.5513 26.8458 24.5841C23.1507 24.5841 19.4911 24.5841 15.7747 24.5841C15.7747 25.6716 15.7747 26.7467 15.7747 27.8085C15.6792 27.8389 15.639 27.8601 15.5969 27.8638C14.7319 27.949 14.7231 27.9354 14.7315 27.0817C14.7395 26.2543 14.7333 25.4269 14.7333 24.5768C14.5508 24.5768 14.4253 24.5768 14.2406 24.5768C14.2406 25.462 14.2395 26.333 14.241 27.2035C14.2413 27.5602 14.2263 27.9183 14.2552 28.2727C14.2936 28.7402 14.0237 28.75 13.6711 28.757C13.3141 28.7647 13.1733 28.6754 13.182 28.2881C13.2069 27.2039 13.1915 26.1186 13.1901 25.0341C13.1901 24.8892 13.1784 24.7444 13.1711 24.5783C13.0032 24.5611 12.9472 24.5662 12.6853 24.5618C12.6853 24.2421 12.7149 24.0636 12.7661 23.8328C13.3155 23.0383 13.9323 22.2537 13.9323 22.2537C13.9323 22.2537 14.8036 22.2622 15.5563 22.2622C19.9838 22.2622 24.4119 22.2669 28.8397 22.2537C29.0018 22.253 29.2487 22.2537 29.2487 22.2537C29.2487 22.2537 29.4393 22.5036 29.5095 22.6781C29.6946 23.1393 29.9353 23.5782 30.1298 24.0358C30.1843 24.1631 30.1595 24.3661 30.1748 24.5622Z" />
<path fill-rule="evenodd" clip-rule="evenodd" d="M29.2461 19.7599C29.2461 20.0785 29.2461 20.182 29.2461 20.5295C24.1434 20.5295 19.0506 20.5295 13.9304 20.5295C13.9304 20.2069 13.9304 20.1048 13.9304 19.7599C19.0331 19.7599 24.1273 19.7599 29.2461 19.7599Z" />
<path fill-rule="evenodd" clip-rule="evenodd" d="M29.247 21.0092C29.247 21.3486 29.2601 21.4975 29.2601 21.8607C29.1043 21.8692 28.9489 21.8849 28.7941 21.8849C23.9994 21.8863 19.211 21.8446 14.4156 21.8626C14.2115 21.8633 13.9463 21.8703 13.9463 21.8703C13.9463 21.8703 13.9353 21.7196 13.9331 21.5165C13.9309 21.2876 13.9331 20.9788 13.9331 20.9788C13.9331 20.9788 14.2257 20.9781 14.4039 20.9788C19.1985 20.996 23.9936 20.9884 28.7883 20.9884C28.9328 20.9887 29.0772 21.0012 29.247 21.0092Z" />
<path fill-rule="evenodd" clip-rule="evenodd" d="M13.9826 18.3708C19.0809 18.3708 24.1422 18.3708 29.238 18.3708C29.238 18.7074 29.235 18.9236 29.235 19.2919C29.058 19.2919 28.8989 19.2919 28.7401 19.2919C24.046 19.2915 19.3523 19.2919 14.6582 19.2912C14.2672 19.2912 13.9713 19.2919 13.9713 19.2919C13.9713 19.2919 13.9563 18.9093 13.9826 18.3708Z" />
</svg>
