<svg viewBox="0 0 19 14" fill="none" xmlns="http://www.w3.org/2000/svg">
<path fill-rule="evenodd" clip-rule="evenodd" d="M13.658 11.8778L9.17036 13.0485L4.68274 11.8778L0 13.0485L1.95114 2.31722L5.65831 1.73187L6.37106 1.8505C6.27721 2.00601 6.19839 2.17498 6.12873 2.35136L5.85342 2.31722L5.07297 11.4876L8.97525 12.4632V10.0791C9.09739 10.2307 9.17036 10.3169 9.17036 10.3169C9.17036 10.3169 9.24353 10.2308 9.36548 10.0791V12.4632L13.2678 11.4876L12.4873 2.31722L12.2141 2.35136C12.1449 2.17439 12.0637 2.0064 11.9697 1.8507L12.6824 1.73187L16.3896 2.31722L18.3407 13.0485L13.658 11.8778ZM5.26808 2.31722L2.34137 2.70744L0.585342 12.4632L4.48763 11.4876L5.26808 2.31722ZM15.9994 2.70744L13.0726 2.31722L13.8531 11.4876L17.7554 12.4632L15.9994 2.70744ZM9.17036 9.73155C9.17036 9.73155 6.24365 5.4646 6.24365 3.87813C6.24365 2.29166 7.62779 0.951416 9.17036 0.951416C10.7129 0.951416 12.0971 2.29166 12.0971 3.87813C12.0971 5.4646 9.17036 9.73155 9.17036 9.73155ZM9.17036 2.90256C8.61 2.90256 8.15577 3.35678 8.15577 3.91696C8.15577 4.47732 8.61 4.93155 9.17036 4.93155C9.73073 4.93155 10.185 4.47732 10.185 3.91696C10.185 3.35678 9.73073 2.90256 9.17036 2.90256Z" fill="#B3717B"/>
</svg>
