<svg viewBox="0 0 24 27" fill="none" xmlns="http://www.w3.org/2000/svg">
<path d="M15.9526 20.4706C16.2985 19.8045 16.8173 19.3605 17.5091 19.3605C18.8063 19.3605 20.579 19.8045 21.1843 18.2503C21.5302 17.3622 21.6167 16.3853 21.6167 15.4084C21.6167 13.277 20.1899 11.412 21.4005 9.45823C21.7032 8.96978 22.2653 8.57014 22.7409 8.79217C23.13 9.01419 23.303 9.59145 23.303 10.0799C23.4327 11.5897 23.2165 13.1438 23.13 14.6536C23.13 14.8756 23.0868 15.142 23.0868 15.364C22.9571 16.9626 22.8274 18.6056 22.3085 20.0709C22.222 20.2929 22.1356 20.515 22.0058 20.6482C21.7897 20.8702 21.4005 20.9146 21.0979 20.9146C20.9681 20.9146 20.7952 20.9146 20.6222 20.9146C20.6222 21.3587 20.6222 21.3142 20.6222 21.7583C20.6222 22.0247 20.579 22.2467 20.3196 22.2467V24.3782C20.8817 24.6002 21.4438 25.0442 22.0058 25.7103C22.1788 25.9323 22.1356 26.2432 21.9626 26.4208C21.8761 26.5096 21.7897 26.554 21.6599 26.554C21.5302 26.554 21.4438 26.5096 21.3573 26.3764C20.7952 25.6659 20.1899 25.2663 19.6278 25.2219C19.0657 25.2663 18.4604 25.6215 17.8983 26.3764C17.8118 26.4652 17.6821 26.554 17.5956 26.554C17.5091 26.554 17.3794 26.5096 17.2929 26.4208C17.12 26.2432 17.12 25.9323 17.2497 25.7103C17.7686 25.0442 18.3306 24.6002 18.936 24.3782V22.3356C18.6333 22.3356 18.5901 22.0691 18.6333 21.8471C18.6333 21.4031 18.6333 21.3587 18.6333 20.9146C17.9847 20.959 17.4227 21.0922 17.0335 21.4919C16.7741 21.7583 16.4282 21.7583 16.1688 21.4919C15.8229 21.2254 15.7364 20.8258 15.9526 20.4706Z" />
<path d="M20.1929 15.6297V15.7185V15.7629C20.1929 15.9405 20.1929 16.1181 20.1929 16.2957C20.1929 17.5835 19.3281 18.4271 18.0742 18.3383C17.123 18.2495 16.1285 18.2051 15.1773 18.1163C14.8314 18.0719 14.6152 18.2939 14.572 18.6492C14.399 20.3365 14.2693 21.9795 14.0964 23.6669C14.0964 23.8445 14.0531 23.9777 14.0531 24.1553C13.9667 24.5994 13.7505 24.777 13.3613 24.8214C13.1019 24.8214 12.8425 24.8214 12.6263 24.8214C12.2804 24.8214 12.0642 24.6882 11.9345 24.4662C11.848 24.3329 11.8048 24.1553 11.8048 23.9333C11.8048 22.5124 11.8048 21.0914 11.8048 19.6261C11.8048 18.6936 11.8048 17.8055 11.8048 16.873C11.8048 15.9849 12.3236 15.452 13.1884 15.452C14.0099 15.452 14.8314 15.452 15.6529 15.452C16.1285 15.452 16.388 15.23 16.4312 14.7416L16.2582 10.834C16.0421 10.9672 15.9123 11.1004 15.7394 11.1892C15.3503 11.4112 15.0476 11.7221 14.572 11.7221C13.664 11.7221 12.4533 11.7221 11.5453 11.7221C10.8535 11.7221 10.3779 11.1892 10.3779 10.4787C10.3779 10.2123 10.4644 9.99028 10.5941 9.81266C10.8103 9.50183 11.1562 9.2798 11.5886 9.32421C12.2804 9.32421 13.0154 9.32421 13.7072 9.32421C13.8369 9.32421 14.3126 9.2798 14.399 9.2354C14.7882 9.01337 15.1773 8.74695 15.5664 8.48052C15.9556 8.2585 16.3015 7.99207 16.7339 7.81445C16.8203 7.77005 16.9068 7.72564 16.9933 7.72564C17.6419 7.54802 18.2904 7.63683 18.939 7.68124C19.5443 7.72564 20.0632 8.3029 20.1496 8.92457C20.1929 9.2354 20.1929 9.59063 20.1929 9.90147C20.1929 11.7221 20.1929 13.5426 20.1929 15.3632C20.1929 15.452 20.1929 15.5408 20.1929 15.6297Z" />
<path d="M20.1929 4.21816C20.1929 5.06185 19.8037 5.77232 19.1552 6.21637C18.766 6.4828 18.2904 6.66042 17.7716 6.66042C17.5554 6.66042 17.3824 6.61601 17.2095 6.57161C16.1718 6.30518 15.48 5.32828 15.48 4.12936C15.48 2.70841 16.5177 1.6427 17.8148 1.6427C19.1119 1.6871 20.1929 2.75281 20.1929 4.21816Z" />
<path d="M1.08094 8.43665H14.5711C14.4414 8.52545 14.2684 8.61426 14.1387 8.70307C14.0522 8.70307 13.7928 8.74748 13.6631 8.74748C13.0145 8.74748 12.3227 8.74748 11.5444 8.74748C10.9391 8.74748 10.4203 9.0139 10.1176 9.50235C9.94466 9.76878 9.81494 10.124 9.81494 10.4793C9.81494 10.5237 9.81494 10.5681 9.81494 10.6125H1.08094C0.475614 10.6125 0 10.124 0 9.54676C0 8.9695 0.475614 8.43665 1.08094 8.43665Z" />
<path d="M1.34106 11.0564V25.2659H9.55621V11.0564H1.34106ZM8.82117 19.4489C8.82117 19.7597 8.56175 19.9817 8.30232 19.9817C8.17261 19.9817 8.0429 19.9373 7.91318 19.8041C7.82671 19.7153 7.74023 19.5821 7.74023 19.4045V16.829C7.74023 16.5182 7.99966 16.2961 8.25908 16.2961C8.3888 16.2961 8.51851 16.3405 8.64822 16.4738C8.7347 16.5626 8.82117 16.6958 8.82117 16.8734V19.4489Z" />
<path d="M15.7392 11.8563L15.7824 12.7H9.9021V11.1459C9.98857 11.4123 10.1183 11.6343 10.2912 11.8119C10.5939 12.1228 11.0263 12.3004 11.5019 12.3004C11.891 12.3004 12.3234 12.3004 12.7558 12.3004C13.3611 12.3004 14.0097 12.3004 14.5285 12.3004H14.5718C15.0906 12.3004 15.4365 12.0784 15.7392 11.8563Z" />
<path d="M2.76782 0V6.26104H6.39978H6.48626V6.7939C5.70798 6.92711 5.10265 7.23794 4.88647 7.59318C4.79999 7.72639 4.88647 7.94842 5.05942 7.94842H10.0317C10.2047 7.94842 10.2912 7.7708 10.2047 7.59318C9.98851 7.23794 9.38318 6.92711 8.6049 6.7939V6.26104H8.69138H11.4586H12.3233V0H2.76782ZM11.6748 5.68378H3.37315V0.48845H11.6748V5.68378Z" />
</svg>
