<svg  viewBox="0 0 26 26" fill="none" xmlns="http://www.w3.org/2000/svg">
<path d="M1.19991 18.4263L8.10985 25.3362C8.60438 25.8308 9.40697 25.8346 9.90617 25.3472L1.18891 16.63C0.701529 17.1295 0.70538 17.9318 1.19991 18.4263Z" />
<path d="M16.3278 8.07674L7.94727 16.4572L10.0792 18.5892L18.4597 10.2087L16.3278 8.07674Z" />
<path d="M1.74002 13.6459L1.67236 13.7136C1.02848 14.3575 1.02848 15.4051 1.67236 16.049L1.89487 16.2715H1.89295L10.2661 24.6447V24.643L10.4886 24.8656C11.1325 25.5094 12.1799 25.5094 12.824 24.8653L12.8917 24.7976C13.5356 24.1537 13.5356 23.1061 12.892 22.4622L4.0757 13.6459C3.43155 13.0021 2.38418 13.0021 1.74002 13.6459Z" />
<path d="M13.5838 1.80066L13.5161 1.86832C12.8722 2.5122 12.8722 3.55984 13.5161 4.20372L22.3327 13.0203C22.9765 13.6642 24.0239 13.6642 24.6681 13.02L24.7357 12.9523C25.3796 12.3085 25.3796 11.2608 24.736 10.6169L15.9195 1.80066C15.2753 1.15678 14.2279 1.15678 13.5838 1.80066Z" />
<path d="M16.498 1.32111L25.2167 10.037C25.7049 9.53779 25.7016 8.73466 25.2065 8.23986L18.2966 1.32991C17.8012 0.834555 16.997 0.83153 16.498 1.32111Z" />
<path d="M3.08174 23.455C3.53859 23.9119 4.19155 24.0981 4.82855 23.9534L5.35828 23.8327L2.7041 21.1785L2.58336 21.7082C2.43841 22.3452 2.62489 22.9982 3.08174 23.455Z" />
<path d="M21.5766 2.71343L21.0469 2.83417L23.7011 5.48835L23.8218 4.95861C23.9667 4.32161 23.7803 3.66865 23.3234 3.21181C22.8666 2.75496 22.2136 2.56848 21.5766 2.71343Z" />
</svg>
