<svg viewBox="0 0 84 34" fill="none" xmlns="http://www.w3.org/2000/svg">
<path d="M25.7433 15.5382L23.7661 12.2333H23.0034V15.5382H21.3086V7.03591H24.557C25.5456 7.03591 26.3083 7.29014 26.8167 7.77033C27.3251 8.25052 27.5794 8.87193 27.5794 9.66284C27.5794 10.3125 27.4099 10.8492 27.0427 11.2729C26.6755 11.6966 26.167 12.0073 25.4891 12.1486L27.6076 15.5382H25.7433ZM23.0034 11.0469H24.3875C25.3479 11.0469 25.8563 10.6232 25.8563 9.74759C25.8563 9.35214 25.7433 9.01317 25.4891 8.7872C25.2631 8.56123 24.8959 8.44824 24.3875 8.44824H23.0034V11.0469Z" />
<path d="M34.9811 8.8437V15.5099H33.2863V14.1541C33.1169 14.606 32.8061 14.945 32.4107 15.1992C32.0152 15.4534 31.535 15.5664 30.9983 15.5664C30.2357 15.5664 29.6142 15.3122 29.1623 14.8037C28.7103 14.2953 28.4844 13.5891 28.4844 12.6852V8.81544H30.1792V12.4875C30.1792 13.0242 30.3204 13.4196 30.5746 13.7304C30.8571 14.0128 31.2243 14.1823 31.6763 14.1823C32.1565 14.1823 32.5519 14.0128 32.8344 13.7021C33.1168 13.3914 33.2581 12.9394 33.2581 12.3463V8.81544H34.9811V8.8437Z" />
<path d="M40.6854 9.3804C41.1656 9.77586 41.4763 10.3408 41.5893 11.0187H40.0075C39.951 10.708 39.8097 10.4538 39.5838 10.2561C39.3578 10.0583 39.0753 9.97359 38.7081 9.97359C38.4257 9.97359 38.1997 10.0301 38.0302 10.1713C37.8607 10.3126 37.776 10.482 37.776 10.7363C37.776 10.934 37.8325 11.0752 37.9737 11.1882C38.1149 11.3012 38.2562 11.3859 38.4539 11.4424C38.6516 11.4989 38.9341 11.5837 39.2731 11.6684C39.7815 11.7814 40.1769 11.8944 40.5159 12.0356C40.8266 12.1486 41.1091 12.3463 41.335 12.6288C41.561 12.9112 41.674 13.2502 41.674 13.7304C41.674 14.2953 41.448 14.7755 40.9961 15.1145C40.5441 15.4817 39.951 15.6512 39.1883 15.6512C38.3127 15.6512 37.6348 15.4534 37.0981 15.058C36.5896 14.6625 36.2507 14.1258 36.1377 13.3914H37.776C37.8042 13.7304 37.9737 13.9846 38.1997 14.1541C38.4539 14.3518 38.7646 14.4366 39.1883 14.4366C39.4708 14.4366 39.6967 14.3801 39.838 14.2388C39.9792 14.0976 40.0639 13.9281 40.0639 13.7022C40.0639 13.5044 40.0075 13.3632 39.8662 13.222C39.725 13.0807 39.5555 12.996 39.386 12.9395C39.1883 12.883 38.9058 12.7983 38.5386 12.7135C38.0302 12.6005 37.6348 12.4875 37.324 12.3746C37.0133 12.2616 36.7591 12.0638 36.5331 11.8096C36.3072 11.5554 36.1942 11.1882 36.1942 10.7363C36.1942 10.1713 36.4202 9.69113 36.8439 9.32392C37.2958 8.95672 37.889 8.78723 38.6799 8.78723C39.5273 8.75898 40.1769 8.98495 40.6854 9.3804Z" />
<path d="M46.9007 9.18262C47.2962 9.43684 47.5786 9.80404 47.7481 10.256V8.8719H49.4429V15.5381H47.7481V14.154C47.5786 14.606 47.2962 14.9732 46.9007 15.2274C46.5053 15.5099 46.0251 15.6229 45.4601 15.6229C44.8952 15.6229 44.3867 15.4816 43.9348 15.2274C43.4829 14.9449 43.1439 14.5495 42.8897 14.041C42.6354 13.5326 42.5225 12.9112 42.5225 12.205C42.5225 11.4988 42.6354 10.9057 42.8897 10.369C43.1439 9.86053 43.4829 9.46509 43.9348 9.18262C44.3867 8.90015 44.8952 8.78716 45.4601 8.78716C45.9968 8.75891 46.477 8.90015 46.9007 9.18262ZM44.6975 10.7644C44.3867 11.1034 44.2173 11.5836 44.2173 12.1768C44.2173 12.7699 44.3867 13.2501 44.6975 13.5891C45.0082 13.9281 45.4319 14.0975 45.9686 14.0975C46.477 14.0975 46.9007 13.9281 47.2397 13.5609C47.5786 13.2219 47.7481 12.7417 47.7481 12.1485C47.7481 11.5553 47.5786 11.0751 47.2397 10.7362C46.9007 10.3972 46.477 10.1995 45.9686 10.1995C45.4319 10.256 45.0082 10.4255 44.6975 10.7644Z" />
<path d="M56.6743 9.52159C57.1262 10.03 57.3522 10.7362 57.3522 11.6401V15.5099H55.6574V11.8378C55.6574 11.3011 55.5162 10.9057 55.2619 10.595C54.9795 10.3125 54.6123 10.143 54.1321 10.143C53.6519 10.143 53.2564 10.3125 52.974 10.6232C52.6915 10.9339 52.5503 11.3859 52.5503 11.979V15.5099H50.8555V8.84368H52.5503V10.1713C52.7197 9.71933 53.0305 9.38036 53.4259 9.12614C53.8214 8.87192 54.3016 8.75894 54.8382 8.75894C55.6009 8.75894 56.2223 9.01315 56.6743 9.52159Z" />
<path d="M58.8493 6.27324C59.047 6.10376 59.3012 6.01903 59.6119 6.01903C59.9226 6.01903 60.1769 6.10376 60.3746 6.27324C60.5723 6.44272 60.6571 6.6687 60.6571 6.95117C60.6571 7.20539 60.5723 7.43136 60.3746 7.60084C60.1769 7.77032 59.9226 7.85506 59.6119 7.85506C59.3012 7.85506 59.047 7.77032 58.8493 7.60084C58.6515 7.43136 58.5668 7.20539 58.5668 6.95117C58.5385 6.6687 58.6515 6.44272 58.8493 6.27324ZM60.4311 15.5382H58.7363V8.87194H60.4311V15.5382Z" />
<path d="M64.7808 13.8151L66.4474 8.84366H68.2551L65.7977 15.5381H63.7357L61.25 8.84366H63.086L64.7808 13.8151Z" />
<path d="M25.7433 25.5374L23.7661 22.2326H23.0034V25.5374H21.3086V17.0352H24.557C25.5456 17.0352 26.3083 17.2894 26.8167 17.7696C27.3251 18.2498 27.5794 18.8712 27.5794 19.6621C27.5794 20.3118 27.4099 20.8485 27.0427 21.2722C26.6755 21.6959 26.167 22.0066 25.4891 22.1478L27.6076 25.5374H25.7433ZM23.0034 21.0745H24.3875C25.3479 21.0745 25.8563 20.6508 25.8563 19.7751C25.8563 19.3797 25.7433 19.0407 25.4891 18.8147C25.2631 18.5888 24.8959 18.4758 24.3875 18.4758H23.0034V21.0745Z" />
<path d="M34.9245 22.5433H30.0378C30.066 23.1365 30.2355 23.5884 30.518 23.8426C30.8287 24.1251 31.1959 24.2663 31.6196 24.2663C32.0151 24.2663 32.354 24.1816 32.6082 23.9839C32.8625 23.7861 33.0319 23.5319 33.1167 23.193H34.9245C34.8397 23.6449 34.642 24.0686 34.3595 24.4358C34.0771 24.803 33.7098 25.0855 33.2579 25.3115C32.806 25.5092 32.2975 25.6222 31.7608 25.6222C31.1112 25.6222 30.5462 25.4809 30.0378 25.1985C29.5293 24.916 29.1339 24.5206 28.8514 24.0121C28.569 23.5037 28.4277 22.8822 28.4277 22.2043C28.4277 21.4982 28.569 20.905 28.8514 20.3683C29.1339 19.8599 29.5293 19.4644 30.0378 19.1819C30.5462 18.8995 31.1112 18.7582 31.7608 18.7582C32.4105 18.7582 33.0037 18.8995 33.4839 19.1819C33.9641 19.4644 34.3595 19.8316 34.6137 20.3118C34.8962 20.792 35.0092 21.3287 35.0092 21.9501C34.981 22.1196 34.981 22.3173 34.9245 22.5433ZM32.8625 20.566C32.5517 20.2836 32.1845 20.1423 31.7326 20.1423C31.2806 20.1423 30.8852 20.2836 30.5745 20.566C30.2638 20.8485 30.0943 21.2722 30.066 21.8089H33.3144C33.3144 21.2439 33.1732 20.8485 32.8625 20.566Z" />
<path d="M40.4598 19.4079C40.94 19.8034 41.2507 20.3683 41.3637 21.0463H39.7819C39.7254 20.7356 39.5842 20.4813 39.3582 20.2836C39.1322 20.0859 38.8498 20.0011 38.4825 20.0011C38.2001 20.0011 37.9741 20.0576 37.8046 20.1989C37.6351 20.3401 37.5504 20.5096 37.5504 20.7638C37.5504 20.9615 37.6069 21.1028 37.7481 21.2157C37.8894 21.3287 38.0306 21.4135 38.2283 21.47C38.4261 21.5265 38.7085 21.6112 39.0475 21.6959C39.5559 21.8089 39.9514 21.9219 40.2903 22.0631C40.601 22.1761 40.8835 22.3738 41.1095 22.6563C41.3355 22.9388 41.4484 23.2777 41.4484 23.7579C41.4484 24.3229 41.2225 24.8031 40.7705 25.142C40.3186 25.5092 39.7254 25.6787 38.9627 25.6787C38.0871 25.6787 37.4092 25.481 36.8725 25.0855C36.3641 24.6901 36.0251 24.1534 35.9121 23.419H37.5504C37.5787 23.7579 37.7481 24.0122 37.9741 24.1816C38.2283 24.3794 38.539 24.4641 38.9627 24.4641C39.2452 24.4641 39.4712 24.4076 39.6124 24.2664C39.7536 24.1251 39.8384 23.9557 39.8384 23.7297C39.8384 23.532 39.7819 23.3907 39.6407 23.2495C39.4994 23.1365 39.33 23.0235 39.1605 22.967C38.9627 22.9105 38.6803 22.8258 38.3131 22.7411C37.8046 22.6281 37.4092 22.5151 37.0985 22.4021C36.7877 22.2891 36.5335 22.0914 36.3076 21.8372C36.0816 21.5829 35.9686 21.2157 35.9686 20.7638C35.9686 20.1989 36.1946 19.7187 36.6183 19.3515C37.0702 18.9843 37.6634 18.8148 38.4543 18.8148C39.3017 18.7865 39.9514 19.0125 40.4598 19.4079Z" />
<path d="M42.72 16.3008C42.9177 16.1313 43.1719 16.0466 43.4826 16.0466C43.7933 16.0466 44.0476 16.1313 44.2453 16.3008C44.443 16.4703 44.5278 16.6962 44.5278 16.9787C44.5278 17.2329 44.443 17.4589 44.2453 17.6284C44.0476 17.7979 43.7933 17.8826 43.4826 17.8826C43.1719 17.8826 42.9177 17.7979 42.72 17.6284C42.5222 17.4589 42.4375 17.2329 42.4375 16.9787C42.4375 16.6962 42.5222 16.4703 42.72 16.3008ZM44.33 25.5374H42.6352V18.8712H44.33V25.5374Z" />
<path d="M50.0081 19.182C50.4035 19.4362 50.686 19.8034 50.8555 20.2553V16.6398H52.5502V25.5375H50.8555V24.1534C50.686 24.6053 50.4035 24.9725 50.0081 25.2267C49.6126 25.5092 49.1324 25.6222 48.5675 25.6222C48.0026 25.6222 47.4941 25.481 47.0422 25.2267C46.5903 24.9443 46.2513 24.5488 45.9971 24.0404C45.7429 23.5319 45.6299 22.9105 45.6299 22.2044C45.6299 21.4982 45.7429 20.905 45.9971 20.3683C46.2513 19.8599 46.5903 19.4644 47.0422 19.182C47.4941 18.8995 48.0026 18.7583 48.5675 18.7583C49.1324 18.7865 49.6126 18.9277 50.0081 19.182ZM47.8048 20.792C47.4941 21.131 47.3247 21.6112 47.3247 22.2044C47.3247 22.7975 47.4941 23.2777 47.8048 23.6167C48.1156 23.9556 48.5393 24.1251 49.0759 24.1251C49.5844 24.1251 50.0081 23.9557 50.347 23.5884C50.686 23.2495 50.8555 22.7693 50.8555 22.1761C50.8555 21.5829 50.686 21.1027 50.347 20.7638C50.0081 20.4248 49.5844 20.2271 49.0759 20.2271C48.5675 20.2836 48.1438 20.4531 47.8048 20.792Z" />
<path d="M60.2887 22.5433H55.4021C55.4303 23.1365 55.5998 23.5884 55.8822 23.8426C56.193 24.1251 56.5602 24.2663 56.9839 24.2663C57.3793 24.2663 57.7183 24.1816 57.9725 23.9839C58.2267 23.7861 58.3962 23.5319 58.4809 23.193H60.2887C60.204 23.6449 60.0063 24.0686 59.7238 24.4358C59.4413 24.803 59.0741 25.0855 58.6222 25.3115C58.1702 25.5092 57.6618 25.6222 57.1251 25.6222C56.4754 25.6222 55.9105 25.4809 55.4021 25.1985C54.8936 24.916 54.4982 24.5206 54.2157 24.0121C53.9332 23.5037 53.792 22.8822 53.792 22.2043C53.792 21.4982 53.9332 20.905 54.2157 20.3683C54.4982 19.8599 54.8936 19.4644 55.4021 19.1819C55.9105 18.8995 56.4754 18.7582 57.1251 18.7582C57.7748 18.7582 58.3679 18.8995 58.8481 19.1819C59.3283 19.4644 59.7238 19.8316 59.978 20.3118C60.2605 20.792 60.3735 21.3287 60.3735 21.9501C60.3452 22.1196 60.3452 22.3173 60.2887 22.5433ZM58.2267 20.566C57.916 20.2836 57.5488 20.1423 57.0969 20.1423C56.6449 20.1423 56.2495 20.2836 55.9387 20.566C55.628 20.8485 55.4585 21.2722 55.4303 21.8089H58.6787C58.6787 21.2439 58.5374 20.8485 58.2267 20.566Z" />
<path d="M67.3794 19.5491C67.8313 20.0576 68.0573 20.7637 68.0573 21.6676V25.5374H66.3625V21.8654C66.3625 21.3287 66.2213 20.9332 65.967 20.6225C65.6846 20.34 65.3174 20.1706 64.8372 20.1706C64.357 20.1706 63.9615 20.34 63.679 20.6508C63.3966 20.9615 63.2553 21.4134 63.2553 22.0066V25.5374H61.5605V18.8712H63.2553V20.1988C63.4248 19.7469 63.7355 19.4079 64.131 19.1537C64.5265 18.8995 65.0066 18.7865 65.5433 18.7865C66.306 18.7865 66.9274 19.0407 67.3794 19.5491Z" />
<path d="M74.6956 19.4927C75.2606 19.9446 75.6278 20.5943 75.769 21.3852H73.9612C73.8765 21.0462 73.7353 20.7637 73.481 20.5378C73.2268 20.34 72.8879 20.2271 72.4924 20.2271C72.0405 20.2271 71.6733 20.3965 71.3626 20.7355C71.0518 21.0745 70.9106 21.5547 70.9106 22.2043C70.9106 22.854 71.0518 23.3342 71.3626 23.6732C71.6733 24.0121 72.0405 24.1816 72.4924 24.1816C72.8879 24.1816 73.1986 24.0686 73.481 23.8709C73.7353 23.6732 73.9047 23.3907 73.9612 23.0235H75.769C75.6278 23.8144 75.2606 24.4641 74.6956 24.916C74.1307 25.3679 73.3963 25.6222 72.5489 25.6222C71.8992 25.6222 71.3343 25.4809 70.8259 25.1985C70.3174 24.916 69.922 24.5206 69.6395 24.0121C69.3571 23.5037 69.2158 22.8822 69.2158 22.2043C69.2158 21.4982 69.3571 20.905 69.6395 20.3683C69.922 19.8599 70.3174 19.4644 70.8259 19.1819C71.3343 18.8995 71.8992 18.7582 72.5489 18.7582C73.3963 18.7865 74.1307 19.0407 74.6956 19.4927Z" />
<path d="M83.1969 22.5433H78.3102C78.3385 23.1365 78.508 23.5884 78.7904 23.8426C79.1012 24.1251 79.4684 24.2663 79.8921 24.2663C80.2875 24.2663 80.6265 24.1816 80.8807 23.9839C81.1349 23.7861 81.3044 23.5319 81.3891 23.193H83.1969C83.1122 23.6449 82.9145 24.0686 82.632 24.4358C82.3495 24.803 81.9823 25.0855 81.5304 25.3115C81.0784 25.5092 80.57 25.6222 80.0333 25.6222C79.3836 25.6222 78.8187 25.4809 78.3102 25.1985C77.8018 24.916 77.4064 24.5206 77.1239 24.0121C76.8414 23.5037 76.7002 22.8822 76.7002 22.2043C76.7002 21.4982 76.8414 20.905 77.1239 20.3683C77.4064 19.8599 77.8018 19.4644 78.3102 19.1819C78.8187 18.8995 79.3836 18.7582 80.0333 18.7582C80.683 18.7582 81.2761 18.8995 81.7563 19.1819C82.2365 19.4644 82.632 19.8316 82.8862 20.3118C83.1687 20.792 83.2817 21.3287 83.2817 21.9501C83.2534 22.1196 83.2252 22.3173 83.1969 22.5433ZM81.1067 20.566C80.796 20.2836 80.4288 20.1423 79.9768 20.1423C79.5249 20.1423 79.1294 20.2836 78.8187 20.566C78.508 20.8485 78.3385 21.2722 78.3102 21.8089H81.5586C81.5586 21.2439 81.4174 20.8485 81.1067 20.566Z" />
<path d="M0.0107422 29.4355H9.6146C10.1513 28.8705 10.5467 28.3621 10.9987 27.7124H0.0107422V29.4355Z" />
<path d="M0.0107422 25.5657H12.298C12.6935 24.803 12.976 24.1816 13.2584 23.3624H0.0107422V25.5657Z" />
<path d="M0.0107422 33.3335H4.27598C5.03864 32.9663 5.77306 32.5708 6.47922 32.0907H0.0107422V33.3335Z" />
<path d="M0.0107422 0.849878V18.1086H14.1905C14.1905 17.9956 14.1905 17.8826 14.1905 17.7414C14.1905 9.29562 8.06103 2.26221 0.0107422 0.849878Z" />
<path d="M0.0107422 21.9218H13.6821C13.9081 20.9614 14.0776 20.0011 14.1341 18.9842H0.0107422V21.9218Z" />
</svg>
