<svg viewBox="0 0 18 26" fill="none" xmlns="http://www.w3.org/2000/svg">
<path d="M9.33725 25.6499C3.56122 17.9757 0.673828 12.5156 0.673828 9.26819C0.673828 8.1098 0.897914 6.96277 1.33329 5.89256C1.76867 4.82236 2.40681 3.84994 3.21128 3.03084C4.01576 2.21174 4.9708 1.562 6.0219 1.1187C7.07299 0.675411 8.19955 0.44725 9.33725 0.44725C10.4749 0.44725 11.6015 0.675411 12.6526 1.1187C13.7037 1.562 14.6587 2.21174 15.4632 3.03084C16.2677 3.84994 16.9058 4.82236 17.3412 5.89256C17.7766 6.96277 18.0007 8.1098 18.0007 9.26819C18.0007 12.5156 15.1133 17.9757 9.33725 25.6499ZM9.33725 14.3087C10.6502 14.3087 11.9094 13.7777 12.8378 12.8324C13.7662 11.8871 14.2878 10.605 14.2878 9.26819C14.2878 7.93135 13.7662 6.64927 12.8378 5.70399C11.9094 4.75871 10.6502 4.22765 9.33725 4.22765C8.02428 4.22765 6.7651 4.75871 5.8367 5.70399C4.90829 6.64927 4.38672 7.93135 4.38672 9.26819C4.38672 10.605 4.90829 11.8871 5.8367 12.8324C6.7651 13.7777 8.02428 14.3087 9.33725 14.3087Z" fill="#B3717B"/>
</svg>
