<svg viewBox="0 0 40 40" fill="none" xmlns="http://www.w3.org/2000/svg">
<circle cx="20" cy="20" r="19" fill="transparent" stroke="#B3717B" stroke-width="2"/>
<path d="M27.7916 24.473L25.6767 26.5709C25.3646 26.891 24.9508 26.9995 24.5478 27C22.7657 26.9466 21.0811 26.0712 19.698 25.1723C17.4278 23.5207 15.3447 21.4727 14.0373 18.9979C13.5359 17.9601 12.9475 16.636 13.0037 15.4776C13.0088 15.0419 13.1262 14.6142 13.4331 14.3333L15.5479 12.2196C15.987 11.846 16.4117 11.9752 16.6928 12.4103L18.3941 15.6365C18.5732 16.0188 18.4705 16.4283 18.2033 16.7014L17.4242 17.4801C17.3761 17.546 17.3454 17.621 17.3447 17.7027C17.6434 18.8592 18.5486 19.9251 19.3482 20.6587C20.1478 21.3923 21.0072 22.3862 22.1229 22.6215C22.2608 22.66 22.4297 22.6735 22.5284 22.5818L23.4347 21.66C23.7472 21.4232 24.1983 21.3074 24.5319 21.501H24.5478L27.6167 23.3128C28.0672 23.5952 28.1141 24.141 27.7916 24.473Z" fill="white"/>
</svg>
