<svg viewBox="0 0 66 83" fill="none" xmlns="http://www.w3.org/2000/svg">
<path d="M60.3112 24.8469H51.454C51.0844 21.5933 50.7874 18.3131 50.6686 15.0529L50.629 14.1299C50.5828 12.9878 50.53 11.7528 50.5432 10.5111H52.312C53.4472 10.5111 54.49 9.8604 54.9784 8.85112C56.4304 5.81664 55.5328 3.32664 54.8728 2.11816C54.6022 1.62016 54.1798 1.24168 53.6848 1.02256V1.01592C53.4736 0.922959 53.2426 0.856559 53.0116 0.829999H53.005C52.8928 0.810079 52.7806 0.803439 52.6684 0.803439H7.04262C7.03602 0.803439 7.03602 0.803439 7.02942 0.803439C6.81162 0.790159 6.24402 0.843279 5.63682 1.44752C3.59742 3.486 1.89462 10.6904 5.39262 33.4125C5.41902 33.5785 5.43882 33.7378 5.45862 33.9038L5.48502 34.0499C5.56422 34.6475 5.64342 35.2385 5.72262 35.8361C5.83482 36.7325 5.94702 37.6355 6.04602 38.5319C6.17802 39.6607 6.29682 40.7829 6.40902 41.905C6.53442 43.1799 6.65322 44.4548 6.75222 45.7297C6.85782 47.144 6.94362 48.4587 7.00962 49.7469C7.07562 51.1811 7.11522 52.4892 7.12842 53.7442C7.14162 55.1253 7.11522 56.347 7.05582 57.4825C6.99642 58.6445 6.90402 59.6206 6.76542 60.517C6.74562 60.517 6.72582 60.5103 6.70602 60.5103C5.71602 60.351 4.30362 60.4506 3.32682 61.2142C2.72622 61.679 2.36982 62.3363 2.29722 63.1132C2.23782 63.7174 2.38302 64.3416 2.69982 64.8728C2.87142 65.145 3.16182 65.5235 3.62382 65.7294C3.86802 65.8422 4.13862 65.8954 4.41582 65.8954C4.50822 65.8954 4.60722 65.8821 4.70622 65.8622C4.71282 65.8622 4.71942 65.8688 4.72602 65.8688H50.9458C51.0184 65.8688 51.0778 65.8555 51.1372 65.829C51.5068 65.7493 51.8632 65.57 52.1668 65.3044C52.8268 64.74 53.1568 63.9233 53.3746 63.2792C53.9884 61.4266 54.16 59.4678 54.2524 57.6286C54.4768 53.1266 54.2524 48.6314 53.83 44.1693H60.3112C62.4694 44.1693 64.225 42.403 64.225 40.2318V28.7778C64.225 26.6065 62.4694 24.8469 60.3112 24.8469ZM52.6684 1.79944C52.8004 1.79944 52.9258 1.81936 53.0446 1.84592C53.4472 1.95216 53.8036 2.21776 54.0082 2.59624C54.7012 3.87112 55.282 5.91624 54.0808 8.41952C53.764 9.08352 53.071 9.51512 52.312 9.51512H8.11182C8.25042 9.24952 8.40222 8.91752 8.56722 8.51912C8.87742 7.77544 9.05562 6.972 9.10842 6.142C9.19422 4.6148 8.80482 3.10752 8.00622 1.79944H52.6684ZM7.63002 8.18712C7.25382 9.11008 7.04262 9.40888 6.95022 9.50848C6.70602 9.4952 6.60042 9.3956 6.53442 9.30264C6.12522 8.71168 6.42882 7.01848 6.81822 5.82328L8.12502 5.81C8.12502 5.89632 8.12502 5.98928 8.11842 6.08224C8.07882 6.806 7.92042 7.48992 7.63002 8.18712ZM5.26722 64.5674C5.10882 64.7002 4.90422 64.813 4.67982 64.8662C4.65342 64.8662 4.62042 64.8662 4.60062 64.8794C4.40922 64.9126 4.20462 64.8994 4.02642 64.8197C3.84822 64.74 3.68322 64.574 3.55122 64.3549C3.34002 64.0096 3.24762 63.5979 3.28062 63.2062C3.33342 62.7082 3.55122 62.2965 3.93402 62.0043C4.39602 61.6391 5.11542 61.4399 5.87442 61.4399C6.09882 61.4399 6.32322 61.4598 6.55422 61.493L6.59382 61.4997C6.46182 62.1438 6.31662 62.675 6.13182 63.1663C5.96682 63.5846 5.70282 64.1889 5.26722 64.5674ZM53.2624 57.5821C53.1766 59.3483 53.0182 61.2274 52.4374 62.9671C52.2592 63.485 52.0018 64.1424 51.5266 64.5474C51.3484 64.7002 51.1108 64.8197 50.8666 64.8728H6.33642C6.33642 64.8662 6.34302 64.8662 6.34962 64.8595C6.69282 64.408 6.91062 63.9034 7.05582 63.5182C7.33962 62.7812 7.53762 61.9645 7.71582 60.8622C7.87422 59.8795 7.97322 58.8171 8.04582 57.5356C8.10522 56.3802 8.13162 55.1386 8.11842 53.7375C8.10522 52.4693 8.06562 51.1479 7.99302 49.7004C7.93362 48.4056 7.84782 47.0776 7.73562 45.65C7.63662 44.3685 7.52442 43.087 7.39902 41.8121C7.28682 40.6766 7.16142 39.5478 7.02942 38.419C6.93042 37.516 6.81822 36.613 6.69942 35.7099C6.62682 35.1123 6.54762 34.5147 6.46182 33.9105L6.44202 33.7644C6.41562 33.5984 6.39582 33.4324 6.36942 33.2598C2.68002 9.25616 5.05602 3.57232 6.25062 2.24432C6.48822 1.97872 6.68622 1.87248 6.81822 1.826C7.49142 2.70912 7.91382 3.73832 8.06562 4.814L6.11862 4.82728L5.99982 5.15264C5.87442 5.49792 4.79862 8.54568 5.72922 9.88032C5.92722 10.1526 6.29022 10.4846 6.94362 10.5045C6.97002 10.5111 6.99642 10.5111 7.02282 10.5111H49.5598C49.5466 11.7794 49.5928 13.021 49.639 14.1764L49.6786 15.0927C49.7974 18.3463 50.0878 21.6066 50.4574 24.8469H24.097C21.9454 24.8469 20.1898 26.6065 20.1898 28.7778V40.2318C20.1898 42.403 21.9454 44.1693 24.097 44.1693H52.8334C53.2624 48.6181 53.4868 53.1067 53.2624 57.5821ZM63.235 40.2318C63.235 41.8519 61.9216 43.1733 60.3112 43.1733H53.731H52.7344H24.097C22.4866 43.1733 21.1798 41.8519 21.1798 40.2318V28.7778C21.1798 27.1576 22.4866 25.8429 24.097 25.8429H50.5696H51.5728H60.3112C61.9216 25.8429 63.235 27.1576 63.235 28.7778V40.2318Z" fill="#B3717B"/>
<path d="M29.6618 36.449V40.3685H26.876V28.9909H31.2399C34.3564 28.9909 35.914 30.1994 35.914 32.617C35.914 33.7598 35.4665 34.684 34.5729 35.3899C33.6793 36.0957 32.4847 36.449 30.9898 36.449H29.6618ZM29.6618 30.9583V34.5048H30.7568C32.2405 34.5048 32.9823 33.9078 32.9823 32.712C32.9823 31.5433 32.2405 30.9583 30.7568 30.9583H29.6618Z" fill="#B3717B"/>
<path d="M37.7246 40.3686V28.9909H42.1063C46.4986 28.9909 48.6945 30.8395 48.6945 34.5366C48.6945 36.3089 48.0952 37.7238 46.8966 38.7823C45.6981 39.84 44.1009 40.3692 42.1057 40.3692H37.7246V40.3686ZM40.5105 31.0772V38.2896H41.8905C43.0977 38.2896 44.0454 37.9562 44.7325 37.2896C45.4195 36.6236 45.7634 35.7166 45.7634 34.5678C45.7634 33.4835 45.4222 32.631 44.7411 32.0088C44.0599 31.3873 43.1043 31.0765 41.8734 31.0765H40.5105V31.0772Z" fill="#B3717B"/>
<path d="M57.8968 31.0772H53.5323V33.8706H57.5424V35.949H53.5323V40.3685H50.7471V28.9909H57.8968V31.0772Z" fill="#B3717B"/>
</svg>
