<svg viewBox="0 0 15 15" fill="none" xmlns="http://www.w3.org/2000/svg">
<path d="M14.7916 12.473L12.6767 14.5709C12.3646 14.891 11.9508 14.9995 11.5478 15C9.76566 14.9466 8.08113 14.0712 6.69803 13.1723C4.42775 11.5207 2.34468 9.47272 1.0373 6.99787C0.535878 5.96008 -0.0524728 4.63594 0.00373975 3.47758C0.00875225 3.04183 0.126177 2.61417 0.433065 2.33329L2.54789 0.21953C2.98704 -0.154007 3.41173 -0.0248573 3.69275 0.410243L5.39414 3.63652C5.57322 4.01873 5.47049 4.42826 5.20332 4.70137L4.42417 5.48012C4.37607 5.54601 4.34544 5.62101 4.34467 5.70263C4.64344 6.85916 5.54858 7.92512 6.34818 8.65871C7.14777 9.39231 8.00724 10.3862 9.12289 10.6215C9.26079 10.6599 9.42971 10.6734 9.52837 10.5817L10.4347 9.65994C10.7472 9.42313 11.1983 9.30738 11.5319 9.50102H11.5478L14.6167 11.3128C15.0672 11.5952 15.1141 12.141 14.7916 12.473Z" />
</svg>
