<svg viewBox="0 0 14 18" fill="none" xmlns="http://www.w3.org/2000/svg">
<path d="M4.56205 0.642433C4.48839 0.650826 4.41879 0.680589 4.36183 0.728052C4.30487 0.775516 4.26305 0.838607 4.24151 0.90955L3.82006 2.27481H0.584978C0.484225 2.27482 0.387602 2.31485 0.316359 2.38609C0.245116 2.45734 0.205088 2.55396 0.205078 2.65471V4.9163C0.205088 5.01706 0.245116 5.11368 0.316359 5.18492C0.387602 5.25616 0.484225 5.29619 0.584978 5.2962H13.1217C13.2224 5.29619 13.319 5.25616 13.3903 5.18492C13.4615 5.11368 13.5016 5.01706 13.5016 4.9163V2.65471C13.5016 2.55396 13.4615 2.45734 13.3903 2.38609C13.319 2.31485 13.2224 2.27482 13.1217 2.27481H9.88658L9.46513 0.90955C9.4411 0.832264 9.39301 0.764673 9.32788 0.716625C9.26275 0.668577 9.18397 0.642584 9.10304 0.642433H4.6036C4.58976 0.641675 4.57589 0.641675 4.56205 0.642433ZM4.88259 1.40223H8.82405L9.09116 2.27481H4.61547L4.88259 1.40223ZM0.964877 3.03461H12.7418V4.5364H0.964877V3.03461ZM12.3381 5.75327C12.2405 5.75786 12.1484 5.7999 12.0809 5.87065C12.0135 5.94141 11.9759 6.03543 11.976 6.13317L11.0619 16.5982H2.64475L1.73061 6.13317C1.72456 6.03659 1.68187 5.94596 1.61127 5.87977C1.54068 5.81358 1.44748 5.77683 1.35071 5.77701C1.29763 5.77753 1.24524 5.78916 1.19693 5.81117C1.14862 5.83317 1.10545 5.86506 1.07022 5.90476C1.03499 5.94447 1.00846 5.99112 0.992365 6.04171C0.976266 6.0923 0.970946 6.14569 0.976749 6.19846L2.0096 17.358H2.10458C2.19955 17.358 2.19871 17.3583 2.29453 17.358H11.4121C11.4121 17.358 11.6021 17.358 11.697 17.358L12.7299 6.19846C12.7397 6.14239 12.7368 6.08481 12.7214 6.03C12.706 5.97519 12.6785 5.92454 12.6409 5.8818C12.6033 5.83906 12.5565 5.80532 12.5041 5.78307C12.4517 5.76082 12.395 5.75064 12.3381 5.75327ZM6.81177 7.01762C6.71838 7.0279 6.63211 7.07242 6.56963 7.14258C6.50714 7.21275 6.47287 7.30357 6.47342 7.39752V14.1823C6.47271 14.2326 6.48201 14.2826 6.50078 14.3293C6.51956 14.376 6.54742 14.4186 6.58277 14.4544C6.61812 14.4903 6.66024 14.5187 6.70669 14.5382C6.75313 14.5576 6.80297 14.5676 6.85332 14.5676C6.90367 14.5676 6.95351 14.5576 6.99995 14.5382C7.0464 14.5187 7.08852 14.4903 7.12387 14.4544C7.15921 14.4186 7.18708 14.376 7.20586 14.3293C7.22463 14.2826 7.23393 14.2326 7.23322 14.1823V7.39752C7.23353 7.34394 7.22251 7.29089 7.20087 7.24187C7.17924 7.19285 7.14747 7.14895 7.10767 7.11308C7.06787 7.0772 7.02093 7.05015 6.96993 7.03369C6.91893 7.01724 6.86503 7.01177 6.81177 7.01762ZM3.71915 7.39159C3.61922 7.40349 3.5281 7.45455 3.46578 7.53357C3.40346 7.61258 3.37503 7.71309 3.38674 7.81304L4.00407 13.8439C4.00914 13.8938 4.02398 13.9422 4.04776 13.9864C4.07153 14.0305 4.10377 14.0696 4.14263 14.1013C4.18149 14.133 4.22621 14.1567 4.27424 14.1711C4.32227 14.1855 4.37267 14.1903 4.42256 14.1853C4.47245 14.1802 4.52085 14.1653 4.565 14.1416C4.60915 14.1178 4.64819 14.0856 4.67988 14.0467C4.71158 14.0078 4.73531 13.9631 4.74972 13.9151C4.76413 13.8671 4.76894 13.8167 4.76387 13.7668L4.14654 7.73587C4.14215 7.68478 4.12747 7.63511 4.10337 7.58984C4.07928 7.54458 4.04627 7.50466 4.00634 7.47249C3.9664 7.44032 3.92037 7.41657 3.87102 7.40267C3.82166 7.38876 3.77 7.38499 3.71915 7.39159ZM9.89845 7.39159C9.8109 7.40088 9.72929 7.44029 9.66758 7.50309C9.60586 7.56589 9.56787 7.64817 9.5601 7.73587L8.94277 13.7668C8.9377 13.8167 8.94251 13.8671 8.95692 13.9151C8.97133 13.9631 8.99506 14.0078 9.02675 14.0467C9.05845 14.0856 9.09749 14.1178 9.14164 14.1416C9.18579 14.1653 9.23419 14.1802 9.28408 14.1853C9.33397 14.1903 9.38437 14.1855 9.4324 14.1711C9.48043 14.1567 9.52515 14.133 9.56401 14.1013C9.60287 14.0696 9.63511 14.0305 9.65888 13.9864C9.68266 13.9422 9.6975 13.8938 9.70257 13.8439L10.3199 7.81304C10.3266 7.75608 10.3202 7.69836 10.3014 7.6442C10.2826 7.59004 10.2517 7.54085 10.2112 7.5003C10.1706 7.45976 10.1214 7.42891 10.0673 7.41008C10.0131 7.39126 9.9554 7.38493 9.89845 7.39159Z" fill="#B3717B"/>
</svg>
