<svg width="120" height="58" viewBox="0 0 120 58" fill="none" xmlns="http://www.w3.org/2000/svg">
<rect width="119.294" height="52.1834" fill="#00395A"/>
<rect x="54.5293" y="52.1834" width="7.23902" height="7.23902" transform="rotate(-45 54.5293 52.1834)" fill="#00395A"/>
<path d="M43.7433 24.5382L41.7661 21.2333H41.0034V24.5382H39.3086V16.0359H42.557C43.5456 16.0359 44.3083 16.2901 44.8167 16.7703C45.3251 17.2505 45.5794 17.8719 45.5794 18.6628C45.5794 19.3125 45.4099 19.8492 45.0427 20.2729C44.6755 20.6966 44.167 21.0073 43.4891 21.1486L45.6076 24.5382H43.7433ZM41.0034 20.0469H42.3875C43.3479 20.0469 43.8563 19.6232 43.8563 18.7476C43.8563 18.3521 43.7433 18.0132 43.4891 17.7872C43.2631 17.5612 42.8959 17.4482 42.3875 17.4482H41.0034V20.0469Z" fill="white"/>
<path d="M52.9811 17.8437V24.5099H51.2863V23.1541C51.1169 23.606 50.8061 23.945 50.4107 24.1992C50.0152 24.4534 49.535 24.5664 48.9983 24.5664C48.2357 24.5664 47.6142 24.3122 47.1623 23.8037C46.7103 23.2953 46.4844 22.5891 46.4844 21.6852V17.8154H48.1792V21.4875C48.1792 22.0242 48.3204 22.4196 48.5746 22.7304C48.8571 23.0128 49.2243 23.1823 49.6763 23.1823C50.1565 23.1823 50.5519 23.0128 50.8344 22.7021C51.1168 22.3914 51.2581 21.9394 51.2581 21.3463V17.8154H52.9811V17.8437Z" fill="white"/>
<path d="M58.6854 18.3804C59.1656 18.7759 59.4763 19.3408 59.5893 20.0187H58.0075C57.951 19.708 57.8097 19.4538 57.5838 19.2561C57.3578 19.0583 57.0753 18.9736 56.7081 18.9736C56.4257 18.9736 56.1997 19.0301 56.0302 19.1713C55.8607 19.3126 55.776 19.482 55.776 19.7363C55.776 19.934 55.8325 20.0752 55.9737 20.1882C56.1149 20.3012 56.2562 20.3859 56.4539 20.4424C56.6516 20.4989 56.9341 20.5837 57.2731 20.6684C57.7815 20.7814 58.1769 20.8944 58.5159 21.0356C58.8266 21.1486 59.1091 21.3463 59.335 21.6288C59.561 21.9112 59.674 22.2502 59.674 22.7304C59.674 23.2953 59.448 23.7755 58.9961 24.1145C58.5441 24.4817 57.951 24.6512 57.1883 24.6512C56.3127 24.6512 55.6348 24.4534 55.0981 24.058C54.5896 23.6625 54.2507 23.1258 54.1377 22.3914H55.776C55.8042 22.7304 55.9737 22.9846 56.1997 23.1541C56.4539 23.3518 56.7646 23.4366 57.1883 23.4366C57.4708 23.4366 57.6967 23.3801 57.838 23.2388C57.9792 23.0976 58.0639 22.9281 58.0639 22.7022C58.0639 22.5044 58.0075 22.3632 57.8662 22.222C57.725 22.0807 57.5555 21.996 57.386 21.9395C57.1883 21.883 56.9058 21.7983 56.5386 21.7135C56.0302 21.6005 55.6348 21.4875 55.324 21.3746C55.0133 21.2616 54.7591 21.0638 54.5331 20.8096C54.3072 20.5554 54.1942 20.1882 54.1942 19.7363C54.1942 19.1713 54.4202 18.6911 54.8439 18.3239C55.2958 17.9567 55.889 17.7872 56.6799 17.7872C57.5273 17.759 58.1769 17.985 58.6854 18.3804Z" fill="white"/>
<path d="M64.9007 18.1826C65.2962 18.4368 65.5786 18.804 65.7481 19.256V17.8719H67.4429V24.5381H65.7481V23.154C65.5786 23.606 65.2962 23.9732 64.9007 24.2274C64.5053 24.5099 64.0251 24.6229 63.4601 24.6229C62.8952 24.6229 62.3867 24.4816 61.9348 24.2274C61.4829 23.9449 61.1439 23.5495 60.8897 23.041C60.6354 22.5326 60.5225 21.9112 60.5225 21.205C60.5225 20.4988 60.6354 19.9057 60.8897 19.369C61.1439 18.8605 61.4829 18.4651 61.9348 18.1826C62.3867 17.9002 62.8952 17.7872 63.4601 17.7872C63.9968 17.7589 64.477 17.9002 64.9007 18.1826ZM62.6975 19.7644C62.3867 20.1034 62.2173 20.5836 62.2173 21.1768C62.2173 21.7699 62.3867 22.2501 62.6975 22.5891C63.0082 22.9281 63.4319 23.0975 63.9686 23.0975C64.477 23.0975 64.9007 22.9281 65.2397 22.5609C65.5786 22.2219 65.7481 21.7417 65.7481 21.1485C65.7481 20.5553 65.5786 20.0751 65.2397 19.7362C64.9007 19.3972 64.477 19.1995 63.9686 19.1995C63.4319 19.256 63.0082 19.4255 62.6975 19.7644Z" fill="white"/>
<path d="M74.6743 18.5216C75.1262 19.03 75.3522 19.7362 75.3522 20.6401V24.5099H73.6574V20.8378C73.6574 20.3011 73.5162 19.9057 73.2619 19.595C72.9795 19.3125 72.6123 19.143 72.1321 19.143C71.6519 19.143 71.2564 19.3125 70.974 19.6232C70.6915 19.9339 70.5503 20.3859 70.5503 20.979V24.5099H68.8555V17.8437H70.5503V19.1713C70.7197 18.7193 71.0305 18.3804 71.4259 18.1261C71.8214 17.8719 72.3016 17.7589 72.8382 17.7589C73.6009 17.7589 74.2223 18.0131 74.6743 18.5216Z" fill="white"/>
<path d="M76.8493 15.2732C77.047 15.1038 77.3012 15.019 77.6119 15.019C77.9226 15.019 78.1769 15.1038 78.3746 15.2732C78.5723 15.4427 78.6571 15.6687 78.6571 15.9512C78.6571 16.2054 78.5723 16.4314 78.3746 16.6008C78.1769 16.7703 77.9226 16.8551 77.6119 16.8551C77.3012 16.8551 77.047 16.7703 76.8493 16.6008C76.6515 16.4314 76.5668 16.2054 76.5668 15.9512C76.5385 15.6687 76.6515 15.4427 76.8493 15.2732ZM78.4311 24.5382H76.7363V17.8719H78.4311V24.5382Z" fill="white"/>
<path d="M82.7808 22.8151L84.4474 17.8437H86.2551L83.7977 24.5381H81.7357L79.25 17.8437H81.086L82.7808 22.8151Z" fill="white"/>
<path d="M43.7433 34.5374L41.7661 31.2326H41.0034V34.5374H39.3086V26.0352H42.557C43.5456 26.0352 44.3083 26.2894 44.8167 26.7696C45.3251 27.2498 45.5794 27.8712 45.5794 28.6621C45.5794 29.3118 45.4099 29.8485 45.0427 30.2722C44.6755 30.6959 44.167 31.0066 43.4891 31.1478L45.6076 34.5374H43.7433ZM41.0034 30.0745H42.3875C43.3479 30.0745 43.8563 29.6508 43.8563 28.7751C43.8563 28.3797 43.7433 28.0407 43.4891 27.8147C43.2631 27.5888 42.8959 27.4758 42.3875 27.4758H41.0034V30.0745Z" fill="white"/>
<path d="M52.9245 31.5433H48.0378C48.066 32.1365 48.2355 32.5884 48.518 32.8426C48.8287 33.1251 49.1959 33.2663 49.6196 33.2663C50.0151 33.2663 50.354 33.1816 50.6082 32.9839C50.8625 32.7861 51.0319 32.5319 51.1167 32.193H52.9245C52.8397 32.6449 52.642 33.0686 52.3595 33.4358C52.0771 33.803 51.7098 34.0855 51.2579 34.3115C50.806 34.5092 50.2975 34.6222 49.7608 34.6222C49.1112 34.6222 48.5462 34.4809 48.0378 34.1985C47.5293 33.916 47.1339 33.5206 46.8514 33.0121C46.569 32.5037 46.4277 31.8822 46.4277 31.2043C46.4277 30.4982 46.569 29.905 46.8514 29.3683C47.1339 28.8599 47.5293 28.4644 48.0378 28.1819C48.5462 27.8995 49.1112 27.7582 49.7608 27.7582C50.4105 27.7582 51.0037 27.8995 51.4839 28.1819C51.9641 28.4644 52.3595 28.8316 52.6137 29.3118C52.8962 29.792 53.0092 30.3287 53.0092 30.9501C52.981 31.1196 52.981 31.3173 52.9245 31.5433ZM50.8625 29.566C50.5517 29.2836 50.1845 29.1423 49.7326 29.1423C49.2806 29.1423 48.8852 29.2836 48.5745 29.566C48.2638 29.8485 48.0943 30.2722 48.066 30.8089H51.3144C51.3144 30.2439 51.1732 29.8485 50.8625 29.566Z" fill="white"/>
<path d="M58.4598 28.4079C58.94 28.8034 59.2507 29.3683 59.3637 30.0463H57.7819C57.7254 29.7356 57.5842 29.4813 57.3582 29.2836C57.1322 29.0859 56.8498 29.0011 56.4825 29.0011C56.2001 29.0011 55.9741 29.0576 55.8046 29.1989C55.6351 29.3401 55.5504 29.5096 55.5504 29.7638C55.5504 29.9615 55.6069 30.1028 55.7481 30.2157C55.8894 30.3287 56.0306 30.4135 56.2283 30.47C56.4261 30.5265 56.7085 30.6112 57.0475 30.6959C57.5559 30.8089 57.9514 30.9219 58.2903 31.0631C58.601 31.1761 58.8835 31.3738 59.1095 31.6563C59.3355 31.9388 59.4484 32.2777 59.4484 32.7579C59.4484 33.3229 59.2225 33.8031 58.7705 34.142C58.3186 34.5092 57.7254 34.6787 56.9627 34.6787C56.0871 34.6787 55.4092 34.481 54.8725 34.0855C54.3641 33.6901 54.0251 33.1534 53.9121 32.419H55.5504C55.5787 32.7579 55.7481 33.0122 55.9741 33.1816C56.2283 33.3794 56.539 33.4641 56.9627 33.4641C57.2452 33.4641 57.4712 33.4076 57.6124 33.2664C57.7536 33.1251 57.8384 32.9557 57.8384 32.7297C57.8384 32.532 57.7819 32.3907 57.6407 32.2495C57.4994 32.1365 57.33 32.0235 57.1605 31.967C56.9627 31.9105 56.6803 31.8258 56.3131 31.7411C55.8046 31.6281 55.4092 31.5151 55.0985 31.4021C54.7877 31.2891 54.5335 31.0914 54.3076 30.8372C54.0816 30.5829 53.9686 30.2157 53.9686 29.7638C53.9686 29.1989 54.1946 28.7187 54.6183 28.3515C55.0702 27.9843 55.6634 27.8148 56.4543 27.8148C57.3017 27.7865 57.9514 28.0125 58.4598 28.4079Z" fill="white"/>
<path d="M60.72 25.3008C60.9177 25.1313 61.1719 25.0466 61.4826 25.0466C61.7933 25.0466 62.0476 25.1313 62.2453 25.3008C62.443 25.4703 62.5278 25.6962 62.5278 25.9787C62.5278 26.2329 62.443 26.4589 62.2453 26.6284C62.0476 26.7979 61.7933 26.8826 61.4826 26.8826C61.1719 26.8826 60.9177 26.7979 60.72 26.6284C60.5222 26.4589 60.4375 26.2329 60.4375 25.9787C60.4375 25.6962 60.5222 25.4703 60.72 25.3008ZM62.33 34.5374H60.6352V27.8712H62.33V34.5374Z" fill="white"/>
<path d="M68.0081 28.182C68.4035 28.4362 68.686 28.8034 68.8555 29.2553V25.6398H70.5502V34.5375H68.8555V33.1534C68.686 33.6053 68.4035 33.9725 68.0081 34.2267C67.6126 34.5092 67.1324 34.6222 66.5675 34.6222C66.0026 34.6222 65.4941 34.481 65.0422 34.2267C64.5903 33.9443 64.2513 33.5488 63.9971 33.0404C63.7429 32.5319 63.6299 31.9105 63.6299 31.2044C63.6299 30.4982 63.7429 29.905 63.9971 29.3683C64.2513 28.8599 64.5903 28.4644 65.0422 28.182C65.4941 27.8995 66.0026 27.7583 66.5675 27.7583C67.1324 27.7865 67.6126 27.9277 68.0081 28.182ZM65.8048 29.792C65.4941 30.131 65.3247 30.6112 65.3247 31.2044C65.3247 31.7975 65.4941 32.2777 65.8048 32.6167C66.1156 32.9556 66.5393 33.1251 67.0759 33.1251C67.5844 33.1251 68.0081 32.9557 68.347 32.5884C68.686 32.2495 68.8555 31.7693 68.8555 31.1761C68.8555 30.5829 68.686 30.1027 68.347 29.7638C68.0081 29.4248 67.5844 29.2271 67.0759 29.2271C66.5675 29.2836 66.1438 29.4531 65.8048 29.792Z" fill="white"/>
<path d="M78.2887 31.5433H73.4021C73.4303 32.1365 73.5998 32.5884 73.8822 32.8426C74.193 33.1251 74.5602 33.2663 74.9839 33.2663C75.3793 33.2663 75.7183 33.1816 75.9725 32.9839C76.2267 32.7861 76.3962 32.5319 76.4809 32.193H78.2887C78.204 32.6449 78.0063 33.0686 77.7238 33.4358C77.4413 33.803 77.0741 34.0855 76.6222 34.3115C76.1702 34.5092 75.6618 34.6222 75.1251 34.6222C74.4754 34.6222 73.9105 34.4809 73.4021 34.1985C72.8936 33.916 72.4982 33.5206 72.2157 33.0121C71.9332 32.5037 71.792 31.8822 71.792 31.2043C71.792 30.4982 71.9332 29.905 72.2157 29.3683C72.4982 28.8599 72.8936 28.4644 73.4021 28.1819C73.9105 27.8995 74.4754 27.7582 75.1251 27.7582C75.7748 27.7582 76.3679 27.8995 76.8481 28.1819C77.3283 28.4644 77.7238 28.8316 77.978 29.3118C78.2605 29.792 78.3735 30.3287 78.3735 30.9501C78.3452 31.1196 78.3452 31.3173 78.2887 31.5433ZM76.2267 29.566C75.916 29.2836 75.5488 29.1423 75.0969 29.1423C74.6449 29.1423 74.2495 29.2836 73.9387 29.566C73.628 29.8485 73.4585 30.2722 73.4303 30.8089H76.6787C76.6787 30.2439 76.5374 29.8485 76.2267 29.566Z" fill="white"/>
<path d="M85.3794 28.5491C85.8313 29.0576 86.0573 29.7637 86.0573 30.6676V34.5374H84.3625V30.8654C84.3625 30.3287 84.2213 29.9332 83.967 29.6225C83.6846 29.34 83.3174 29.1706 82.8372 29.1706C82.357 29.1706 81.9615 29.34 81.679 29.6508C81.3966 29.9615 81.2553 30.4134 81.2553 31.0066V34.5374H79.5605V27.8712H81.2553V29.1988C81.4248 28.7469 81.7355 28.4079 82.131 28.1537C82.5265 27.8995 83.0066 27.7865 83.5433 27.7865C84.306 27.7865 84.9274 28.0407 85.3794 28.5491Z" fill="white"/>
<path d="M92.6956 28.4927C93.2606 28.9446 93.6278 29.5943 93.769 30.3852H91.9612C91.8765 30.0462 91.7353 29.7637 91.481 29.5378C91.2268 29.34 90.8879 29.2271 90.4924 29.2271C90.0405 29.2271 89.6733 29.3965 89.3626 29.7355C89.0518 30.0745 88.9106 30.5547 88.9106 31.2043C88.9106 31.854 89.0518 32.3342 89.3626 32.6732C89.6733 33.0121 90.0405 33.1816 90.4924 33.1816C90.8879 33.1816 91.1986 33.0686 91.481 32.8709C91.7353 32.6732 91.9047 32.3907 91.9612 32.0235H93.769C93.6278 32.8144 93.2606 33.4641 92.6956 33.916C92.1307 34.3679 91.3963 34.6222 90.5489 34.6222C89.8992 34.6222 89.3343 34.4809 88.8259 34.1985C88.3174 33.916 87.922 33.5206 87.6395 33.0121C87.3571 32.5037 87.2158 31.8822 87.2158 31.2043C87.2158 30.4982 87.3571 29.905 87.6395 29.3683C87.922 28.8599 88.3174 28.4644 88.8259 28.1819C89.3343 27.8995 89.8992 27.7582 90.5489 27.7582C91.3963 27.7865 92.1307 28.0407 92.6956 28.4927Z" fill="white"/>
<path d="M101.197 31.5433H96.3102C96.3385 32.1365 96.508 32.5884 96.7904 32.8426C97.1012 33.1251 97.4684 33.2663 97.8921 33.2663C98.2875 33.2663 98.6265 33.1816 98.8807 32.9839C99.1349 32.7861 99.3044 32.5319 99.3891 32.193H101.197C101.112 32.6449 100.914 33.0686 100.632 33.4358C100.35 33.803 99.9823 34.0855 99.5304 34.3115C99.0784 34.5092 98.57 34.6222 98.0333 34.6222C97.3836 34.6222 96.8187 34.4809 96.3102 34.1985C95.8018 33.916 95.4064 33.5206 95.1239 33.0121C94.8414 32.5037 94.7002 31.8822 94.7002 31.2043C94.7002 30.4982 94.8414 29.905 95.1239 29.3683C95.4064 28.8599 95.8018 28.4644 96.3102 28.1819C96.8187 27.8995 97.3836 27.7582 98.0333 27.7582C98.683 27.7582 99.2761 27.8995 99.7563 28.1819C100.237 28.4644 100.632 28.8316 100.886 29.3118C101.169 29.792 101.282 30.3287 101.282 30.9501C101.253 31.1196 101.225 31.3173 101.197 31.5433ZM99.1067 29.566C98.796 29.2836 98.4288 29.1423 97.9768 29.1423C97.5249 29.1423 97.1294 29.2836 96.8187 29.566C96.508 29.8485 96.3385 30.2722 96.3102 30.8089H99.5586C99.5586 30.2439 99.4174 29.8485 99.1067 29.566Z" fill="white"/>
<path d="M18.0107 38.4355H27.6146C28.1513 37.8705 28.5467 37.3621 28.9987 36.7124H18.0107V38.4355Z" fill="white"/>
<path d="M18.0107 34.5657H30.298C30.6935 33.803 30.976 33.1816 31.2584 32.3624H18.0107V34.5657Z" fill="white"/>
<path d="M18.0107 42.3335H22.276C23.0386 41.9663 23.7731 41.5708 24.4792 41.0907H18.0107V42.3335Z" fill="white"/>
<path d="M18.0107 9.84988V27.1086H32.1905C32.1905 26.9956 32.1905 26.8826 32.1905 26.7414C32.1905 18.2956 26.061 11.2622 18.0107 9.84988Z" fill="white"/>
<path d="M18.0107 30.9218H31.6821C31.9081 29.9614 32.0776 29.0011 32.1341 27.9842H18.0107V30.9218Z" fill="white"/>
</svg>
