<svg xmlns="http://www.w3.org/2000/svg" width="120" height="58" viewBox="0 0 120 58" fill="none">
<rect width="119.294" height="52.1834" fill="#00395A"/>
<rect x="54.5293" y="52.1834" width="7.23902" height="7.23902" transform="rotate(-45 54.5293 52.1834)" fill="#00395A"/>
<path d="M18.0107 38.4355H27.6146C28.1513 37.8705 28.5467 37.3621 28.9987 36.7124H18.0107V38.4355Z" fill="white"/>
<path d="M18.0107 34.5657H30.298C30.6935 33.803 30.976 33.1816 31.2584 32.3624H18.0107V34.5657Z" fill="white"/>
<path d="M18.0107 42.3335H22.276C23.0386 41.9663 23.7731 41.5708 24.4792 41.0907H18.0107V42.3335Z" fill="white"/>
<path d="M18.0107 9.84988V27.1086H32.1905C32.1905 26.9956 32.1905 26.8826 32.1905 26.7414C32.1905 18.2956 26.061 11.2622 18.0107 9.84988Z" fill="white"/>
<path xmlns="http://www.w3.org/2000/svg" d="M18.0107 30.9218H31.6821C31.9081 29.9614 32.0776 29.0011 32.1341 27.9842H18.0107V30.9218Z" fill="white"/>
<text xmlns="http://www.w3.org/2000/svg" style="color: red;stroke: white;" x="43" y="22">Відділ</text>
<text x="43" y="37" style="&#10;    color: red;&#10;    stroke: white;&#10;"> продажу</text>
</svg>