<svg width="58" height="59" viewBox="0 0 58 59" fill="none" xmlns="http://www.w3.org/2000/svg">
<circle cx="28.6669" cy="29.5" r="28.6669" fill="#B3717B"/>
<path d="M32.9479 36.6935C33.2938 36.0275 33.8127 35.5834 34.5045 35.5834C35.8016 35.5834 37.5744 36.0275 38.1797 34.4733C38.5256 33.5852 38.6121 32.6083 38.6121 31.6314C38.6121 29.5 37.1852 27.635 38.3959 25.6812C38.6985 25.1928 39.2606 24.7931 39.7362 25.0152C40.1254 25.2372 40.2983 25.8144 40.2983 26.3029C40.4281 27.8126 40.2119 29.3668 40.1254 30.8766C40.1254 31.0986 40.0822 31.365 40.0822 31.587C39.9524 33.1856 39.8227 34.8286 39.3039 36.2939C39.2174 36.5159 39.1309 36.738 39.0012 36.8712C38.785 37.0932 38.3959 37.1376 38.0932 37.1376C37.9635 37.1376 37.7906 37.1376 37.6176 37.1376C37.6176 37.5816 37.6176 37.5372 37.6176 37.9813C37.6176 38.2477 37.5744 38.4697 37.3149 38.4697V40.6011C37.877 40.8232 38.4391 41.2672 39.0012 41.9333C39.1742 42.1553 39.1309 42.4661 38.958 42.6438C38.8715 42.7326 38.785 42.777 38.6553 42.777C38.5256 42.777 38.4391 42.7326 38.3526 42.5994C37.7906 41.8889 37.1852 41.4892 36.6231 41.4448C36.0611 41.4892 35.4557 41.8445 34.8936 42.5994C34.8072 42.6882 34.6774 42.777 34.591 42.777C34.5045 42.777 34.3748 42.7326 34.2883 42.6438C34.1154 42.4661 34.1154 42.1553 34.2451 41.9333C34.7639 41.2672 35.326 40.8232 35.9313 40.6011V38.5585C35.6287 38.5585 35.5854 38.2921 35.6287 38.0701C35.6287 37.626 35.6287 37.5816 35.6287 37.1376C34.9801 37.182 34.418 37.3152 34.0289 37.7149C33.7695 37.9813 33.4236 37.9813 33.1641 37.7149C32.8182 37.4484 32.7318 37.0488 32.9479 36.6935Z" fill="white"/>
<path d="M37.188 31.8527V31.9415V31.9859C37.188 32.1635 37.188 32.3411 37.188 32.5188C37.188 33.8065 36.3232 34.6502 35.0693 34.5614C34.1181 34.4726 33.1237 34.4281 32.1724 34.3393C31.8265 34.2949 31.6103 34.517 31.5671 34.8722C31.3941 36.5596 31.2644 38.2025 31.0915 39.8899C31.0915 40.0675 31.0482 40.2007 31.0482 40.3784C30.9618 40.8224 30.7456 41 30.3564 41.0444C30.097 41.0444 29.8376 41.0444 29.6214 41.0444C29.2755 41.0444 29.0593 40.9112 28.9296 40.6892C28.8431 40.556 28.7999 40.3784 28.7999 40.1563C28.7999 38.7354 28.7999 37.3144 28.7999 35.8491C28.7999 34.9166 28.7999 34.0285 28.7999 33.096C28.7999 32.2079 29.3187 31.6751 30.1835 31.6751C31.005 31.6751 31.8265 31.6751 32.648 31.6751C33.1237 31.6751 33.3831 31.453 33.4263 30.9646L33.2534 27.057C33.0372 27.1902 32.9075 27.3234 32.7345 27.4122C32.3454 27.6343 32.0427 27.9451 31.5671 27.9451C30.6591 27.9451 29.4485 27.9451 28.5405 27.9451C27.8487 27.9451 27.373 27.4122 27.373 26.7018C27.373 26.4353 27.4595 26.2133 27.5892 26.0357C27.8054 25.7249 28.1513 25.5028 28.5837 25.5472C29.2755 25.5472 30.0105 25.5472 30.7023 25.5472C30.8321 25.5472 31.3077 25.5028 31.3941 25.4584C31.7833 25.2364 32.1724 24.97 32.5616 24.7036C32.9507 24.4815 33.2966 24.2151 33.729 24.0375C33.8155 23.9931 33.9019 23.9487 33.9884 23.9487C34.637 23.7711 35.2855 23.8599 35.9341 23.9043C36.5394 23.9487 37.0583 24.5259 37.1448 25.1476C37.188 25.4584 37.188 25.8137 37.188 26.1245C37.188 27.9451 37.188 29.7657 37.188 31.5863C37.188 31.6751 37.188 31.7639 37.188 31.8527Z" fill="white"/>
<path d="M37.1875 20.4411C37.1875 21.2848 36.7984 21.9953 36.1498 22.4394C35.7607 22.7058 35.2851 22.8834 34.7662 22.8834C34.55 22.8834 34.3771 22.839 34.2041 22.7946C33.1664 22.5282 32.4746 21.5513 32.4746 20.3523C32.4746 18.9314 33.5123 17.8657 34.8094 17.8657C36.1066 17.9101 37.1875 18.9758 37.1875 20.4411Z" fill="white"/>
<path d="M18.0761 24.6596H31.5662C31.4365 24.7484 31.2635 24.8372 31.1338 24.926C31.0473 24.926 30.7879 24.9704 30.6582 24.9704C30.0096 24.9704 29.3178 24.9704 28.5396 24.9704C27.9342 24.9704 27.4154 25.2368 27.1127 25.7253C26.9398 25.9917 26.8101 26.3469 26.8101 26.7022C26.8101 26.7466 26.8101 26.791 26.8101 26.8354H18.0761C17.4707 26.8354 16.9951 26.3469 16.9951 25.7697C16.9951 25.1924 17.4707 24.6596 18.0761 24.6596Z" fill="white"/>
<path d="M18.3359 27.2793V41.4888H26.5511V27.2793H18.3359ZM25.816 35.6718C25.816 35.9826 25.5566 36.2046 25.2972 36.2046C25.1675 36.2046 25.0378 36.1602 24.9081 36.027C24.8216 35.9382 24.7351 35.805 24.7351 35.6274V33.0519C24.7351 32.7411 24.9945 32.5191 25.254 32.5191C25.3837 32.5191 25.5134 32.5635 25.6431 32.6967C25.7296 32.7855 25.816 32.9187 25.816 33.0963V35.6718Z" fill="white"/>
<path d="M32.7345 28.0793L32.7778 28.923H26.8975V27.3688C26.9839 27.6352 27.1136 27.8573 27.2866 28.0349C27.5893 28.3457 28.0216 28.5233 28.4973 28.5233C28.8864 28.5233 29.3188 28.5233 29.7511 28.5233C30.3565 28.5233 31.005 28.5233 31.5239 28.5233H31.5671C32.086 28.5233 32.4319 28.3013 32.7345 28.0793Z" fill="white"/>
<path d="M19.7627 16.223V22.484H23.3947H23.4811V23.0169C22.7029 23.1501 22.0975 23.4609 21.8813 23.8161C21.7949 23.9494 21.8813 24.1714 22.0543 24.1714H27.0266C27.1996 24.1714 27.286 23.9938 27.1996 23.8161C26.9834 23.4609 26.3781 23.1501 25.5998 23.0169V22.484H25.6863H28.4535H29.3182V16.223H19.7627ZM28.6696 21.9067H20.368V16.7114H28.6696V21.9067Z" fill="white"/>
</svg>
 