<svg width="66" height="66" viewBox="0 0 66 66" fill="none" xmlns="http://www.w3.org/2000/svg">
<circle cx="32.6616" cy="32.8983" r="32.4468" fill="#B3717B"/>
<path fill-rule="evenodd" clip-rule="evenodd" d="M44.4502 46.1579C44.4733 46.4074 44.4568 46.6601 44.4568 46.9484C44.8639 46.9484 45.4514 46.9484 45.8716 46.9484C45.8877 46.6001 45.9038 46.2505 45.9232 45.8338C47.056 45.9531 48.0502 45.9911 49.1026 46.407C49.1092 46.4674 49.1154 46.5277 49.122 46.5877C48.8575 46.6762 48.5989 46.8145 48.3282 46.8452C46.7053 47.0296 45.0834 47.2831 43.4553 47.339C39.2404 47.4835 35.0218 47.6134 30.8054 47.6057C26.5298 47.5976 22.249 47.5215 17.9946 47.0021C17.5246 46.9447 17.0608 46.8306 16.5969 46.73C16.4887 46.7066 16.3925 46.629 16.2012 46.5303C16.729 46.1107 17.2952 46.1122 17.8183 46.0405C18.7737 45.9092 19.7368 45.8305 20.6988 45.7588C20.9827 45.7373 21.1089 45.6213 21.2153 45.3737C22.1408 43.2188 22.6009 40.962 22.7004 38.6279C22.7882 36.5576 22.6496 34.5019 22.2534 32.4656C22.237 32.3807 22.2143 32.2966 22.2011 32.2421C21.6919 32.422 21.2113 32.6689 20.7032 32.7593C18.2872 33.188 16.3219 30.8718 17.116 28.5466C17.2034 28.2909 17.1884 28.1318 17.0202 27.9152C15.9938 26.5984 16.1394 24.734 17.3545 23.5917C17.5451 23.4128 17.6248 23.2486 17.6193 22.9841C17.5736 20.8995 19.1322 19.4506 21.2043 19.6131C21.3594 19.6248 21.5749 19.5293 21.6799 19.41C23.011 17.899 25.0026 17.7801 26.506 19.1207C26.6124 19.2154 26.8568 19.2593 26.9877 19.2059C29.4352 18.2114 31.7985 19.9883 31.5505 22.6366C31.5366 22.7859 31.635 23.0064 31.755 23.099C33.5813 24.5116 33.5733 26.9902 31.7213 28.3933C31.552 28.5217 31.4265 28.6131 31.466 28.8856C31.6566 30.2131 31.1913 31.3027 30.0951 32.0563C29.0105 32.8017 27.8455 32.8149 26.6772 32.2022C26.6015 32.1627 26.5214 32.1301 26.3626 32.0573C26.2207 32.9001 26.055 33.6935 25.9588 34.4949C25.5268 38.0898 25.8911 41.6039 27.0514 45.0379C27.1714 45.3931 27.3389 45.4845 27.6893 45.4618C28.2036 45.4278 28.4973 45.453 29.0658 45.453C29.0658 45.9553 29.0786 46.5295 29.0786 47.0501C29.5076 47.0501 30.2381 47.0497 30.6715 47.0497C30.6715 46.6466 30.6441 46.1967 30.6441 46.1967C30.6441 46.1967 30.7619 46.1938 30.6825 46.1799C30.7835 46.2047 30.7246 46.1586 30.7246 46.1586C30.7246 46.1586 30.7718 46.0624 30.7827 46.1799C31.176 46.1799 31.8362 46.2135 32.2437 46.2135C32.2598 45.9973 32.266 45.6765 32.289 45.3693C35.8978 45.4446 39.2063 45.5017 42.806 45.5767C42.8499 45.7855 42.8195 46.1188 42.8547 46.2856C43.2153 46.2856 44.0277 46.3024 44.2984 46.3024C44.3258 46.1455 44.2922 45.6517 44.2922 45.6517C44.2922 45.6517 44.3441 45.6593 44.4323 45.6374" fill="white"/>
<path fill-rule="evenodd" clip-rule="evenodd" d="M46.3763 42.7528C46.1111 42.7758 45.9095 42.7502 45.6674 42.7711C45.6674 43.7964 45.6674 44.8041 45.6674 45.8118C45.6674 45.9896 45.6688 46.1677 45.6696 46.3455C45.6718 46.9439 45.697 46.7954 45.1242 46.8159C44.7595 46.8287 44.6066 46.8433 44.6132 46.4677C44.6337 45.2518 44.6209 44.0352 44.6209 42.7817C44.442 42.7817 44.2913 42.7817 44.0821 42.7817C44.0821 43.7064 44.0872 44.623 44.0769 45.5397C44.0751 45.7043 44.0349 45.998 43.9701 46.0101C43.7024 46.0613 43.4149 46.0478 43.1427 46.005C43.0915 45.9973 43.0528 45.7478 43.0517 45.6092C43.0436 44.6753 43.0473 43.7419 43.0473 42.7747C39.3521 42.7747 35.6925 42.7747 31.9761 42.7747C31.9761 43.8622 31.9761 44.9372 31.9761 45.9991C31.8807 46.0295 31.8404 46.0507 31.7983 46.0543C30.9333 46.1396 30.9245 46.126 30.9329 45.2723C30.941 44.4449 30.9347 43.6175 30.9347 42.7674C30.7522 42.7674 30.6267 42.7674 30.442 42.7674C30.442 43.6526 30.4409 44.5235 30.4424 45.3941C30.4428 45.7507 30.4278 46.1088 30.4567 46.4633C30.4951 46.9308 30.2251 46.9406 29.8725 46.9476C29.5155 46.9553 29.3747 46.866 29.3835 46.4786C29.4083 45.3945 29.393 44.3092 29.3915 43.2246C29.3915 43.0798 29.3798 42.9349 29.3725 42.7689C29.2046 42.7517 29.1486 42.7568 28.8867 42.7524C28.8867 42.4327 28.9163 42.2542 28.9676 42.0234C29.517 41.2289 30.1337 40.4443 30.1337 40.4443C30.1337 40.4443 31.005 40.4527 31.7577 40.4527C36.1852 40.4527 40.6133 40.4575 45.0411 40.4443C45.2032 40.4436 45.4501 40.4443 45.4501 40.4443C45.4501 40.4443 45.6407 40.6942 45.7109 40.8686C45.896 41.3299 46.1367 41.7688 46.3313 42.2264C46.3858 42.3537 46.3609 42.5567 46.3763 42.7528Z" fill="white"/>
<path fill-rule="evenodd" clip-rule="evenodd" d="M45.4466 37.9504C45.4466 38.269 45.4466 38.3725 45.4466 38.72C40.3439 38.72 35.2511 38.72 30.1309 38.72C30.1309 38.3974 30.1309 38.2953 30.1309 37.9504C35.2335 37.9504 40.3278 37.9504 45.4466 37.9504Z" fill="white"/>
<path fill-rule="evenodd" clip-rule="evenodd" d="M45.4476 39.1997C45.4476 39.5392 45.4608 39.6881 45.4608 40.0513C45.305 40.0597 45.1495 40.0754 44.9948 40.0754C40.2001 40.0769 35.4117 40.0352 30.6163 40.0531C30.4121 40.0538 30.147 40.0608 30.147 40.0608C30.147 40.0608 30.136 39.9101 30.1338 39.7071C30.1316 39.4781 30.1338 39.1694 30.1338 39.1694C30.1338 39.1694 30.4264 39.1686 30.6046 39.1694C35.3992 39.1866 40.1943 39.1789 44.989 39.1789C45.1334 39.1792 45.2779 39.1917 45.4476 39.1997Z" fill="white"/>
<path fill-rule="evenodd" clip-rule="evenodd" d="M30.1836 36.5614C35.2818 36.5614 40.3432 36.5614 45.4389 36.5614C45.4389 36.8979 45.436 37.1141 45.436 37.4825C45.2589 37.4825 45.0998 37.4825 44.9411 37.4825C40.247 37.4821 35.5532 37.4825 30.8592 37.4817C30.4681 37.4817 30.1722 37.4825 30.1722 37.4825C30.1722 37.4825 30.1572 37.0999 30.1836 36.5614Z" fill="white"/>
</svg>
 