<svg width="58" height="58" viewBox="0 0 58 58" fill="none" xmlns="http://www.w3.org/2000/svg">
<circle cx="29.204" cy="29.3331" r="28.6669" fill="#B3717B"/>
<path d="M17.1999 34.4263L24.1099 41.3362C24.6044 41.8308 25.407 41.8346 25.9062 41.3472L17.1889 32.63C16.7015 33.1295 16.7054 33.9318 17.1999 34.4263Z" fill="white"/>
<path d="M32.3278 24.0767L23.9473 32.4572L26.0792 34.5892L34.4597 26.2087L32.3278 24.0767Z" fill="white"/>
<path d="M17.74 29.6459L17.6724 29.7136C17.0285 30.3575 17.0285 31.4051 17.6724 32.049L17.8949 32.2715H17.8929L26.2661 40.6447V40.643L26.4886 40.8656C27.1325 41.5094 28.1799 41.5094 28.824 40.8653L28.8917 40.7976C29.5356 40.1537 29.5356 39.1061 28.892 38.4622L20.0757 29.6459C19.4315 29.0021 18.3842 29.0021 17.74 29.6459Z" fill="white"/>
<path d="M29.5838 17.8007L29.5161 17.8683C28.8722 18.5122 28.8722 19.5598 29.5161 20.2037L38.3327 29.0203C38.9765 29.6642 40.0239 29.6642 40.6681 29.02L40.7357 28.9523C41.3796 28.3085 41.3796 27.2608 40.736 26.6169L31.9195 17.8007C31.2753 17.1568 30.2279 17.1568 29.5838 17.8007Z" fill="white"/>
<path d="M32.498 17.3211L41.2167 26.037C41.7049 25.5378 41.7016 24.7347 41.2065 24.2399L34.2966 17.3299C33.8012 16.8346 32.997 16.8315 32.498 17.3211Z" fill="white"/>
<path d="M19.0817 39.455C19.5386 39.9119 20.1915 40.0981 20.8285 39.9534L21.3583 39.8327L18.7041 37.1785L18.5834 37.7082C18.4384 38.3452 18.6249 38.9982 19.0817 39.455Z" fill="white"/>
<path d="M37.5766 18.7134L37.0469 18.8342L39.7011 21.4883L39.8218 20.9586C39.9667 20.3216 39.7803 19.6687 39.3234 19.2118C38.8666 18.755 38.2136 18.5685 37.5766 18.7134Z" fill="white"/>
</svg>
