<svg width="58" height="59" viewBox="0 0 58 59" fill="none" xmlns="http://www.w3.org/2000/svg">
<circle cx="28.6669" cy="29.4717" r="28.6669" fill="#B3717B"/>
<path d="M38.0147 27.551C36.3415 26.2625 34.3659 26.1094 32.9854 26.0307C34.1684 24.8581 34.9024 23.2334 34.9039 21.4363C34.9039 21.1261 34.8746 20.8229 34.8326 20.5242C35.8691 20.2347 36.6331 19.2643 36.6331 18.1084C36.6346 16.723 35.5413 15.5998 34.1926 15.5991C33.5063 15.5987 32.887 15.8904 32.4427 16.3581C31.3393 15.4843 29.948 14.9578 28.4321 14.9571C26.9026 14.9563 25.4989 15.4891 24.3901 16.3752C23.9455 15.8941 23.3185 15.5924 22.6214 15.5924C21.2731 15.5917 20.1791 16.7137 20.1787 18.0988C20.1776 19.2725 20.9634 20.2555 22.0237 20.5294C21.9825 20.824 21.9539 21.1227 21.9536 21.4285C21.9525 23.1513 22.6293 24.7136 23.7262 25.8743C22.4778 25.8431 20.9732 25.9671 19.5662 26.7923C17.3645 28.0808 18.1778 31.6483 21.3823 31.3158C21.8179 31.2704 22.2216 31.195 22.6123 31.1047C22.4546 31.4376 22.3081 31.8032 22.1847 32.2164C22.0284 32.7424 21.9659 33.4506 22.0805 34.2018C21.374 36.4359 21.2571 39.4973 21.7535 41.6708C22.4893 44.8912 26.039 44.5216 26.5093 41.9636C26.7126 40.8646 26.5864 39.5471 26.3404 38.2984C26.9279 38.4184 27.5878 38.4871 28.3298 38.4897C29.05 38.4927 29.6926 38.4318 30.267 38.3229C30.037 39.5783 29.9288 40.9017 30.1487 42.0003C30.6556 44.5506 34.2093 44.8671 34.8995 41.6366C35.3452 39.5475 35.2172 36.6532 34.5573 34.4589C34.7226 33.6326 34.668 32.8405 34.5005 32.2647C34.4014 31.9217 34.2856 31.6119 34.1611 31.3254C34.6264 31.5171 35.1216 31.6784 35.6647 31.8069C38.803 32.5459 40.0425 29.1111 38.0147 27.551ZM34.1919 16.7943C34.897 16.7947 35.4682 17.3825 35.4679 18.107C35.4679 18.6999 35.0829 19.1948 34.5569 19.3572C34.2813 18.5435 33.8489 17.8038 33.2951 17.1714C33.5262 16.9389 33.8424 16.794 34.1919 16.7943ZM31.3296 19.965C31.7282 19.9654 32.0513 20.3057 32.0509 20.7267C32.0509 21.1469 31.7272 21.4868 31.3288 21.4868C30.9302 21.4864 30.6067 21.1457 30.6075 20.7255C30.6078 20.305 30.9313 19.9646 31.3296 19.965ZM28.4513 20.9343C28.8381 20.934 29.2114 21.0008 29.5547 21.1212C29.9972 21.2739 30.3893 21.518 30.7164 21.8219C31.161 22.2477 31.4775 22.7935 31.5973 23.4073C31.6345 23.5856 31.6526 23.7729 31.653 23.9646C31.6519 24.4149 31.5481 24.841 31.3654 25.2244C31.2026 25.5547 30.9812 25.852 30.7149 26.105C30.3864 26.4145 29.995 26.6534 29.5518 26.8061C29.2085 26.9264 28.8348 26.9907 28.4473 26.99C28.1076 26.9903 27.7813 26.9413 27.4731 26.8492C26.9789 26.6987 26.5404 26.4412 26.183 26.1028C25.9146 25.849 25.6921 25.5521 25.5326 25.2215C25.3466 24.8377 25.2449 24.4112 25.2446 23.9605C25.2449 23.7695 25.2638 23.5819 25.2974 23.4036C25.4186 22.7902 25.7351 22.244 26.1852 21.819C26.5433 21.4824 26.9814 21.2253 27.476 21.0792C27.7849 20.983 28.1109 20.9343 28.4513 20.9343ZM25.4837 19.9613C25.8827 19.9613 26.2058 20.3024 26.2051 20.7229C26.2051 21.1435 25.8817 21.4835 25.483 21.4831C25.084 21.4831 24.7609 21.142 24.7613 20.7214C24.7613 20.3016 25.0847 19.9609 25.4837 19.9613ZM22.2958 19.3646C21.7473 19.2167 21.3411 18.7088 21.3414 18.0992C21.3418 17.3743 21.9141 16.7873 22.6199 16.7876C22.9824 16.7876 23.3077 16.9441 23.5399 17.193C22.994 17.8227 22.5682 18.5573 22.2958 19.3646ZM28.2335 36.9958C26.2977 36.9947 24.7298 35.1195 24.7312 32.8075C24.7327 30.4954 26.3028 28.6214 28.2386 28.6225C30.1744 28.624 31.7427 30.4995 31.7413 32.8112C31.7398 35.1232 30.1694 36.9969 28.2335 36.9958Z" fill="white"/>
<path d="M27.7748 24.4091C27.7842 24.4091 27.9535 24.4091 28.1365 24.3114C28.2009 24.2776 28.266 24.2311 28.3272 24.1691C28.3746 24.1208 28.4147 24.0658 28.4495 24.006C28.4849 24.0684 28.5254 24.1267 28.5746 24.1765C28.8029 24.4095 29.0934 24.4095 29.1046 24.4095C29.2812 24.4098 29.4241 24.3705 29.5398 24.3088C29.8119 24.1646 29.9291 23.8979 29.9544 23.7336C29.9667 23.6552 29.915 23.5824 29.8387 23.5694C29.7623 23.5568 29.6903 23.6099 29.6769 23.6879C29.6693 23.7322 29.5894 24.1215 29.1039 24.1212C29.1017 24.1215 28.9165 24.1189 28.7732 23.9722C28.6531 23.8492 28.5924 23.6586 28.5924 23.4045C28.5924 23.3617 28.592 23.3279 28.592 23.2911C28.6416 23.2685 28.6976 23.2347 28.7624 23.1827C28.7624 23.1827 29.3738 22.6733 29.5232 22.2672C29.538 22.2263 29.5521 22.1944 29.5572 22.1617L29.5623 22.1583C29.5623 22.1583 29.5999 21.9313 29.4118 21.8919C29.2273 21.8533 28.4936 21.5947 27.5345 21.8823C27.5345 21.8823 27.4871 21.8979 27.4622 21.9135C27.4246 21.9336 27.3327 21.9904 27.3381 22.116C27.3385 22.1204 27.3381 22.1245 27.3388 22.1294C27.3388 22.1305 27.3388 22.1316 27.3388 22.1323C27.3421 22.171 27.3522 22.2144 27.3764 22.2639C27.4618 22.4448 27.7208 22.7862 27.9853 23.0381C28.0931 23.1466 28.2045 23.2347 28.3113 23.2867C28.3113 23.322 28.3116 23.3602 28.3116 23.4033C28.3109 24.0959 27.8319 24.1189 27.7766 24.1193C27.2918 24.1189 27.2126 23.7303 27.205 23.6857C27.1927 23.6077 27.121 23.5542 27.0447 23.5665C26.9676 23.5791 26.9155 23.653 26.9275 23.7314C26.9626 23.9659 27.1861 24.4083 27.7748 24.4091Z" fill="white"/>
</svg>
