<svg width="58" height="58" viewBox="0 0 58 58" fill="none" xmlns="http://www.w3.org/2000/svg">
	<circle cx="29.1708" cy="29.1378" r="28.6669" fill="#B3717B"/>
	<path d="M38.6661 41.1081L37.789 23.3038C37.7646 22.8084 37.3753 22.4199 36.9034 22.4199H34.3151V21.545C34.3151 18.5635 32.007 16.1378 29.1701 16.1378C26.3333 16.1378 24.0256 18.5635 24.0256 21.545V22.4199H21.4372C20.9653 22.4199 20.5759 22.8084 20.5514 23.3038L19.6721 41.1574C19.6596 41.4126 19.7472 41.6622 19.9147 41.8475C20.0821 42.0328 20.3146 42.1378 20.5578 42.1378H37.7829C37.7833 42.1379 37.7837 42.1379 37.7841 42.1378C38.2739 42.1378 38.6709 41.7204 38.6709 41.2057C38.6708 41.1727 38.6693 41.1402 38.6661 41.1081ZM25.289 26.1927C24.7644 26.1927 24.339 25.7456 24.339 25.1943C24.339 24.6429 24.7644 24.1958 25.289 24.1958C25.8136 24.1958 26.239 24.6429 26.239 25.1943C26.239 25.7456 25.8136 26.1927 25.289 26.1927ZM31.6766 22.4199H26.6639V21.545C26.6639 20.0924 27.7882 18.9108 29.1701 18.9108C30.5523 18.9108 31.6766 20.0924 31.6766 21.545V22.4199ZM33.0527 26.1927C32.5282 26.1927 32.1028 25.7456 32.1028 25.1943C32.1028 24.6429 32.5282 24.1958 33.0527 24.1958C33.5773 24.1958 34.0027 24.6429 34.0027 25.1943C34.0027 25.7456 33.5773 26.1927 33.0527 26.1927Z" fill="white"/>
</svg>
