<svg width="59" height="58" viewBox="0 0 59 58" fill="none" xmlns="http://www.w3.org/2000/svg">
<circle cx="29.3378" cy="29.1669" r="28.6669" fill="#B3717B"/>
<path d="M37.3379 16.7919C35.7879 16.7919 34.3379 21.7742 34.3379 27.1044C34.3379 30.7783 36.3379 32.2607 36.3379 32.2607V40.5107C36.3379 41.0779 36.7879 41.5419 37.3379 41.5419C37.8879 41.5419 38.3379 41.0779 38.3379 40.5107V17.5009C38.3379 16.7919 37.6504 16.7919 37.3379 16.7919Z" fill="white"/>
<path d="M31.3379 16.7919L31.9629 23.4951C31.9629 23.7786 31.7379 24.0107 31.4629 24.0107C31.1879 24.0107 30.9629 23.7786 30.9629 23.4951L30.5879 16.7919H30.0879L29.7129 23.4951C29.7129 23.7786 29.4879 24.0107 29.2129 24.0107C28.9379 24.0107 28.7129 23.7786 28.7129 23.4951L29.3379 16.7919H28.8379C28.8379 16.7919 27.3379 23.7013 27.3379 25.0419C27.3379 26.3826 28.1754 27.5298 29.3379 27.9552V40.5107C29.3379 41.0779 29.7879 41.5419 30.3379 41.5419C30.8879 41.5419 31.3379 41.0779 31.3379 40.5107V27.9552C32.5004 27.5298 33.3379 26.3954 33.3379 25.0419C33.3379 23.6884 31.8379 16.7919 31.8379 16.7919H31.3379Z" fill="white"/>
<path d="M23.3379 16.7919C21.6816 16.7919 20.3379 20.9169 20.3379 25.0419C20.3379 26.3826 21.1754 27.5298 22.3379 27.9552V40.5107C22.3379 41.0779 22.7879 41.5419 23.3379 41.5419C23.8879 41.5419 24.3379 41.0779 24.3379 40.5107V27.9552C25.5004 27.5298 26.3379 26.3954 26.3379 25.0419C26.3379 20.9169 24.9941 16.7919 23.3379 16.7919Z" fill="white"/>
</svg>
