<svg width="67" height="65" viewBox="0 0 67 65" fill="none" xmlns="http://www.w3.org/2000/svg">
<path d="M47.1289 30.5459C47.1294 30.4855 47.0852 30.4334 47.0257 30.424L45.2337 30.1384C45.1339 26.3989 43.5955 23.0341 41.1466 20.5754C41.1412 20.5656 41.1412 20.5548 41.1339 20.5469C41.1265 20.539 41.1152 20.539 41.1053 20.5341C38.6466 18.0853 35.2818 16.5464 31.5424 16.4466L31.2568 14.6556C31.2469 14.5956 31.1958 14.5518 31.1353 14.5518C31.0748 14.5518 31.0232 14.5961 31.0139 14.656L30.7356 16.4486C27.0173 16.5612 23.6717 18.0966 21.2243 20.5336C21.2149 20.5395 21.2036 20.539 21.1958 20.5469C21.1879 20.5548 21.1879 20.5661 21.1825 20.5754C18.7341 23.0346 17.1953 26.3994 17.0955 30.1384L15.3044 30.424C15.2444 30.4338 15.2007 30.4855 15.2012 30.5459C15.2017 30.6064 15.2454 30.658 15.3054 30.6669L17.0979 30.9447C17.2105 34.663 18.7454 38.0076 21.182 40.455C21.1874 40.4648 21.1874 40.4761 21.1953 40.4845C21.2027 40.4919 21.2135 40.4904 21.2218 40.4953C23.6678 42.9319 27.0109 44.4668 30.7273 44.5819L31.0134 46.4344C31.0227 46.4943 31.0744 46.5386 31.1348 46.5386C31.1953 46.5386 31.2469 46.4943 31.2563 46.4349L31.5503 44.5843C35.2877 44.482 38.6496 42.9432 41.1068 40.4958C41.1157 40.4904 41.126 40.4919 41.1339 40.485C41.1417 40.4766 41.1417 40.4653 41.1471 40.4555C43.5837 38.0081 45.1181 34.6635 45.2312 30.9452L47.0237 30.6674C47.0847 30.658 47.1285 30.6064 47.1289 30.5459ZM30.6973 16.6969L30.0399 20.9338C28.1678 21.1536 26.421 21.9053 24.9741 23.1157L21.4834 20.6266C23.8708 18.2898 27.1048 16.8173 30.6973 16.6969ZM22.9062 26.9815L26.0104 27.5238L26.7695 28.5956L25.4254 28.8104L22.9062 26.9815ZM25.0822 28.8645L21.8325 29.3827C21.9342 28.544 22.1461 27.7323 22.4603 26.9619L25.0822 28.8645ZM22.5822 26.6757C22.9229 25.9152 23.3654 25.2003 23.9033 24.5469L25.8094 27.2392L22.5822 26.6757ZM22.2351 21.7662L28.7155 28.2854L27.0404 28.5523L22.2351 21.7662ZM22.3929 21.5764L29.1879 26.4225L28.921 28.1433L22.3929 21.5764ZM25.1825 23.2647C25.8374 22.7239 26.5537 22.28 27.3157 21.9378L27.8944 25.1988L25.1825 23.2647ZM28.1805 25.4024L27.6333 22.3183L29.4391 24.8075L29.2307 26.1516L28.1805 25.4024ZM27.5778 21.8242C28.3482 21.5066 29.1609 21.2927 30.0006 21.188L29.4922 24.4628L27.5778 21.8242ZM21.2749 20.8355L23.7548 24.3375C22.5439 25.7898 21.7926 27.5435 21.5788 29.4235L17.3442 30.099C17.4519 26.486 18.9278 23.2332 21.2749 20.8355ZM28.9288 28.4997L30.8403 30.4225H16.8737L28.9288 28.4997ZM16.9195 30.6684H30.8389L28.9691 32.5381L16.9195 30.6684ZM27.6329 38.7721L28.1884 35.6408L28.1687 35.6374L29.2287 34.8812L29.4441 36.2755L27.6329 38.7721ZM29.4977 36.6202L29.9957 39.8424C29.1697 39.7397 28.3703 39.5302 27.6112 39.2205L29.4977 36.6202ZM27.3256 39.0986C26.5596 38.7564 25.8403 38.31 25.1825 37.7672L27.9067 35.8247L27.3256 39.0986ZM22.4146 39.4398L28.9273 32.9275L29.1874 34.6099L22.4146 39.4398ZM22.4613 34.071C22.1505 33.31 21.9406 32.5081 21.8374 31.6807L25.1255 32.1905L22.4613 34.071ZM25.475 32.2446L26.8 32.4501L26.004 33.5661L22.9062 34.0577L25.475 32.2446ZM25.8039 33.8468L23.9131 36.4978C23.3713 35.8414 22.9259 35.1226 22.5832 34.3576L25.8039 33.8468ZM27.0724 32.4924L28.7538 32.7529L22.2425 39.2642L27.0724 32.4924ZM17.3462 30.9835L21.5832 31.6413C21.803 33.5135 22.5547 35.2598 23.7646 36.7062L21.2754 40.1969C18.9391 37.8095 17.4667 34.5759 17.3462 30.9835ZM21.4839 40.4049L24.9741 37.9157C26.4195 39.1246 28.1648 39.8758 30.0345 40.0966L30.6894 44.3341C27.0999 44.2116 23.8688 42.7397 21.4839 40.4049ZM31.0124 44.8149L29.1427 32.7121L31.0124 30.8424V44.8149ZM31.0124 30.2475L29.1363 28.3601L29.6958 24.7544L29.7012 24.7505L29.6973 24.745L31.0124 16.2681V30.2475ZM44.9859 30.0985L40.7514 29.423C40.537 27.544 39.7863 25.7898 38.5753 24.3375L41.0552 20.835C43.4028 23.2332 44.8782 26.486 44.9859 30.0985ZM34.6973 22.3183L34.1574 25.3611L33.0852 26.1202L32.8787 24.8242L34.6973 22.3183ZM32.8241 24.4815L32.2985 21.1836C33.1486 21.2863 33.9721 21.5022 34.7523 21.8242L32.8241 24.4815ZM35.0144 21.9373C35.7715 22.277 36.4829 22.7185 37.1343 23.2539L34.4426 25.159L35.0144 21.9373ZM39.9367 21.5705L33.4018 28.1049L33.1284 26.3911L39.9367 21.5705ZM40.1088 21.746L35.2897 28.5523L33.5763 28.2785L40.1088 21.746ZM38.4274 24.5469C38.9652 25.2008 39.4077 25.9152 39.7484 26.6757L36.5218 27.2392L38.4274 24.5469ZM36.3197 27.5238L39.4126 26.9835L36.8575 28.8016L35.5606 28.5951L36.3197 27.5238ZM39.8693 26.9609C40.184 27.7308 40.3954 28.5435 40.4972 29.3827L37.2042 28.8576L39.8693 26.9609ZM40.8458 20.6256L37.3433 23.1054C35.8905 21.8945 34.1368 21.1433 32.2572 20.9289L31.5817 16.6944C35.1948 16.8026 38.448 18.2785 40.8458 20.6256ZM31.2582 16.2254L33.1869 28.3198L31.2582 30.249V16.2254ZM31.2582 44.8577V30.8409L33.1805 32.7519L31.2582 44.8577ZM39.4126 34.0558L36.3256 33.5661L35.5301 32.4501L36.8079 32.2519L39.4126 34.0558ZM37.1594 32.1974L40.4928 31.6802C40.389 32.5086 40.1791 33.3104 39.8679 34.072L37.1594 32.1974ZM39.7469 34.3576C39.4043 35.1226 38.9583 35.8414 38.417 36.4978L36.5262 33.8468L39.7469 34.3576ZM40.1034 39.2854L33.537 32.7593L35.2577 32.4924L40.1034 39.2854ZM39.9141 39.4452L33.1299 34.6413L33.3959 32.9653L39.9141 39.4452ZM34.7189 39.2205C33.9505 39.5342 33.1397 39.7451 32.3035 39.8468L32.8192 36.6005L34.7189 39.2205ZM32.8733 36.2574L33.0871 34.9122L34.1456 35.6615L34.6973 38.7716L32.8733 36.2574ZM34.4313 35.8636L37.1343 37.7775C36.4805 38.3154 35.7656 38.7579 35.0045 39.0986L34.4313 35.8636ZM31.5901 44.336L32.2627 40.1015C34.1393 39.8867 35.8915 39.1359 37.3433 37.926L40.8453 40.4058C38.4495 42.751 35.1997 44.2259 31.5901 44.336ZM41.0547 40.1964L38.5655 36.7057C39.7754 35.2593 40.5272 33.5125 40.7469 31.6408L44.9844 30.983C44.8635 34.5759 43.391 37.8095 41.0547 40.1964ZM33.3212 32.5445L31.4337 30.6689H45.4107L33.3212 32.5445ZM31.4323 30.4225L33.3615 28.4933L45.4569 30.4225H31.4323Z" fill="#00395A"/>
<path d="M31.1661 48.2494C31.4457 48.2494 31.6725 48.0226 31.6725 47.743C31.6725 47.4633 31.4457 47.2366 31.1661 47.2366C30.8864 47.2366 30.6597 47.4633 30.6597 47.743C30.6597 48.0226 30.8864 48.2494 31.1661 48.2494Z" fill="#00395A"/>
<path d="M31.1656 13.7351C31.445 13.7351 31.6715 13.5086 31.6715 13.2292C31.6715 12.9498 31.445 12.7233 31.1656 12.7233C30.8862 12.7233 30.6597 12.9498 30.6597 13.2292C30.6597 13.5086 30.8862 13.7351 31.1656 13.7351Z" fill="#00395A"/>
<path d="M48.4507 31.0217C48.7304 31.0217 48.9571 30.795 48.9571 30.5153C48.9571 30.2356 48.7304 30.0089 48.4507 30.0089C48.1711 30.0089 47.9443 30.2356 47.9443 30.5153C47.9443 30.795 48.1711 31.0217 48.4507 31.0217Z" fill="#00395A"/>
<path d="M13.9375 31.0217C14.2172 31.0217 14.4439 30.795 14.4439 30.5153C14.4439 30.2356 14.2172 30.0089 13.9375 30.0089C13.6579 30.0089 13.4312 30.2356 13.4312 30.5153C13.4312 30.795 13.6579 31.0217 13.9375 31.0217Z" fill="#00395A"/>
<path d="M19.0113 43.2335C19.2907 43.2335 19.5172 43.007 19.5172 42.7276C19.5172 42.4482 19.2907 42.2217 19.0113 42.2217C18.7319 42.2217 18.5054 42.4482 18.5054 42.7276C18.5054 43.007 18.7319 43.2335 19.0113 43.2335Z" fill="#00395A"/>
<path d="M43.378 18.8093C43.6576 18.8093 43.8844 18.5826 43.8844 18.3029C43.8844 18.0232 43.6576 17.7965 43.378 17.7965C43.0983 17.7965 42.8716 18.0232 42.8716 18.3029C42.8716 18.5826 43.0983 18.8093 43.378 18.8093Z" fill="#00395A"/>
<path d="M43.3775 43.2335C43.6569 43.2335 43.8834 43.007 43.8834 42.7276C43.8834 42.4482 43.6569 42.2217 43.3775 42.2217C43.0981 42.2217 42.8716 42.4482 42.8716 42.7276C42.8716 43.007 43.0981 43.2335 43.3775 43.2335Z" fill="#00395A"/>
<path d="M19.0103 18.8093C19.29 18.8093 19.5167 18.5826 19.5167 18.3029C19.5167 18.0232 19.29 17.7965 19.0103 17.7965C18.7306 17.7965 18.5039 18.0232 18.5039 18.3029C18.5039 18.5826 18.7306 18.8093 19.0103 18.8093Z" fill="#00395A"/>
<path d="M24.4398 46.715C24.6217 46.715 24.7692 46.5675 24.7692 46.3856C24.7692 46.2037 24.6217 46.0562 24.4398 46.0562C24.2578 46.0562 24.1104 46.2037 24.1104 46.3856C24.1104 46.5675 24.2578 46.715 24.4398 46.715Z" fill="#00395A"/>
<path d="M15.2952 37.5705C15.4771 37.5705 15.6246 37.423 15.6246 37.2411C15.6246 37.0592 15.4771 36.9117 15.2952 36.9117C15.1133 36.9117 14.9658 37.0592 14.9658 37.2411C14.9658 37.423 15.1133 37.5705 15.2952 37.5705Z" fill="#00395A"/>
<path d="M24.4398 14.9745C24.6217 14.9745 24.7692 14.8271 24.7692 14.6451C24.7692 14.4632 24.6217 14.3157 24.4398 14.3157C24.2578 14.3157 24.1104 14.4632 24.1104 14.6451C24.1104 14.8271 24.2578 14.9745 24.4398 14.9745Z" fill="#00395A"/>
<path d="M15.2952 24.06C15.4771 24.06 15.6246 23.9125 15.6246 23.7306C15.6246 23.5487 15.4771 23.4012 15.2952 23.4012C15.1133 23.4012 14.9658 23.5487 14.9658 23.7306C14.9658 23.9125 15.1133 24.06 15.2952 24.06Z" fill="#00395A"/>
<path d="M37.949 46.715C38.131 46.715 38.2784 46.5675 38.2784 46.3856C38.2784 46.2037 38.131 46.0562 37.949 46.0562C37.7671 46.0562 37.6196 46.2037 37.6196 46.3856C37.6196 46.5675 37.7671 46.715 37.949 46.715Z" fill="#00395A"/>
<path d="M47.0936 37.5705C47.2755 37.5705 47.423 37.423 47.423 37.2411C47.423 37.0592 47.2755 36.9117 47.0936 36.9117C46.9116 36.9117 46.7642 37.0592 46.7642 37.2411C46.7642 37.423 46.9116 37.5705 47.0936 37.5705Z" fill="#00395A"/>
<path d="M37.949 14.9745C38.131 14.9745 38.2784 14.8271 38.2784 14.6451C38.2784 14.4632 38.131 14.3157 37.949 14.3157C37.7671 14.3157 37.6196 14.4632 37.6196 14.6451C37.6196 14.8271 37.7671 14.9745 37.949 14.9745Z" fill="#00395A"/>
<path d="M47.0936 24.06C47.2755 24.06 47.423 23.9125 47.423 23.7306C47.423 23.5487 47.2755 23.4012 47.0936 23.4012C46.9116 23.4012 46.7642 23.5487 46.7642 23.7306C46.7642 23.9125 46.9116 24.06 47.0936 24.06Z" fill="#00395A"/>
<path d="M26.6627 8.8869H26.7193C26.7796 8.8869 26.8324 8.86806 26.8776 8.83036C26.9229 8.78512 26.9606 8.73234 26.9907 8.67202C27.0209 8.60417 27.0435 8.53631 27.0586 8.46845C27.0737 8.39305 27.0812 8.3252 27.0812 8.26488V2.23689C27.0812 2.18411 27.0699 2.1238 27.0473 2.05594C27.0322 1.98808 27.0096 1.92399 26.9794 1.86368C26.9492 1.80336 26.9115 1.75435 26.8663 1.71665C26.8211 1.67141 26.7721 1.6488 26.7193 1.6488H26.6627V1.5357H32.4532V1.6488H32.3627C32.31 1.6488 32.2647 1.67141 32.227 1.71665C32.1893 1.75435 32.1554 1.80713 32.1252 1.87499C32.1026 1.9353 32.0838 1.99939 32.0687 2.06725C32.0536 2.13511 32.0461 2.19165 32.0461 2.23689V8.26488C32.0461 8.3252 32.0499 8.38928 32.0574 8.45714C32.0725 8.525 32.0913 8.59286 32.1139 8.66071C32.1441 8.72103 32.178 8.77381 32.2157 8.81905C32.261 8.86429 32.31 8.8869 32.3627 8.8869H32.4532V9H30.8699V8.8869H30.9717C31.0245 8.8869 31.0697 8.86429 31.1074 8.81905C31.1526 8.77381 31.1866 8.72103 31.2092 8.66071C31.2393 8.6004 31.2582 8.53631 31.2657 8.46845C31.2808 8.39305 31.2883 8.3252 31.2883 8.26488V1.93153H27.8389V8.26488C27.8389 8.3252 27.8465 8.39305 27.8615 8.46845C27.8766 8.53631 27.8955 8.6004 27.9181 8.66071C27.9483 8.72103 27.986 8.77381 28.0312 8.81905C28.0764 8.86429 28.1292 8.8869 28.1895 8.8869H28.2461V9H26.6627V8.8869ZM34.9235 8.26488C34.9235 8.3252 34.931 8.39305 34.9461 8.46845C34.9612 8.53631 34.9838 8.6004 35.014 8.66071C35.0441 8.72103 35.078 8.77381 35.1157 8.81905C35.161 8.86429 35.21 8.8869 35.2628 8.8869V9H33.8378V8.8869C33.8905 8.8869 33.9358 8.86806 33.9735 8.83036C34.0187 8.78512 34.0564 8.73234 34.0866 8.67202C34.1167 8.60417 34.1393 8.53631 34.1544 8.46845C34.1695 8.39305 34.177 8.3252 34.177 8.26488V4.95118C34.177 4.89841 34.1695 4.83809 34.1544 4.77023C34.1393 4.70237 34.1167 4.63829 34.0866 4.57797C34.0564 4.51765 34.0187 4.46864 33.9735 4.43094C33.9358 4.38571 33.8905 4.36309 33.8378 4.36309V4.24999H35.2628V4.36309C35.2024 4.36309 35.1497 4.38571 35.1044 4.43094C35.0667 4.46864 35.0328 4.51765 35.0026 4.57797C34.98 4.63829 34.9612 4.70237 34.9461 4.77023C34.931 4.83809 34.9235 4.89841 34.9235 4.95118V6.31964H37.5021V4.95118C37.5021 4.89841 37.4945 4.83809 37.4794 4.77023C37.4644 4.70237 37.4417 4.63829 37.4116 4.57797C37.389 4.51765 37.355 4.46864 37.3098 4.43094C37.2721 4.38571 37.2231 4.36309 37.1628 4.36309V4.24999H38.5878V4.36309C38.5275 4.36309 38.4747 4.38571 38.4294 4.43094C38.3917 4.46864 38.3578 4.51765 38.3277 4.57797C38.2975 4.63829 38.2749 4.70237 38.2598 4.77023C38.2523 4.83809 38.2485 4.89841 38.2485 4.95118V8.26488C38.2485 8.3252 38.256 8.39305 38.2711 8.46845C38.2862 8.53631 38.3088 8.6004 38.339 8.66071C38.3691 8.72103 38.403 8.77381 38.4407 8.81905C38.486 8.86429 38.535 8.8869 38.5878 8.8869V9H37.1628V8.8869C37.2155 8.8869 37.2608 8.86806 37.2985 8.83036C37.3437 8.78512 37.3814 8.73234 37.4116 8.67202C37.4417 8.60417 37.4644 8.53631 37.4794 8.46845C37.4945 8.39305 37.5021 8.3252 37.5021 8.26488V6.69285H34.9235V8.26488Z" fill="#00395A"/>
<path d="M26.6627 60.4867H26.7193C26.7796 60.4867 26.8324 60.4678 26.8776 60.4301C26.9229 60.3849 26.9606 60.3321 26.9907 60.2718C27.0209 60.204 27.0435 60.1361 27.0586 60.0682C27.0737 59.9928 27.0812 59.925 27.0812 59.8647V53.8367C27.0812 53.7839 27.0699 53.7236 27.0473 53.6557C27.0322 53.5879 27.0096 53.5238 26.9794 53.4635C26.9492 53.4032 26.9115 53.3541 26.8663 53.3164C26.8211 53.2712 26.7721 53.2486 26.7193 53.2486H26.6627V53.1355H32.4532V53.2486H32.3627C32.31 53.2486 32.2647 53.2712 32.227 53.3164C32.1893 53.3541 32.1554 53.4069 32.1252 53.4748C32.1026 53.5351 32.0838 53.5992 32.0687 53.667C32.0536 53.7349 32.0461 53.7914 32.0461 53.8367V59.8647C32.0461 59.925 32.0499 59.9891 32.0574 60.0569C32.0725 60.1248 32.0913 60.1926 32.1139 60.2605C32.1441 60.3208 32.178 60.3736 32.2157 60.4188C32.261 60.4641 32.31 60.4867 32.3627 60.4867H32.4532V60.5998H30.8699V60.4867H30.9717C31.0245 60.4867 31.0697 60.4641 31.1074 60.4188C31.1526 60.3736 31.1866 60.3208 31.2092 60.2605C31.2393 60.2002 31.2582 60.1361 31.2657 60.0682C31.2808 59.9928 31.2883 59.925 31.2883 59.8647V53.5313H27.8389V59.8647C27.8389 59.925 27.8465 59.9928 27.8615 60.0682C27.8766 60.1361 27.8955 60.2002 27.9181 60.2605C27.9483 60.3208 27.986 60.3736 28.0312 60.4188C28.0764 60.4641 28.1292 60.4867 28.1895 60.4867H28.2461V60.5998H26.6627V60.4867ZM38.8479 60.2266V61.6177H38.7348C38.7197 61.5272 38.6933 61.4216 38.6556 61.301C38.6179 61.1879 38.5652 61.0786 38.4973 60.973C38.4294 60.8675 38.3465 60.777 38.2485 60.7016C38.158 60.6337 38.0525 60.5998 37.9318 60.5998H34.3354C34.2147 60.5998 34.1054 60.6337 34.0074 60.7016C33.9094 60.777 33.8227 60.8675 33.7473 60.973C33.6794 61.0786 33.6229 61.1879 33.5776 61.301C33.5399 61.4216 33.5173 61.5272 33.5098 61.6177H33.3967V60.2266H33.8265C33.8717 60.2266 33.9132 60.2077 33.9509 60.17C33.9961 60.1323 34.0376 60.0871 34.0753 60.0343C34.1205 59.9815 34.162 59.925 34.1997 59.8647C34.2374 59.7968 34.2713 59.7365 34.3015 59.6837C34.4145 59.4274 34.5503 59.122 34.7086 58.7676C34.8745 58.4133 35.0403 58.0476 35.2062 57.6706C35.3796 57.2936 35.5455 56.928 35.7038 56.5736C35.8622 56.2117 35.9979 55.9026 36.111 55.6462L38.0223 59.8194C38.0826 59.9476 38.1392 60.0494 38.1919 60.1248C38.2447 60.1926 38.3163 60.2266 38.4068 60.2266H38.8479ZM34.4485 60.2266H37.389L35.9187 57.0034L34.4485 60.2266Z" fill="#00395A"/>
<path d="M0.418453 27.8926H0.520239C0.580557 27.8926 0.648414 27.8851 0.723811 27.87C0.799208 27.8474 0.878375 27.821 0.961311 27.7908C1.10457 27.7456 1.27421 27.7003 1.47024 27.6551C1.66627 27.6023 1.90377 27.5759 2.18274 27.5759C2.53711 27.5759 2.85001 27.6249 3.12143 27.7229C3.4004 27.821 3.63413 27.9529 3.82263 28.1188C4.01866 28.2847 4.16568 28.4769 4.2637 28.6956C4.36171 28.9142 4.41072 29.148 4.41072 29.3968C4.41072 29.7511 4.30894 30.0678 4.10536 30.3468C3.90933 30.6182 3.63036 30.8482 3.26846 31.0366C3.78116 31.2628 4.15437 31.5531 4.3881 31.9075C4.62937 32.2543 4.75001 32.6313 4.75001 33.0384C4.75001 33.3325 4.68592 33.6152 4.55775 33.8867C4.43711 34.1581 4.25993 34.3956 4.0262 34.5992C3.79247 34.8027 3.50596 34.9648 3.16667 35.0855C2.82739 35.2061 2.43909 35.2664 2.00179 35.2664C1.68512 35.2664 1.42877 35.24 1.23274 35.1872C1.03671 35.1345 0.867065 35.0779 0.723811 35.0176C0.633335 34.9799 0.546628 34.9497 0.463691 34.9271C0.388294 34.9045 0.309128 34.8932 0.226191 34.8932H0.124405V33.6378H0.2375C0.305358 33.849 0.395834 34.0337 0.50893 34.192C0.629565 34.3428 0.765279 34.4672 0.916073 34.5652C1.06687 34.6632 1.22897 34.7386 1.40238 34.7914C1.5758 34.8367 1.75298 34.8593 1.93393 34.8593C2.16766 34.8593 2.39762 34.8216 2.62381 34.7462C2.85755 34.6632 3.06112 34.5501 3.23453 34.4069C3.41548 34.2636 3.55874 34.0902 3.66429 33.8867C3.77739 33.6755 3.83394 33.4418 3.83394 33.1855C3.83394 32.9291 3.78493 32.6841 3.68691 32.4503C3.5889 32.2091 3.44941 32.0017 3.26846 31.8283C3.09505 31.6549 2.8877 31.5154 2.64643 31.4099C2.40516 31.3043 2.14127 31.2515 1.85477 31.2515H1.44762V30.867H1.91131C2.1375 30.867 2.35239 30.8368 2.55596 30.7765C2.75953 30.7087 2.93671 30.6144 3.08751 30.4938C3.24584 30.3656 3.37024 30.2148 3.46072 30.0414C3.5512 29.868 3.59644 29.6682 3.59644 29.442C3.59644 29.2158 3.5512 29.0122 3.46072 28.8313C3.37024 28.6503 3.24961 28.4995 3.09882 28.3789C2.95556 28.2507 2.78969 28.1527 2.6012 28.0849C2.42024 28.017 2.23175 27.9831 2.03572 27.9831C1.87738 27.9831 1.72282 28.0057 1.57203 28.0509C1.42123 28.0962 1.27798 28.1678 1.14226 28.2658C1.00655 28.3638 0.885914 28.4845 0.780359 28.6277C0.674803 28.771 0.591866 28.9444 0.531549 29.148H0.418453V27.8926ZM8.9333 35.0402C8.99362 35.0402 9.04263 35.0251 9.08033 34.995C9.12557 34.9648 9.14818 34.9271 9.14818 34.8819C9.14818 34.8291 9.10295 34.7462 9.01247 34.6331C8.81644 34.3767 8.62418 34.1166 8.43568 33.8527C8.25473 33.5888 8.07001 33.3287 7.88152 33.0724L6.70532 34.667C6.6827 34.6972 6.65632 34.7386 6.62616 34.7914C6.596 34.8442 6.58092 34.8894 6.58092 34.9271C6.58092 35.0025 6.62239 35.0402 6.70532 35.0402V35.1533H5.64223V35.0402C5.74778 35.0402 5.86088 34.9988 5.98151 34.9158C6.10215 34.8253 6.20393 34.7198 6.28687 34.5992L7.65532 32.7444L6.38866 31.0253C6.35096 30.9801 6.30572 30.9273 6.25294 30.867C6.2077 30.8067 6.15493 30.7539 6.09461 30.7087C6.03429 30.6559 5.97397 30.6107 5.91365 30.573C5.85334 30.5353 5.79679 30.5164 5.74401 30.5164V30.4033H7.37259V30.5164C7.32735 30.5164 7.27834 30.5315 7.22556 30.5616C7.18032 30.5918 7.1577 30.6484 7.1577 30.7313C7.1577 30.7765 7.18032 30.8293 7.22556 30.8896L8.14164 32.1563L9.01247 31.0027C9.07279 30.9273 9.11049 30.867 9.12557 30.8218C9.14065 30.7765 9.14818 30.7351 9.14818 30.6974C9.14818 30.6521 9.13311 30.6107 9.10295 30.573C9.08033 30.5353 9.04263 30.5164 8.98985 30.5164V30.4033H10.0756V30.5164C9.95493 30.5164 9.83807 30.5767 9.72497 30.6974C9.61942 30.818 9.52894 30.9311 9.45354 31.0366L8.35652 32.4843L9.872 34.5313C9.97001 34.667 10.0793 34.7876 10.2 34.8932C10.3206 34.9912 10.4375 35.0402 10.5506 35.0402V35.1533H8.9333V35.0402Z" fill="#00395A"/>
<path d="M58.2101 27.9831C57.6522 27.9831 57.1659 28.0849 56.7512 28.2884C56.344 28.4845 56.0047 28.7446 55.7333 29.0688C55.4619 29.3855 55.2583 29.7436 55.1226 30.1432C54.9944 30.5428 54.9303 30.9386 54.9303 31.3307C54.9303 31.7755 55.017 32.2128 55.1905 32.6426C55.3639 33.0648 55.6014 33.4418 55.903 33.7736C56.2121 34.0978 56.5702 34.3617 56.9774 34.5652C57.3845 34.7613 57.8256 34.8593 58.3006 34.8593C58.4363 34.8593 58.5946 34.8442 58.7756 34.814C58.9641 34.7839 59.1488 34.7273 59.3297 34.6444C59.5107 34.5539 59.6766 34.4295 59.8274 34.2712C59.9857 34.1128 60.1063 33.9055 60.1893 33.6492H60.3024V34.9045C60.1893 34.9045 60.0686 34.9196 59.9405 34.9497C59.8198 34.9799 59.6841 35.0138 59.5333 35.0515C59.3373 35.1043 59.1186 35.1533 58.8774 35.1986C58.6436 35.2438 58.3948 35.2664 58.1309 35.2664C57.475 35.2664 56.8982 35.1533 56.4006 34.9271C55.903 34.7009 55.4883 34.4069 55.1565 34.045C54.8248 33.6831 54.576 33.2759 54.4101 32.8236C54.2442 32.3636 54.1613 31.8999 54.1613 31.4325C54.1613 30.965 54.2442 30.5013 54.4101 30.0414C54.576 29.5815 54.8286 29.1706 55.1678 28.8087C55.5071 28.4392 55.9331 28.1414 56.4458 27.9152C56.9585 27.689 57.5617 27.5759 58.2553 27.5759C58.5042 27.5759 58.7266 27.5985 58.9226 27.6438C59.1262 27.689 59.3071 27.7343 59.4655 27.7795C59.5786 27.8172 59.6803 27.8474 59.7708 27.87C59.8688 27.8851 59.9631 27.8926 60.0536 27.8926V29.148H59.9405C59.8952 28.9142 59.8123 28.722 59.6917 28.5712C59.571 28.4128 59.4278 28.2922 59.2619 28.2093C59.1036 28.1263 58.9301 28.0698 58.7417 28.0396C58.5607 28.0019 58.3835 27.9831 58.2101 27.9831ZM64.4648 35.0402C64.5251 35.0402 64.5741 35.0251 64.6118 34.995C64.6571 34.9648 64.6797 34.9271 64.6797 34.8819C64.6797 34.8291 64.6345 34.7462 64.544 34.6331C64.3479 34.3767 64.1557 34.1166 63.9672 33.8527C63.7862 33.5888 63.6015 33.3287 63.413 33.0724L62.2368 34.667C62.2142 34.6972 62.1878 34.7386 62.1577 34.7914C62.1275 34.8442 62.1124 34.8894 62.1124 34.9271C62.1124 35.0025 62.1539 35.0402 62.2368 35.0402V35.1533H61.1737V35.0402C61.2793 35.0402 61.3924 34.9988 61.513 34.9158C61.6337 34.8253 61.7354 34.7198 61.8184 34.5992L63.1868 32.7444L61.9202 31.0253C61.8825 30.9801 61.8372 30.9273 61.7845 30.867C61.7392 30.8067 61.6864 30.7539 61.6261 30.7087C61.5658 30.6559 61.5055 30.6107 61.4452 30.573C61.3848 30.5353 61.3283 30.5164 61.2755 30.5164V30.4033H62.9041V30.5164C62.8589 30.5164 62.8098 30.5315 62.7571 30.5616C62.7118 30.5918 62.6892 30.6484 62.6892 30.7313C62.6892 30.7765 62.7118 30.8293 62.7571 30.8896L63.6731 32.1563L64.544 31.0027C64.6043 30.9273 64.642 30.867 64.6571 30.8218C64.6722 30.7765 64.6797 30.7351 64.6797 30.6974C64.6797 30.6521 64.6646 30.6107 64.6345 30.573C64.6118 30.5353 64.5741 30.5164 64.5214 30.5164V30.4033H65.6071V30.5164C65.4864 30.5164 65.3696 30.5767 65.2565 30.6974C65.1509 30.818 65.0604 30.9311 64.9851 31.0366L63.888 32.4843L65.4035 34.5313C65.5015 34.667 65.6108 34.7876 65.7315 34.8932C65.8521 34.9912 65.969 35.0402 66.0821 35.0402V35.1533H64.4648V35.0402Z" fill="#00395A"/>
</svg>
