<svg width="153" height="60" viewBox="0 0 153 60" fill="none" xmlns="http://www.w3.org/2000/svg">
<path d="M47.2806 26.988L43.6476 20.9157H42.2463V26.988H39.1323V11.3662H45.1008C46.9173 11.3662 48.3186 11.8333 49.2528 12.7156C50.1869 13.5979 50.654 14.7397 50.654 16.1929C50.654 17.3866 50.3426 18.3727 49.6679 19.1511C48.9932 19.9296 48.0591 20.5006 46.8135 20.7601L50.7059 26.988H47.2806ZM42.2463 18.736H44.7894C46.554 18.736 47.4882 17.9575 47.4882 16.3486C47.4882 15.622 47.2806 14.9992 46.8135 14.584C46.3983 14.1688 45.7236 13.9612 44.7894 13.9612H42.2463V18.736Z" fill="#F4F9FB"/>
<path d="M64.2517 14.6877V26.9359H61.1377V24.4448C60.8263 25.2752 60.2554 25.898 59.5288 26.3651C58.8022 26.8322 57.9199 27.0398 56.9338 27.0398C55.5325 27.0398 54.3907 26.5726 53.5603 25.6385C52.7299 24.7043 52.3147 23.4068 52.3147 21.746V14.6357H55.4287V21.3827C55.4287 22.3688 55.6882 23.0954 56.1553 23.6663C56.6743 24.1853 57.349 24.4967 58.1794 24.4967C59.0617 24.4967 59.7883 24.1853 60.3073 23.6144C60.8263 23.0435 61.0858 22.2131 61.0858 21.1232V14.6357H64.2517V14.6877Z" fill="#F4F9FB"/>
<path d="M74.7353 15.6736C75.6176 16.4002 76.1885 17.4382 76.3961 18.6838H73.4897C73.3859 18.1129 73.1264 17.6458 72.7112 17.2825C72.296 16.9192 71.777 16.7635 71.1023 16.7635C70.5834 16.7635 70.1682 16.8673 69.8568 17.1268C69.5454 17.3863 69.3897 17.6977 69.3897 18.1648C69.3897 18.5281 69.4935 18.7876 69.753 18.9952C70.0125 19.2028 70.272 19.3585 70.6353 19.4623C70.9986 19.5661 71.5175 19.7218 72.1403 19.8775C73.0745 20.0851 73.8011 20.2927 74.4239 20.5521C74.9948 20.7597 75.5138 21.123 75.929 21.642C76.3442 22.161 76.5518 22.7838 76.5518 23.6661C76.5518 24.7041 76.1366 25.5864 75.3062 26.2092C74.4758 26.8839 73.3859 27.1953 71.9846 27.1953C70.3757 27.1953 69.1302 26.832 68.1441 26.1054C67.2099 25.3788 66.5871 24.3927 66.3795 23.0433H69.3897C69.4416 23.6661 69.753 24.1332 70.1682 24.4446C70.6352 24.8079 71.2061 24.9636 71.9846 24.9636C72.5036 24.9636 72.9188 24.8598 73.1783 24.6003C73.4378 24.3408 73.5935 24.0294 73.5935 23.6142C73.5935 23.2509 73.4897 22.9914 73.2302 22.7319C72.9707 22.4724 72.6593 22.3167 72.3479 22.2129C71.9846 22.1091 71.4656 21.9535 70.7909 21.7978C69.8568 21.5902 69.1302 21.3825 68.5593 21.175C67.9884 20.9674 67.5213 20.6041 67.1061 20.137C66.6909 19.6699 66.4833 18.9952 66.4833 18.1648C66.4833 17.1268 66.8985 16.2445 67.677 15.5698C68.5074 14.8951 69.5973 14.5837 71.0504 14.5837C72.6074 14.5318 73.8011 14.947 74.7353 15.6736Z" fill="#F4F9FB"/>
<path d="M86.1534 15.3103C86.88 15.7774 87.399 16.4521 87.7104 17.2825V14.7394H90.8243V26.9877H87.7104V24.4446C87.399 25.275 86.88 25.9497 86.1534 26.4168C85.4268 26.9358 84.5445 27.1434 83.5065 27.1434C82.4685 27.1434 81.5343 26.8839 80.7039 26.4168C79.8735 25.8978 79.2507 25.1712 78.7836 24.237C78.3165 23.3028 78.1089 22.161 78.1089 20.8635C78.1089 19.566 78.3165 18.4761 78.7836 17.49C79.2507 16.5558 79.8735 15.8293 80.7039 15.3103C81.5343 14.7913 82.4685 14.5837 83.5065 14.5837C84.4926 14.5318 85.3749 14.7913 86.1534 15.3103ZM82.1052 18.2166C81.5343 18.8394 81.2229 19.7217 81.2229 20.8116C81.2229 21.9015 81.5343 22.7838 82.1052 23.4066C82.6761 24.0294 83.4546 24.3408 84.4407 24.3408C85.3749 24.3408 86.1534 24.0294 86.7762 23.3547C87.3989 22.7319 87.7104 21.8496 87.7104 20.7597C87.7104 19.6698 87.3989 18.7875 86.7762 18.1647C86.1534 17.542 85.3749 17.1786 84.4407 17.1786C83.4546 17.2824 82.6761 17.5938 82.1052 18.2166Z" fill="#F4F9FB"/>
<path d="M104.111 15.9332C104.941 16.8674 105.356 18.1649 105.356 19.8257V26.936H102.242V20.189C102.242 19.2029 101.983 18.4763 101.516 17.9055C100.997 17.3865 100.322 17.075 99.4397 17.075C98.5574 17.075 97.8308 17.3864 97.3118 17.9573C96.7928 18.5282 96.5333 19.3586 96.5333 20.4485V26.936H93.4193V14.6877H96.5333V17.127C96.8447 16.2966 97.4156 15.6738 98.1422 15.2067C98.8688 14.7396 99.751 14.532 100.737 14.532C102.138 14.532 103.28 14.9991 104.111 15.9332Z" fill="#F4F9FB"/>
<path d="M108.107 9.96464C108.47 9.65324 108.937 9.49756 109.508 9.49756C110.079 9.49756 110.546 9.65324 110.909 9.96464C111.273 10.276 111.428 10.6912 111.428 11.2102C111.428 11.6773 111.273 12.0925 110.909 12.4039C110.546 12.7153 110.079 12.871 109.508 12.871C108.937 12.871 108.47 12.7153 108.107 12.4039C107.744 12.0925 107.588 11.6773 107.588 11.2102C107.536 10.6912 107.744 10.276 108.107 9.96464ZM111.013 26.9877H107.899V14.7394H111.013V26.9877Z" fill="#F4F9FB"/>
<path d="M119.006 23.8221L122.068 14.6877H125.389L120.874 26.988H117.085L112.518 14.6877H115.892L119.006 23.8221Z" fill="#F4F9FB"/>
<path d="M47.2806 45.36L43.6476 39.2878H42.2463V45.36H39.1323V29.7383H45.1008C46.9173 29.7383 48.3186 30.2054 49.2528 31.0877C50.1869 31.9699 50.654 33.1117 50.654 34.5649C50.654 35.7586 50.3426 36.7447 49.6679 37.5232C48.9932 38.3017 48.0591 38.8726 46.8135 39.1321L50.7059 45.36H47.2806ZM42.2463 37.1599H44.7894C46.554 37.1599 47.4882 36.3814 47.4882 34.7725C47.4882 34.0459 47.2806 33.4231 46.8135 33.0079C46.3983 32.5927 45.7236 32.3851 44.7894 32.3851H42.2463V37.1599Z" fill="#F4F9FB"/>
<path d="M64.1478 39.8591H55.1692C55.2211 40.949 55.5325 41.7794 56.0515 42.2465C56.6224 42.7655 57.2971 43.025 58.0756 43.025C58.8022 43.025 59.425 42.8693 59.8921 42.506C60.3592 42.1427 60.6706 41.6756 60.8263 41.0528H64.1478C63.9921 41.8832 63.6288 42.6617 63.1098 43.3364C62.5908 44.0111 61.9161 44.5301 61.0857 44.9453C60.2554 45.3086 59.3212 45.5161 58.3351 45.5161C57.1414 45.5161 56.1034 45.2566 55.1692 44.7376C54.235 44.2186 53.5084 43.4921 52.9894 42.5579C52.4704 41.6237 52.2109 40.4819 52.2109 39.2363C52.2109 37.9388 52.4704 36.8489 52.9894 35.8628C53.5084 34.9286 54.235 34.202 55.1692 33.683C56.1034 33.164 57.1414 32.9045 58.3351 32.9045C59.5288 32.9045 60.6187 33.164 61.501 33.683C62.3832 34.202 63.1098 34.8767 63.5769 35.759C64.0959 36.6413 64.3035 37.6274 64.3035 38.7692C64.2516 39.0806 64.2516 39.4439 64.1478 39.8591ZM60.3592 36.2261C59.7883 35.7071 59.1136 35.4476 58.2832 35.4476C57.4528 35.4476 56.7262 35.7071 56.1553 36.2261C55.5844 36.7451 55.273 37.5236 55.2211 38.5097H61.1896C61.1896 37.4717 60.9301 36.7451 60.3592 36.2261Z" fill="#F4F9FB"/>
<path d="M74.3203 34.0979C75.2026 34.8245 75.7735 35.8625 75.9811 37.1081H73.0747C72.9709 36.5372 72.7114 36.0701 72.2962 35.7068C71.881 35.3435 71.362 35.1878 70.6873 35.1878C70.1683 35.1878 69.7531 35.2916 69.4417 35.5511C69.1303 35.8106 68.9746 36.122 68.9746 36.5891C68.9746 36.9524 69.0784 37.2119 69.3379 37.4195C69.5974 37.6271 69.8569 37.7828 70.2202 37.8866C70.5835 37.9904 71.1025 38.1461 71.7253 38.3018C72.6595 38.5094 73.3861 38.717 74.0089 38.9765C74.5798 39.1841 75.0988 39.5473 75.514 40.0663C75.9292 40.5853 76.1368 41.2081 76.1368 42.0904C76.1368 43.1284 75.7216 44.0107 74.8912 44.6335C74.0608 45.3082 72.9709 45.6196 71.5696 45.6196C69.9607 45.6196 68.7151 45.2563 67.7291 44.5297C66.7949 43.8031 66.1721 42.817 65.9645 41.4676H68.9746C69.0265 42.0904 69.3379 42.5575 69.7531 42.8689C70.2202 43.2322 70.7911 43.3879 71.5696 43.3879C72.0886 43.3879 72.5038 43.2841 72.7633 43.0246C73.0228 42.7651 73.1785 42.4538 73.1785 42.0386C73.1785 41.6753 73.0747 41.4158 72.8152 41.1563C72.5557 40.9487 72.2443 40.7411 71.9329 40.6373C71.5696 40.5335 71.0506 40.3778 70.3759 40.2221C69.4417 40.0145 68.7151 39.8069 68.1442 39.5993C67.5734 39.3917 67.1063 39.0284 66.6911 38.5613C66.2759 38.0942 66.0683 37.4195 66.0683 36.5891C66.0683 35.5511 66.4835 34.6688 67.262 33.9941C68.0924 33.3194 69.1822 33.008 70.6354 33.008C72.1924 32.9561 73.3861 33.3713 74.3203 34.0979Z" fill="#F4F9FB"/>
<path d="M78.4722 28.389C78.8355 28.0776 79.3026 27.9219 79.8735 27.9219C80.4444 27.9219 80.9115 28.0776 81.2748 28.389C81.6381 28.7003 81.7938 29.1156 81.7938 29.6346C81.7938 30.1017 81.6381 30.5168 81.2748 30.8282C80.9115 31.1396 80.4444 31.2953 79.8735 31.2953C79.3026 31.2953 78.8355 31.1396 78.4722 30.8282C78.1089 30.5168 77.9532 30.1017 77.9532 29.6346C77.9532 29.1156 78.1089 28.7003 78.4722 28.389ZM81.4305 45.3601H78.3166V33.1118H81.4305V45.3601Z" fill="#F4F9FB"/>
<path d="M91.8622 33.6827C92.5888 34.1498 93.1078 34.8245 93.4192 35.6549V29.0117H96.5331V45.3601H93.4192V42.817C93.1078 43.6474 92.5888 44.3221 91.8622 44.7892C91.1356 45.3082 90.2534 45.5158 89.2154 45.5158C88.1774 45.5158 87.2432 45.2563 86.4128 44.7892C85.5824 44.2702 84.9596 43.5436 84.4926 42.6094C84.0255 41.6752 83.8179 40.5334 83.8179 39.2359C83.8179 37.9385 84.0255 36.8486 84.4926 35.8625C84.9596 34.9283 85.5824 34.2017 86.4128 33.6827C87.2432 33.1637 88.1774 32.9042 89.2154 32.9042C90.2534 32.9561 91.1356 33.2156 91.8622 33.6827ZM87.8141 36.641C87.2432 37.2638 86.9318 38.1461 86.9318 39.2359C86.9318 40.3258 87.2432 41.2081 87.8141 41.8309C88.385 42.4537 89.1635 42.7651 90.1495 42.7651C91.0837 42.7651 91.8622 42.4537 92.485 41.779C93.1078 41.1562 93.4192 40.2739 93.4192 39.1841C93.4192 38.0942 93.1078 37.2119 92.485 36.5891C91.8622 35.9663 91.0837 35.603 90.1495 35.603C89.2154 35.7068 88.4369 36.0182 87.8141 36.641Z" fill="#F4F9FB"/>
<path d="M110.754 39.8591H101.775C101.827 40.949 102.138 41.7794 102.657 42.2465C103.228 42.7655 103.903 43.025 104.681 43.025C105.408 43.025 106.031 42.8693 106.498 42.506C106.965 42.1427 107.276 41.6756 107.432 41.0528H110.754C110.598 41.8832 110.235 42.6617 109.716 43.3364C109.197 44.0111 108.522 44.5301 107.692 44.9453C106.861 45.3086 105.927 45.5161 104.941 45.5161C103.747 45.5161 102.709 45.2566 101.775 44.7376C100.841 44.2186 100.114 43.4921 99.5953 42.5579C99.0763 41.6237 98.8168 40.4819 98.8168 39.2363C98.8168 37.9388 99.0763 36.8489 99.5953 35.8628C100.114 34.9286 100.841 34.202 101.775 33.683C102.709 33.164 103.747 32.9045 104.941 32.9045C106.135 32.9045 107.224 33.164 108.107 33.683C108.989 34.202 109.716 34.8767 110.183 35.759C110.702 36.6413 110.909 37.6274 110.909 38.7692C110.857 39.0806 110.857 39.4439 110.754 39.8591ZM106.965 36.2261C106.394 35.7071 105.719 35.4476 104.889 35.4476C104.059 35.4476 103.332 35.7071 102.761 36.2261C102.19 36.7451 101.879 37.5236 101.827 38.5097H107.795C107.795 37.4717 107.536 36.7451 106.965 36.2261Z" fill="#F4F9FB"/>
<path d="M123.781 34.3576C124.611 35.2918 125.026 36.5892 125.026 38.25V45.3603H121.912V38.6133C121.912 37.6272 121.653 36.9007 121.186 36.3298C120.667 35.8108 119.992 35.4994 119.11 35.4994C118.227 35.4994 117.501 35.8108 116.982 36.3817C116.463 36.9526 116.203 37.7829 116.203 38.8728V45.3603H113.089V33.112H116.203V35.5513C116.515 34.7209 117.086 34.0981 117.812 33.631C118.539 33.1639 119.421 32.9563 120.407 32.9563C121.808 32.9563 122.95 33.4234 123.781 34.3576Z" fill="#F4F9FB"/>
<path d="M137.222 34.2539C138.26 35.0843 138.935 36.278 139.194 37.7312H135.873C135.717 37.1084 135.458 36.5894 134.991 36.1742C134.524 35.8109 133.901 35.6033 133.174 35.6033C132.344 35.6033 131.669 35.9147 131.098 36.5375C130.527 37.1603 130.268 38.0426 130.268 39.2363C130.268 40.43 130.527 41.3123 131.098 41.9351C131.669 42.5579 132.344 42.8693 133.174 42.8693C133.901 42.8693 134.472 42.6617 134.991 42.2984C135.458 41.9351 135.769 41.4161 135.873 40.7414H139.194C138.935 42.1946 138.26 43.3883 137.222 44.2186C136.184 45.049 134.835 45.5161 133.278 45.5161C132.084 45.5161 131.046 45.2566 130.112 44.7376C129.178 44.2186 128.451 43.4921 127.932 42.5579C127.413 41.6237 127.154 40.4819 127.154 39.2363C127.154 37.9388 127.413 36.8489 127.932 35.8628C128.451 34.9286 129.178 34.202 130.112 33.683C131.046 33.164 132.084 32.9045 133.278 32.9045C134.835 32.9564 136.184 33.4236 137.222 34.2539Z" fill="#F4F9FB"/>
<path d="M152.844 39.8591H143.866C143.918 40.949 144.229 41.7794 144.748 42.2465C145.319 42.7655 145.993 43.025 146.772 43.025C147.499 43.025 148.121 42.8693 148.588 42.506C149.056 42.1427 149.367 41.6756 149.523 41.0528H152.844C152.689 41.8832 152.325 42.6617 151.806 43.3364C151.287 44.0111 150.613 44.5301 149.782 44.9453C148.952 45.3086 148.018 45.5161 147.031 45.5161C145.838 45.5161 144.8 45.2566 143.866 44.7376C142.931 44.2186 142.205 43.4921 141.686 42.5579C141.167 41.6237 140.907 40.4819 140.907 39.2363C140.907 37.9388 141.167 36.8489 141.686 35.8628C142.205 34.9286 142.931 34.202 143.866 33.683C144.8 33.164 145.838 32.9045 147.031 32.9045C148.225 32.9045 149.315 33.164 150.197 33.683C151.08 34.202 151.806 34.8767 152.273 35.759C152.792 36.6413 153 37.6274 153 38.7692C152.948 39.0806 152.896 39.4439 152.844 39.8591ZM149.004 36.2261C148.433 35.7071 147.758 35.4476 146.928 35.4476C146.097 35.4476 145.371 35.7071 144.8 36.2261C144.229 36.7451 143.918 37.5236 143.866 38.5097H149.834C149.834 37.4717 149.575 36.7451 149.004 36.2261Z" fill="#F4F9FB"/>
<path d="M0 52.5223H17.6458C18.6319 51.4843 19.3585 50.5501 20.1889 49.3564H0V52.5223Z" fill="#F4F9FB"/>
<path d="M0 45.4122H22.5763C23.3029 44.0109 23.8219 42.8691 24.3409 41.364H0V45.4122Z" fill="#F4F9FB"/>
<path d="M0 59.6845H7.83683C9.23812 59.0098 10.5875 58.2832 11.885 57.4009H0V59.6845Z" fill="#F4F9FB"/>
<path d="M0 0V31.7106H26.0536C26.0536 31.503 26.0536 31.2954 26.0536 31.0359C26.0536 15.518 14.7914 2.59498 0 0Z" fill="#F4F9FB"/>
<path d="M0 38.7172H25.1194C25.5346 36.9526 25.846 35.188 25.9498 33.3196H0V38.7172Z" fill="#F4F9FB"/>
</svg>
