<svg width="33" height="48" viewBox="0 0 33 48" fill="none" xmlns="http://www.w3.org/2000/svg">
<path d="M18.626 38.6765V31.7H14.2267V38.6765H9.36719L16.5095 47.1053L23.6515 38.6765H18.626Z" fill="#B3717B"/>
<path d="M9.51959 19.3506C9.20433 19.3506 8.99077 19.3811 8.87891 19.4116V21.4351C9.01111 21.4656 9.17382 21.4758 9.39755 21.4758C10.221 21.4758 10.7295 21.0588 10.7295 20.3574C10.7295 19.7269 10.2922 19.3506 9.51959 19.3506Z" fill="#B3717B"/>
<path d="M16.0181 19.371C15.6726 19.371 15.4489 19.4015 15.3164 19.432V23.916C15.4489 23.9465 15.6622 23.9465 15.8554 23.9465C17.2588 23.9566 18.1735 23.184 18.1735 21.547C18.184 20.1235 17.3501 19.371 16.0181 19.371Z" fill="#B3717B"/>
<path d="M30.5197 14.1255V10.377C30.5197 10.1805 30.4373 9.98095 30.2996 9.84086L21.1668 0.591943C21.0478 0.443214 20.8071 0.365417 20.6243 0.365417H3.1589C2.73763 0.365417 2.39619 0.706859 2.39619 1.12813V14.1255H0V29.2705H2.39619V35.6854C2.39619 36.1069 2.73763 36.4481 3.1589 36.4481H12.956V34.9227H3.92162V29.2705H28.9943V34.9227H19.8977V36.4481H29.757C30.1783 36.4481 30.5197 36.1069 30.5197 35.6854V29.2705H32.8353V14.1255H30.5197ZM21.387 2.98483L27.9306 9.61434H21.387V2.98483ZM11.6354 21.9436C11.1066 22.4416 10.3238 22.6654 9.40883 22.6654C9.20544 22.6654 9.02239 22.6552 8.88002 22.6349V25.0852H7.34468V18.3238C7.82239 18.2424 8.49358 18.1814 9.43934 18.1814C10.395 18.1814 11.0761 18.3644 11.5338 18.7305C11.971 19.076 12.2657 19.6455 12.2657 20.3167C12.2657 20.9879 12.0422 21.5572 11.6354 21.9436ZM18.6829 24.2719C17.9609 24.8717 16.8628 25.1564 15.5207 25.1564C14.7173 25.1564 14.1478 25.1058 13.7616 25.055V18.3238C14.3311 18.2322 15.0732 18.1814 15.8563 18.1814C17.1577 18.1814 18.0016 18.4153 18.6626 18.9133C19.3744 19.4422 19.8219 20.286 19.8219 21.4959C19.8216 22.8078 19.3437 23.7128 18.6829 24.2719ZM25.5372 19.5032H22.9038V21.069H25.3645V22.3298H22.9038V25.0852H21.3483V18.2322H25.5374V19.5032H25.5372ZM28.9943 14.1255H3.92162V1.89084H19.8616V10.3768C19.8616 10.7981 20.203 11.1395 20.6243 11.1395H28.9943V14.1255Z" fill="#B3717B"/>
</svg>
