<svg class="floor-svg-js"
   xmlns:svg="http://www.w3.org/2000/svg"
   xmlns="http://www.w3.org/2000/svg"
   xmlns:xlink="http://www.w3.org/1999/xlink"
   width="1813.3333"
   height="1000.0001"
   viewBox="0 0 479.77777 264.58332"
   version="1.1">

  <g
     transform="translate(196.79959,35.619045)">
    <image
       y="-35.619045"
       x="-196.79959"
       id="image823"
       xlink:href="./assets/images/choose-build/choose-build.jpg"
       preserveAspectRatio="none"
       height="264.58334"
       width="479.77777" />
    <path data-floor="25" data-flats="10" 
       
       d="m -53.168627,6.7143037 2.298197,-3.7263864 4.142677,-1.6036157 31.203717,-1.87088725 8.6574786,4.17708025 31.1830534,94.1160684 v 4.346727 L -7.8114956,12.761922 -15.37102,9.7381128 l -31.372024,1.3229162 -3.685267,1.74814 -2.740316,3.449034 z"
       id="build_1_25"
      />
    <path data-floor="24" data-flats="10"
       
       d="m -53.168627,16.258203 2.740316,-3.449034 3.685267,-1.74814 31.372022,-1.3229162 7.5595264,3.0238092 32.1279886,89.391368 3e-6,5.47065 -31.4883588,-85.392615 -8.5526242,-3.741775 -30.468726,2.138156 -4.276312,1.202714 -2.699102,3.073599 z"
       
      />
    <path data-floor="23" data-flats="10"
       
       d="m -53.168627,24.904019 2.699102,-3.073599 4.276312,-1.202714 30.468726,-2.138156 8.5526216,3.741775 31.4883584,85.392615 3e-6,4.27631 -31.8892634,-82.452648 -8.0180836,-2.806332 -30.335093,1.737254 -4.142676,0.801807 -3.100007,2.939965 z"

      />
    <path data-floor="22" data-flats="10"
       
       d="m -53.168627,32.120296 3.100007,-2.939965 34.477769,-2.539061 8.018081,2.806332 31.889263,82.452648 3e-6,4.27631 -32.4238011,-79.111778 -7.0826439,-2.80633 -34.210498,2.138156 -3.76818,3.579617 z"

      />
    <path data-floor="21" data-flats="10"
       
       d="m -53.168627,39.976225 3.76818,-3.579617 34.210498,-2.138156 7.0826413,2.80633 32.4238007,79.111778 3e-6,4.67722 -31.4883588,-76.439085 -8.0180862,-2.405425 -32.740515,2.138156 -5.238163,3.207234 z"

      />
    <path data-floor="20" data-flats="10"
       
       d="m -53.168627,47.35466 5.238163,-3.207234 32.740515,-2.138156 8.0180836,2.405425 31.4883584,76.439085 3e-6,4.00904 -31.0874542,-72.162769 -8.1517198,-3.207235 -33.542327,1.737252 -4.703622,2.939965 z"

      />
    <path data-floor="19" data-flats="10"
       
       d="m -53.168627,54.170033 4.703622,-2.939965 33.542327,-1.737252 8.1517172,3.207235 31.0874538,72.162769 3e-6,3.34087 -31.7556276,-68.554633 -7.2162774,-2.80633 -33.943229,1.737252 -4.569989,3.875407 z"

      />
    <path data-floor="18" data-flats="10"
       
       d="m -53.168627,62.455386 4.569989,-3.875407 33.943229,-1.737252 7.2162774,2.80633 31.7556246,68.554633 3e-6,1.87089 -31.9560813,-62.07335 -6.6149197,-2.271792 -34.277315,1.069078 -4.636807,3.541321 z"

      />
    <path data-floor="17" data-flats="10"
       
       d="m -53.168627,70.339837 4.636807,-3.541321 34.277313,-1.069078 6.6149191,2.271792 31.9560809,62.07335 3e-6,3.82871 -32.1279916,-58.680803 -6.4255964,-2.173362 -34.30134,1.511904 -4.630195,3.212798 z"

      />
    <path data-floor="16" data-flats="10"
       
       d="m -53.168627,77.773827 4.630195,-3.212798 34.30134,-1.511906 6.4255964,2.173364 32.1279886,58.680803 3e-6,4.44122 -32.2224876,-55.468006 -6.3311004,-1.795385 -34.30134,1.322916 -4.630195,3.023809 z"

      />
    <path data-floor="15" data-flats="10"
       
       d="m -53.168627,85.427842 4.630195,-3.023809 34.30134,-1.322914 6.3310978,1.795383 32.2224872,55.468008 3e-6,4.91369 -31.7500158,-51.688241 -6.1421142,-2.551341 -34.956173,1.133928 -4.63682,2.929316 z"

      />
    <path data-floor="14" data-flats="10"
       
       d="m -53.168627,93.081862 4.63682,-2.929316 34.956173,-1.13393 6.1421142,2.551343 31.7500128,51.688241 3e-6,4.25223 -31.939005,-48.569937 -6.142112,-2.078868 -34.767186,0.850445 -4.63682,3.2128 z"

      />
    <path data-floor="13" data-flats="10"
       
       d="m -53.168627,100.92487 4.63682,-3.212803 34.767184,-0.850445 6.1421139,2.078869 31.9390021,48.569939 3e-6,4.53572 -31.8445118,-45.92411 -6.2366052,-1.70089 -34.767186,1.13393 -4.63682,2.26785 z"

      />
    <path data-floor="12" data-flats="10"
       
       d="m -53.168627,107.82293 4.63682,-2.26785 34.767184,-1.13393 6.2366046,1.70089 31.8445114,45.92411 v 0 0 l 3e-6,1.03943 -1.889898,-0.23623 -3.496281,-0.42523 -26.4583328,-38.93154 -6.4255942,-1.41741 -34.578197,0.56696 -4.63682,2.36235 z"

      />
    <path data-floor="11" data-flats="10"
       
       d="m -53.168627,115.00448 4.63682,-2.36235 34.578195,-0.56696 6.4255936,1.41741 26.4583334,38.93154 -4.063241,-0.37797 -21.922618,-30.2381 -6.236607,-1.79538 -35.239656,0.94493 -4.63682,2.26786 z"

      />
    <path data-floor="10" data-flats="10"
       
       d="m -53.168627,123.22546 4.63682,-2.26786 35.239656,-0.94493 6.236607,1.79538 21.922615,30.2381 -4.06324,-0.18899 -18.1428575,-22.58408 -5.5751495,-0.94494 -35.617631,0.37798 -4.63682,2.36235 z"

      />
    <path data-floor="9" data-flats="10"
       
       d="m -53.168627,131.06847 4.63682,-2.36235 35.617629,-0.37798 5.5751515,0.94494 18.1428575,22.58408 -5.1971736,-0.66146 -13.0401772,-14.2686 -5.5751492,-1.41741 -35.523138,0.28348 -4.63682,2.26786 z"

      />
    <path data-floor="8" data-flats="10"
       
       d="m -53.168627,138.06103 4.63682,-2.26786 35.523138,-0.28348 5.5751492,1.41741 13.0401746,14.2686 -7.3705322,-0.85045 -5.9531249,-6.04761 -5.0081837,-0.94495 -35.806621,0.85045 -4.63682,2.17336 z"

      />
    <path data-floor="7" data-flats="10"
       
       d="m -53.168627,146.3765 4.63682,-2.17336 35.806621,-0.85045 5.0081837,0.94495 5.9531222,6.04761 26.0803731,2.74033 3e-6,5.95313 -32.8839459,-3.40179 -33.2619031,-2.45684 -6.702454,0.85044 -4.63682,1.03944 z"

      />
    <path data-floor="25" data-flats="10"
       
       d="m 69.673632,56.985147 v -6.556888 l 4.671722,-5.078122 6.815349,-3.340867 25.257017,-7.884451 19.64428,-2.138159 3.33187,5.345393 v 6.147197 l -22.97615,-1.336347 -26.192452,5.479026 -4.810839,2.271792 z"
       id="build_2_25"
   />
    <path data-floor="24" data-flats="10"
       
       d="m 69.673632,56.985147 5.740797,-7.091426 4.810839,-2.271792 26.192452,-5.479026 22.97615,1.336347 v 9.488069 l -22.97615,-0.668173 -25.791555,5.078121 -4.94448,1.737252 -6.008053,5.078121 z"
      />
    <path data-floor="4" data-flats="10"
       
       d="m 69.673632,64.19264 6.008053,-5.078121 4.94448,-1.737252 25.791555,-5.078121 22.97615,0.668173 v 7.349911 l -22.97615,-0.801807 -30.468753,6.548102 -6.275335,5.211757 v -7.082642 0"

      />
    <path data-floor="1" data-flats="10"
       
       d="m 69.673632,71.275282 6.275335,-5.211757 30.468753,-6.548104 22.97615,0.801809 v 6.147199 l -22.97615,-0.400904 -29.800574,5.746295 -6.943514,5.479026 z"

      />
    <path data-floor="1" data-flats="10"
       
       d="m 69.673632,77.288846 6.943514,-5.479026 29.800574,-5.746295 22.97615,0.400902 v 6.147202 l -22.97615,-0.801809 -29.533319,5.612661 -7.210769,5.078122 z"

      />
    <path data-floor="1" data-flats="10"
       
       d="m 69.673632,82.500603 7.210769,-5.078124 29.533319,-5.612659 22.97615,0.801809 v 6.548104 L 106.41772,78.357924 77.151683,83.83695 69.673632,88.6478 Z"

      />
    <path data-floor="1" data-flats="10"
       
       d="m 69.673632,88.6478 7.478051,-4.81085 29.266037,-5.479026 22.97615,0.801809 v 5.746295 l -22.97615,-0.66816 -28.731499,4.944472 -8.012589,5.078121 z"

      />
    <path data-floor="1" data-flats="10"
       
       d="m 69.673632,94.260459 8.012589,-5.078122 28.731499,-4.944469 22.97615,0.66816 v 6.815373 l -22.97615,-0.668174 -28.86514,4.409946 -7.878948,4.677217 z"

      />
    <path data-floor="1" data-flats="10"
       
       d="m 69.673632,100.14039 7.878948,-4.677217 28.86514,-4.409948 22.97615,0.668176 v 6.280832 l -22.97615,-1.069078 -29.66696,4.810855 -7.077128,4.40995 v -6.01357 0 0"

      />
    <path data-floor="1" data-flats="10"
       
       d="m 69.673632,106.15396 7.077128,-4.40995 29.66696,-4.810857 22.97615,1.069078 v 5.211759 l -22.97615,-0.53454 -30.201498,4.81085 -6.54259,4.67722 z"

      />
    <path data-floor="1" data-flats="10"
       
       d="m 69.673632,112.16752 6.54259,-4.67722 30.201498,-4.81085 22.97615,0.53454 v 6.68174 l -22.97615,-0.66818 -30.067857,4.27632 -6.676231,4.14268 z"

      />
    <path data-floor="1" data-flats="10"
       
       d="m 69.673632,117.64655 6.676231,-4.14268 30.067857,-4.27632 22.97615,0.66818 v 6.1472 l -22.97615,-0.66818 -30.201498,4.14268 -6.54259,3.74177 z"

      />
    <path data-floor="1" data-flats="10"
       
       d="m 69.673632,123.2592 6.54259,-3.74177 30.201498,-4.14268 22.97615,0.66818 v 5.87993 l -22.97615,-0.40091 -29.934216,4.00905 -6.809872,3.74177 z"

      />
    <path data-floor="1" data-flats="10"
       
       d="m 69.673632,129.27277 6.809872,-3.74177 29.934216,-4.00905 22.97615,0.40091 v 5.74629 l -22.97615,0.13364 -30.335139,3.74177 -6.408949,3.60814 z"

      />
    <path data-floor="1" data-flats="10"
       
       d="m 69.673632,135.1527 6.408949,-3.60814 30.335139,-3.74177 22.97615,-0.13364 v 6.68174 l -22.97615,-0.40091 -30.468753,3.47451 -6.275335,3.20723 z"

      />
    <path data-floor="1" data-flats="10"
       
       d="m 69.673632,140.63172 6.275335,-3.20723 30.468753,-3.47451 22.97615,0.40091 v 6.01356 l -22.97615,-0.26727 -30.468753,3.34087 -6.275335,2.93997 z"

      />
    <path data-floor="1" data-flats="10"
       
       d="m 69.673632,146.37802 6.275335,-2.93997 30.468753,-3.34087 22.97615,0.26727 v 6.28084 l -22.97615,-0.13364 -30.602394,2.93997 -6.141694,2.93996 z"

      />
    <path data-floor="1" data-flats="10"
       
       d="m 69.673632,152.39158 6.141694,-2.93996 30.602394,-2.93997 22.97615,0.13364 v 6.41447 l -22.97615,-0.40091 -30.335139,2.6727 -6.408949,2.27179 z"

      />
    <path data-floor="1" data-flats="10"
       
       d="m 69.673632,157.60334 6.408949,-2.27179 30.335139,-2.6727 22.97615,0.40091 v 6.5481 l -22.97615,-0.66818 -19.243435,1.46999 z"

      />
    <path data-floor="1" data-flats="10"
       
       d="m 87.174285,160.40967 19.243435,-1.46999 22.97615,0.66818 v 5.7463 l -15.09172,-1.06909 z"

      />
  </g>
</svg>
