<svg
   xmlns:svg="http://www.w3.org/2000/svg"
   xmlns="http://www.w3.org/2000/svg"
   xmlns:xlink="http://www.w3.org/1999/xlink"
   width="479.77777"
   height="264.58334"
   viewBox="0 0 479.77777 264.58334"
   version="1.1">
  <g transform="translate(175.63293,13.696432)">
      <image
         y="-13.696432"
         x="-175.63293"
         id="image823"
         xlink:href="./assets/images/choose-build/genplan.jpg"
         preserveAspectRatio="none"
         height="264.58334"
         width="479.77777" />
      <a href="choose-build.html" data-build="1">
         <path
            d="m -27.182783,171.03945 -4.346725,-2.92932 0.355756,-156.162171 2.939965,-3.2072341 34.477769,-2.6726951 3.6081388,1.6036171 2.6726942,1.8708867 2.138156,3.0735994 31.203717,106.106007 -1.00226,55.99296 -62.674703,-6.5481 z" />
      </a>
      <a href="choose-build.html" data-build="2">
      <path
         d="M 91.369327,179.79322 V 71.549063 l 5.879914,-5.61266 29.666939,-9.888971 20.0452,-1.870887 2.40543,3.474503 0.26726,10.423512 1.0691,0.53454 -0.26728,120.00402 -58.799308,-7.21628 z"/>
      </a>
      <a href="commercial.html">
         <path
            d="m -33.712813,177.92234 6.530028,-6.88289 9.372507,-2.87245 62.674703,6.5481 46.504902,5.07812 0.267255,1.60362 58.799308,7.21628 v 9.6217 l -1.06908,1.87089 v 10.95804 l 4.81084,1.33635 -0.53454,2.13816 -2.67268,1.06908 v 13.63074 l -178.001503,-2.93996 -0.267272,-16.30344 -6.147199,-1.87089 -0.801807,-0.53454 -0.267271,-2.67269 -0.267269,-1.87089 2.138156,-1.33635 5.078121,-0.53454 -0.534537,-13.63074 -5.879931,-2.93997 -0.801809,-3.74177 z" />
      </a>
   </g>
</svg>
