<svg width="58" height="29" viewBox="0 0 58 29" fill="none" xmlns="http://www.w3.org/2000/svg">
<g clip-path="url(#clip0)">
<path d="M12.0977 15.0812C11.3746 16.5033 9.89488 17.4735 8.18156 17.4735C5.76734 17.4735 3.80925 15.5332 3.80925 13.1409C3.80925 10.7487 5.76734 8.80838 8.18156 8.80838C9.88375 8.80838 11.3634 9.77852 12.0866 11.1786L14.7567 9.85569C13.544 7.47444 11.063 5.84283 8.19268 5.84283C4.12077 5.84283 0.827637 9.11705 0.827637 13.1409C0.827637 17.1648 4.12077 20.439 8.19268 20.439C11.0742 20.439 13.5663 18.7965 14.7678 16.4151L12.0977 15.0812Z" fill="#00395A"/>
<path d="M19.8189 5.84283H16.8818V20.406H19.8189V5.84283Z" fill="#00395A"/>
<path d="M55.9233 5.85333L50.6841 11.045L52.7609 13.1029L58.0001 7.91129L55.9233 5.85333Z" fill="#00395A"/>
<path d="M48.5802 13.1296L43.3408 18.3214L45.4177 20.3793L50.657 15.1876L48.5802 13.1296Z" fill="#00395A"/>
<path d="M45.4181 5.85345L43.3413 7.91142L48.5806 13.1031L50.6573 11.0451L45.4181 5.85345Z" fill="#00395A"/>
<path d="M52.76 13.1298L50.6831 15.1878L55.9225 20.3795L57.9993 18.3214L52.76 13.1298Z" fill="#00395A"/>
<path d="M28.6413 2.92144H25.6931V0H22.7559V20.406H25.6931V5.84289H28.6413V2.92144Z" fill="#00395A"/>
<path d="M42.5373 13.1411C42.5373 12.645 42.4817 12.1489 42.3927 11.6748C42.1701 10.5945 41.6918 9.54715 40.9908 8.67624C39.5891 6.87927 37.4642 5.854 35.1834 5.854C31.7011 5.854 28.6639 8.3014 27.9742 11.6748C27.874 12.1599 27.8184 12.645 27.8184 13.1411C27.8184 13.6262 27.8628 14.1112 27.963 14.5742C28.6416 17.9698 31.6789 20.4282 35.1834 20.4282C37.4419 20.4282 39.5335 19.425 40.9352 17.6831L38.7102 15.9743C37.8424 17.0327 36.563 17.639 35.1834 17.639C33.1474 17.639 31.4229 16.3051 30.8445 14.486H42.426C42.4927 14.0561 42.5373 13.5931 42.5373 13.1411ZM35.1723 8.63214C37.2861 8.63214 39.0773 10.0653 39.578 12.0166H30.7666C31.2784 10.0653 33.0585 8.63214 35.1723 8.63214Z" fill="#00395A"/>
<path d="M23.9578 23.416H22.8896V27.3957H23.9911C25.1815 27.3957 25.9046 26.7012 25.9046 25.3894C25.9158 24.0885 25.1927 23.416 23.9578 23.416ZM23.9132 26.8446H23.5906V23.9783H23.9132C24.7365 23.9783 25.2038 24.4192 25.2038 25.4004C25.2038 26.3705 24.7365 26.8446 23.9132 26.8446Z" fill="#00395A"/>
<path d="M27.7839 24.3414C27.0719 24.3414 26.4043 24.9367 26.4043 25.9068C26.4043 26.888 27.0496 27.4723 27.8841 27.4723C28.2734 27.4723 28.6294 27.34 28.9076 27.1526L28.6739 26.7337C28.4515 26.866 28.2289 26.9542 27.9731 26.9542C27.4836 26.9542 27.1275 26.6455 27.0719 26.1053H28.9966C29.0076 26.0282 29.0299 25.8958 29.0299 25.7746C29.0299 24.9257 28.596 24.3414 27.7839 24.3414ZM27.0719 25.6312C27.1387 25.1461 27.4501 24.8706 27.8062 24.8706C28.2289 24.8706 28.4403 25.1571 28.4403 25.6312H27.0719Z" fill="#00395A"/>
<path d="M30.9892 25.9738C30.9001 26.2716 30.8111 26.5691 30.7333 26.8669H30.711C30.622 26.5691 30.5331 26.2604 30.4552 25.9738L29.9657 24.4083H29.2759L30.3327 27.396H31.1227L32.1462 24.4083H31.4899L30.9892 25.9738Z" fill="#00395A"/>
<path d="M33.7594 24.3414C33.0474 24.3414 32.3799 24.9367 32.3799 25.9068C32.3799 26.888 33.0252 27.4723 33.8596 27.4723C34.249 27.4723 34.605 27.34 34.8832 27.1526L34.6495 26.7337C34.4269 26.866 34.2045 26.9542 33.9485 26.9542C33.459 26.9542 33.1031 26.6455 33.0474 26.1053H34.9721C34.9832 26.0282 35.0055 25.8958 35.0055 25.7746C34.9944 24.9257 34.5604 24.3414 33.7594 24.3414ZM33.0364 25.6312C33.1031 25.1461 33.4146 24.8706 33.7706 24.8706C34.1934 24.8706 34.4048 25.1571 34.4048 25.6312H33.0364Z" fill="#00395A"/>
<path d="M36.4515 26.9219C36.3736 26.9219 36.2957 26.8557 36.2957 26.6904V23.1075H35.606V26.6464C35.606 27.1535 35.7839 27.4732 36.2734 27.4732C36.4404 27.4732 36.5516 27.4511 36.6406 27.418L36.5516 26.9109C36.5071 26.9219 36.4848 26.9219 36.4515 26.9219Z" fill="#00395A"/>
<path d="M38.4323 24.3414C37.6869 24.3414 37.0083 24.9147 37.0083 25.9068C37.0083 26.899 37.6869 27.4723 38.4323 27.4723C39.1777 27.4723 39.8563 26.899 39.8563 25.9068C39.8563 24.9147 39.1777 24.3414 38.4323 24.3414ZM38.4323 26.921C37.9872 26.921 37.7091 26.5243 37.7091 25.9178C37.7091 25.3115 37.9872 24.9036 38.4323 24.9036C38.8773 24.9036 39.1554 25.3115 39.1554 25.9178C39.1554 26.5131 38.8773 26.921 38.4323 26.921Z" fill="#00395A"/>
<path d="M42.047 24.3414C41.7131 24.3414 41.3905 24.5178 41.1347 24.7382H41.1124L41.0568 24.4186H40.5005V28.5857H41.1903V27.6377L41.168 27.1416C41.4128 27.351 41.6798 27.4723 41.9468 27.4723C42.6143 27.4723 43.2373 26.877 43.2373 25.8628C43.2373 24.9367 42.8035 24.3414 42.047 24.3414ZM41.8022 26.91C41.6242 26.91 41.4017 26.8439 41.1791 26.6565V25.2453C41.424 25.0139 41.6354 24.9036 41.8578 24.9036C42.325 24.9036 42.5254 25.2675 42.5254 25.8628C42.5364 26.5463 42.2138 26.91 41.8022 26.91Z" fill="#00395A"/>
<path d="M47.2658 24.3414C46.8874 24.3414 46.587 24.5728 46.2978 24.8816C46.1644 24.5398 45.9084 24.3414 45.4634 24.3414C45.0851 24.3414 44.7958 24.5618 44.5399 24.8264H44.5176L44.462 24.4186H43.9058V27.4061H44.5955V25.3115C44.8292 25.0579 45.0518 24.9257 45.2409 24.9257C45.5635 24.9257 45.7193 25.1131 45.7193 25.6092V27.3951H46.409V25.3005C46.6427 25.0469 46.8541 24.9147 47.0544 24.9147C47.377 24.9147 47.5328 25.1021 47.5328 25.5982V27.3841H48.2226V25.51C48.1891 24.7714 47.8887 24.3414 47.2658 24.3414Z" fill="#00395A"/>
<path d="M50.1906 24.3414C49.4787 24.3414 48.811 24.9367 48.811 25.9068C48.811 26.888 49.4564 27.4723 50.2908 27.4723C50.6801 27.4723 51.0362 27.34 51.3143 27.1526L51.0806 26.7337C50.8581 26.866 50.6357 26.9542 50.3797 26.9542C49.8792 26.9542 49.5343 26.6455 49.4787 26.1053H51.4034C51.4144 26.0282 51.4367 25.8958 51.4367 25.7746C51.4255 24.9257 50.9917 24.3414 50.1906 24.3414ZM49.4675 25.6312C49.5343 25.1461 49.8457 24.8706 50.2018 24.8706C50.6245 24.8706 50.8359 25.1571 50.8359 25.6312H49.4675Z" fill="#00395A"/>
<path d="M53.6742 24.3414C53.2626 24.3414 52.951 24.5618 52.684 24.8154H52.6617L52.6061 24.4076H52.0498V27.3951H52.7396V25.3005C52.9954 25.0469 53.1735 24.9147 53.4405 24.9147C53.7743 24.9147 53.9189 25.1021 53.9189 25.5982V27.3841H54.6087V25.51C54.5975 24.7714 54.3194 24.3414 53.6742 24.3414Z" fill="#00395A"/>
<path d="M56.6333 26.9323C56.333 26.9323 56.1995 26.7559 56.1995 26.4032V24.959H56.9672V24.4187H56.1995V23.603H55.6321L55.5542 24.4187L55.0869 24.4519V24.959H55.5209V26.4032C55.5209 27.0425 55.7767 27.4726 56.4665 27.4726C56.7002 27.4726 56.9114 27.4174 57.0784 27.3622L56.956 26.8661C56.8558 26.8993 56.7335 26.9323 56.6333 26.9323Z" fill="#00395A"/>
</g>
<defs>
<clipPath id="clip0">
<rect width="57.1721" height="28.5861" fill="white" transform="translate(0.828125)"/>
</clipPath>
</defs>
</svg>
