<svg width="150" height="26" viewBox="0 0 150 26" fill="none" xmlns="http://www.w3.org/2000/svg">
<g clip-path="url(#clip0)">
<path d="M53.2661 16.2136C53.4633 16.2397 53.6357 16.2554 53.7833 16.2607C53.9311 16.2659 54.1036 16.2687 54.3007 16.2687C54.7516 16.2687 55.1784 16.2007 55.5802 16.0643C55.9821 15.928 56.3319 15.7304 56.6303 15.4709C56.9284 15.2115 57.1645 14.896 57.3382 14.5239C57.5119 14.1518 57.5989 13.7302 57.5989 13.2586C57.5989 12.7505 57.5183 12.3184 57.3577 11.962C57.1967 11.6056 56.9713 11.3163 56.6808 11.0934C56.3903 10.8709 56.0429 10.71 55.6386 10.6102C55.234 10.5105 54.7881 10.4607 54.3007 10.4607C54.0154 10.4607 53.8015 10.5065 53.6589 10.5982C53.5162 10.6903 53.4152 10.8198 53.3556 10.9873C53.296 11.155 53.2661 11.3554 53.2661 11.5887V12.3707V16.2136ZM53.8341 16.8904H53.5889C53.4776 16.8904 53.3699 16.8879 53.2661 16.8824V19.2169C53.2661 19.5114 53.2622 19.7641 53.2543 19.9743C53.2467 20.1845 53.2324 20.3581 53.2117 20.4947L54.6816 20.4159V21.1321H50.7769V20.6049C51.0777 20.5945 51.3034 20.5394 51.4537 20.4396C51.604 20.3399 51.7105 20.2033 51.7725 20.0303C51.8349 19.8567 51.8671 19.6505 51.8699 19.4117C51.8723 19.1728 51.8738 18.9115 51.8738 18.6278V11.6579C51.8738 11.4372 51.8778 11.2286 51.8854 11.0319C51.8933 10.8349 51.9076 10.6549 51.9283 10.4924L50.7769 10.5631V9.84695C51.3372 9.83649 51.9127 9.82972 52.5038 9.82726C53.0949 9.8248 53.7042 9.82326 54.3318 9.82326C55.8771 9.82326 57.0516 10.0858 57.8553 10.6102C58.7162 11.1821 59.1467 12.0189 59.1467 13.1208C59.1467 13.3464 59.122 13.5957 59.0728 13.8683C59.0235 14.1413 58.9237 14.423 58.7731 14.7144C58.6228 15.0056 58.4166 15.2838 58.155 15.5485C57.8931 15.8135 57.5636 16.0443 57.1669 16.2413C56.7702 16.438 56.2972 16.5952 55.7475 16.7134C55.1978 16.8313 54.5599 16.8904 53.8341 16.8904Z" fill="#00395A"/>
<path d="M63.1932 13.4511C62.5708 13.4511 62.0576 13.6355 61.6534 14.0042C61.2488 14.3729 60.9814 14.9703 60.8521 15.7964H64.9123C64.9123 15.5141 64.8813 15.2331 64.8189 14.9531C64.7568 14.6733 64.6568 14.4225 64.5196 14.2002C64.3821 13.9783 64.2044 13.7977 63.9866 13.6592C63.7688 13.5204 63.5044 13.4511 63.1932 13.4511ZM66.4135 16.3787L60.8052 16.4732C60.8001 17.0936 60.8466 17.6559 60.9455 18.1607C61.0437 18.6651 61.1995 19.0963 61.4121 19.454C61.6248 19.8113 61.8982 20.0874 62.2326 20.2819C62.5672 20.4761 62.9678 20.5733 63.4345 20.5733C63.6833 20.5733 63.9373 20.5392 64.1968 20.4705C64.456 20.4019 64.7063 20.3084 64.9473 20.1896C65.1885 20.0708 65.4103 19.9283 65.6126 19.7621C65.8145 19.5959 65.9831 19.418 66.1181 19.2278L66.5069 19.5503C66.2891 19.8861 66.0363 20.1708 65.7485 20.4041C65.4608 20.6377 65.1623 20.8282 64.8539 20.9747C64.5454 21.1218 64.2357 21.228 63.9245 21.2935C63.6133 21.3591 63.3228 21.392 63.0533 21.392C62.5036 21.392 61.9916 21.292 61.5171 21.0929C61.0425 20.8934 60.6315 20.6075 60.2841 20.2351C59.9367 19.8627 59.663 19.414 59.4634 18.8892C59.2638 18.3648 59.1641 17.7744 59.1641 17.1186C59.1641 16.5517 59.2599 16.0103 59.4518 15.4935C59.6435 14.9768 59.9157 14.5188 60.2686 14.1202C60.6212 13.7217 61.0437 13.404 61.5365 13.168C62.029 12.9319 62.5763 12.8137 63.1777 12.8137C63.6185 12.8137 64.0347 12.8873 64.4262 13.0341C64.8177 13.1812 65.1611 13.4016 65.4568 13.6952C65.7525 13.9891 65.9858 14.3603 66.1568 14.8087C66.328 15.2575 66.4135 15.7807 66.4135 16.3787Z" fill="#00395A"/>
<path d="M71.8089 13.6953C71.6067 13.6901 71.4016 13.7279 71.1945 13.8092C70.987 13.8907 70.7835 14.0102 70.5839 14.1674C70.3841 14.3247 70.1961 14.5137 70.0199 14.7341C69.8435 14.9544 69.6853 15.1985 69.5454 15.4659L69.5609 19.4245C69.5609 19.6397 69.5585 19.8296 69.5533 19.9949C69.5481 20.1604 69.5299 20.3349 69.4988 20.5184L70.5021 20.4713V21.1321H67.2353V20.6523C67.4789 20.6523 67.6642 20.6036 67.7913 20.5067C67.9185 20.4097 68.0104 20.2746 68.0676 20.1013C68.1244 19.9281 68.157 19.7209 68.1649 19.4793C68.1725 19.2383 68.1765 18.9733 68.1765 18.6847V15.0015C68.1765 14.8338 68.1789 14.6645 68.1841 14.4943C68.1892 14.3235 68.2075 14.1465 68.2385 13.9628L67.1108 14.0102V13.3488H67.6009C67.8288 13.3488 68.0183 13.3374 68.1686 13.3134C68.3188 13.29 68.4448 13.257 68.5458 13.2152C68.6471 13.1733 68.7313 13.1275 68.7989 13.0776C68.8661 13.0277 68.9309 12.9739 68.9932 12.9163H69.452C69.4678 13.0841 69.4818 13.2927 69.4949 13.5417C69.5077 13.791 69.5192 14.1123 69.5299 14.5057C69.6491 14.3066 69.8021 14.1059 69.9886 13.9037C70.1754 13.7018 70.3856 13.5208 70.6189 13.3608C70.8522 13.2007 71.1038 13.0696 71.3733 12.9674C71.6429 12.8649 71.9203 12.8138 72.2056 12.8138C72.3507 12.8138 72.4922 12.8335 72.6297 12.8729C72.7669 12.9123 72.8861 12.9739 72.9874 13.0579C73.0884 13.1419 73.1703 13.2466 73.2323 13.3725C73.2947 13.4986 73.3257 13.6507 73.3257 13.8292C73.3257 13.9024 73.3114 13.9837 73.2831 14.073C73.2545 14.1622 73.2077 14.2462 73.1432 14.3247C73.0781 14.4035 72.9966 14.4694 72.898 14.5217C72.7994 14.574 72.6774 14.6002 72.5323 14.6002C72.4131 14.6002 72.3054 14.574 72.2096 14.5217C72.1135 14.4694 72.0331 14.4023 71.9683 14.3207C71.9036 14.2395 71.8567 14.1453 71.8284 14.0376C71.7998 13.9298 71.7934 13.816 71.8089 13.6953Z" fill="#00395A"/>
<path d="M78.7487 9.74472C78.6711 9.63977 78.5658 9.56621 78.4335 9.52404C78.3015 9.48219 78.1783 9.46126 78.0642 9.46126C77.8154 9.46126 77.6103 9.51789 77.4497 9.63053C77.2888 9.74349 77.1619 9.89153 77.0685 10.075C76.9752 10.2587 76.9091 10.4646 76.8702 10.693C76.8313 10.9213 76.8118 11.1506 76.8118 11.3815V13.0733H78.9589V13.703L76.8118 13.7424L76.8273 19.4245C76.8273 19.6397 76.8249 19.8296 76.8197 19.9949C76.8145 20.1604 76.7935 20.3349 76.7573 20.5184L77.7609 20.4713V21.1321H74.5172V20.6523C74.7609 20.6523 74.9461 20.6036 75.0733 20.5064C75.2004 20.4097 75.2926 20.2743 75.3495 20.1013C75.4067 19.9281 75.4377 19.7209 75.4429 19.4793C75.4481 19.2383 75.4508 18.9733 75.4508 18.6847L75.435 13.7741L74.1284 13.7975V13.0733H75.435V12.7351C75.435 12.1371 75.4855 11.6006 75.5868 11.1257C75.6878 10.6511 75.8523 10.2482 76.0808 9.91769C76.3089 9.58714 76.6058 9.33291 76.9715 9.1544C77.3368 8.9759 77.7816 8.88664 78.3054 8.88664C78.4764 8.88664 78.662 8.90911 78.8615 8.95374C79.0611 8.99836 79.2451 9.06915 79.4136 9.1661C79.5822 9.26336 79.7236 9.38677 79.8377 9.53605C79.9518 9.68562 80.0087 9.86536 80.0087 10.075C80.0087 10.2904 79.9466 10.4661 79.8222 10.6025C79.6978 10.7388 79.5393 10.8072 79.3476 10.8072C79.2129 10.8072 79.104 10.7847 79.0209 10.7401C78.9379 10.6954 78.8691 10.6391 78.815 10.5708C78.7605 10.5028 78.7216 10.4292 78.6982 10.3504C78.6747 10.2716 78.6632 10.2011 78.6632 10.1381C78.6632 10.075 78.6696 10.0109 78.6826 9.94539C78.6954 9.87952 78.7176 9.81274 78.7487 9.74472Z" fill="#00395A"/>
<path d="M83.4379 13.4511C82.8155 13.4511 82.3023 13.6355 81.8977 14.0042C81.4934 14.3729 81.226 14.9703 81.0964 15.7964H85.1569C85.1569 15.5141 85.1259 15.2331 85.0635 14.9531C85.0012 14.6733 84.9014 14.4225 84.7642 14.2002C84.6267 13.9783 84.449 13.7977 84.2312 13.6592C84.0134 13.5204 83.7491 13.4511 83.4379 13.4511ZM86.6581 16.3787L81.0499 16.4732C81.0447 17.0936 81.0912 17.6559 81.1898 18.1607C81.2884 18.6651 81.4438 19.0963 81.6564 19.454C81.8691 19.8113 82.1429 20.0874 82.4772 20.2819C82.8118 20.4761 83.2124 20.5733 83.6791 20.5733C83.9279 20.5733 84.1819 20.5392 84.4411 20.4705C84.7006 20.4019 84.951 20.3084 85.1919 20.1896C85.4331 20.0708 85.6546 19.9283 85.8569 19.7621C86.0592 19.5959 86.2277 19.418 86.3625 19.2278L86.7515 19.5503C86.5337 19.8861 86.2809 20.1708 85.9932 20.4041C85.7054 20.6377 85.407 20.8282 85.0985 20.9747C84.79 21.1218 84.4801 21.228 84.1692 21.2935C83.858 21.3591 83.5674 21.392 83.2979 21.392C82.7482 21.392 82.2363 21.292 81.7617 21.0929C81.2871 20.8934 80.8759 20.6075 80.5288 20.2351C80.1811 19.8627 79.9076 19.414 79.708 18.8892C79.5085 18.3648 79.4087 17.7744 79.4087 17.1186C79.4087 16.5517 79.5045 16.0103 79.6965 15.4935C79.8881 14.9768 80.1604 14.5188 80.5133 14.1202C80.8658 13.7217 81.2884 13.404 81.7812 13.168C82.2737 12.9319 82.8206 12.8137 83.4223 12.8137C83.8631 12.8137 84.279 12.8873 84.6708 13.0341C85.0623 13.1812 85.4057 13.4016 85.7014 13.6952C85.9968 13.9891 86.2304 14.3603 86.4014 14.8087C86.5727 15.2575 86.6581 15.7807 86.6581 16.3787Z" fill="#00395A"/>
<path d="M93.2197 14.3073C93.147 14.1183 93.0408 13.9675 92.9009 13.8546C92.761 13.7419 92.6092 13.6542 92.4458 13.5911C92.2825 13.5283 92.1191 13.4877 91.9557 13.4692C91.7924 13.4508 91.6564 13.4415 91.5475 13.4415C91.1843 13.4415 90.846 13.5163 90.5324 13.6656C90.2184 13.8155 89.9477 14.0346 89.7192 14.323C89.4911 14.6117 89.311 14.9712 89.1787 15.4011C89.0467 15.8314 88.9803 16.3244 88.9803 16.8806C88.9803 17.4158 89.0467 17.9104 89.1787 18.3641C89.311 18.818 89.4966 19.2089 89.7351 19.5367C89.9736 19.8648 90.2613 20.1205 90.5984 20.304C90.9354 20.4877 91.3087 20.5794 91.7185 20.5794C91.9676 20.5794 92.2137 20.544 92.4577 20.4733C92.7013 20.4025 92.9319 20.304 93.1497 20.1781C93.3676 20.0522 93.5686 19.9054 93.7527 19.7374C93.9367 19.5693 94.0937 19.3883 94.2233 19.1944L94.6355 19.517C94.4228 19.8528 94.1804 20.1402 93.9081 20.3788C93.6359 20.6176 93.3505 20.8143 93.0527 20.9691C92.7543 21.1239 92.4537 21.2378 92.1504 21.3113C91.8468 21.3849 91.5603 21.4215 91.2908 21.4215C90.7514 21.4215 90.2431 21.3283 89.7661 21.142C89.2891 20.9558 88.8717 20.6856 88.5137 20.3317C88.1559 19.9774 87.8733 19.5435 87.6659 19.0289C87.4584 18.5152 87.355 17.9301 87.355 17.2742C87.355 16.9015 87.4003 16.5344 87.491 16.1724C87.5816 15.8105 87.7127 15.4654 87.8837 15.1377C88.055 14.8096 88.2624 14.5052 88.5061 14.2245C88.7498 13.9438 89.026 13.7013 89.3344 13.4966C89.6429 13.2919 89.9803 13.1319 90.3456 13.0165C90.7113 12.9014 91.0988 12.8435 91.5086 12.8435C91.9494 12.8435 92.3512 12.8986 92.7141 13.0088C93.077 13.119 93.3882 13.2658 93.6477 13.4495C93.9069 13.633 94.1065 13.8441 94.2467 14.0829C94.3866 14.3218 94.4566 14.5723 94.4566 14.8345C94.4566 15.0653 94.393 15.2632 94.2662 15.4285C94.1387 15.5941 93.9559 15.6794 93.7177 15.6843C93.5775 15.6898 93.4609 15.6673 93.3676 15.6175C93.2742 15.5676 93.199 15.5061 93.1421 15.4325C93.0849 15.3593 93.0433 15.2792 93.0174 15.1925C92.9916 15.106 92.9788 15.0287 92.9788 14.9604C92.9788 14.8554 92.9955 14.7453 93.0293 14.6298C93.063 14.5144 93.1266 14.407 93.2197 14.3073Z" fill="#00395A"/>
<path d="M95.1387 13.0735C95.4188 13.0686 95.6728 12.9907 95.901 12.8414C96.1292 12.6918 96.3302 12.5056 96.5039 12.2825C96.6776 12.0597 96.8239 11.8171 96.9432 11.5546C97.0624 11.2924 97.1558 11.0459 97.2234 10.8147H97.7679C97.7679 11.245 97.7667 11.6466 97.7639 12.0187C97.7612 12.3918 97.76 12.7432 97.76 13.0735H100.444V13.7032L97.76 13.7346C97.7548 14.4323 97.7524 15.0279 97.7524 15.5209C97.7524 16.0143 97.7509 16.4261 97.7484 16.7566C97.7457 17.0872 97.7445 17.3482 97.7445 17.5396C97.7445 17.731 97.7432 17.8769 97.7405 17.9763C97.7378 18.0761 97.7366 18.1404 97.7366 18.169V18.2204C97.7366 18.5879 97.756 18.9117 97.795 19.1924C97.8339 19.4731 97.8999 19.7091 97.9936 19.9006C98.0867 20.092 98.2099 20.2363 98.3629 20.3336C98.5159 20.4305 98.7091 20.4792 98.9424 20.4792C99.2171 20.4792 99.4894 20.3951 99.7589 20.2271C100.029 20.0594 100.267 19.8208 100.475 19.5109L100.902 19.8652C100.669 20.2222 100.437 20.5013 100.206 20.7032C99.9755 20.9054 99.7565 21.0575 99.5493 21.1597C99.3415 21.2621 99.1484 21.3262 98.9698 21.3523C98.7906 21.3788 98.6336 21.392 98.4989 21.392C98.3383 21.392 98.1734 21.3788 98.0052 21.3523C97.8366 21.3262 97.6705 21.2751 97.5072 21.1991C97.3438 21.123 97.1908 21.0153 97.0481 20.8765C96.9055 20.7374 96.7798 20.5577 96.6712 20.3376C96.562 20.1169 96.4766 19.8495 96.4145 19.5346C96.3521 19.2198 96.3235 18.8473 96.3287 18.4171L96.36 13.7583L95.1387 13.7663V13.0735Z" fill="#00395A"/>
<path d="M32.1886 13.6097C31.8327 13.6097 31.5437 13.3176 31.5437 12.9572C31.5437 12.5974 31.8327 12.305 32.1886 12.305C32.5448 12.305 32.8335 12.5974 32.8335 12.9572C32.8335 13.3176 32.5448 13.6097 32.1886 13.6097Z" fill="#00395A"/>
<path d="M13.4306 13.6097C13.0746 13.6097 12.7856 13.3176 12.7856 12.9572C12.7856 12.5974 13.0746 12.305 13.4306 12.305C13.7865 12.305 14.0755 12.5974 14.0755 12.9572C14.0755 13.3176 13.7865 13.6097 13.4306 13.6097Z" fill="#00395A"/>
<path d="M22.8099 12.4191C22.454 12.4191 22.165 12.1273 22.165 11.7666C22.165 11.4068 22.454 11.1144 22.8099 11.1144C23.1662 11.1144 23.4549 11.4068 23.4549 11.7666C23.4549 12.1273 23.1662 12.4191 22.8099 12.4191Z" fill="#00395A"/>
<path d="M37.4358 16.2628C37.4358 16.2628 36 15.6457 33.4368 14.9686C30.5566 14.2075 26.4705 13.8736 22.8098 13.8668C19.149 13.8736 15.0879 14.3177 12.1827 14.9686C9.78015 15.5066 8.1837 16.2628 8.1837 16.2628L5.29925 13.1761C5.29925 13.1761 8.44045 13.6153 10.0107 12.9573C11.581 12.2993 12.3303 9.39204 12.3303 9.39204C12.3303 9.39204 15.821 12.11 17.8744 11.9854C19.9281 11.8598 22.8098 7.89287 22.8098 7.89287C22.8098 7.89287 25.6915 11.8598 27.7451 11.9854C29.7985 12.11 33.2895 9.39204 33.2895 9.39204C33.2895 9.39204 34.0388 12.2993 35.6088 12.9573C37.1794 13.6153 40.3203 13.1761 40.3203 13.1761L37.4358 16.2628ZM36.6321 17.8925C36.4548 18.4942 36.1758 21.8883 35.8521 22.6636C35.0594 22.0173 29.4149 20.5809 22.828 20.5809C22.8219 20.5809 22.8162 20.5812 22.8098 20.5812C22.8034 20.5812 22.7976 20.5809 22.7912 20.5809C16.2046 20.5809 10.5601 22.0173 9.76738 22.6636C9.44401 21.8883 9.18939 18.4859 8.9874 17.8925C8.89158 17.6109 9.0668 17.3619 9.0668 17.3619C9.97971 16.1065 15.734 14.6208 22.7149 14.6208H22.9047C29.8858 14.6208 35.6398 16.1065 36.5527 17.3619C36.5527 17.3619 36.707 17.6386 36.6321 17.8925ZM22.8934 24.867C22.8651 24.867 22.8381 24.8667 22.8098 24.8667C22.7815 24.8667 22.7544 24.867 22.7261 24.867C16.3032 24.867 11.4828 24.0329 10.4692 23.4924C11.1007 22.8821 16.1283 21.5953 22.7261 21.5953C22.7544 21.5953 22.7818 21.5959 22.8098 21.5959C22.8377 21.5959 22.8654 21.5953 22.8934 21.5953C29.4913 21.5953 34.5188 22.8821 35.1504 23.4924C34.1371 24.0329 29.3164 24.867 22.8934 24.867ZM45.4704 9.75429C45.3183 9.54716 43.2662 10.0251 42.6569 9.92911C42.1488 9.74321 41.862 9.16367 41.4087 9.14828C40.8088 9.12766 40.3677 9.52808 40.3677 10.1125C40.3677 10.1833 40.3756 10.252 40.389 10.3191C40.0027 11.3898 38.2334 12.295 37.1049 12.1186C35.4351 11.8576 35.088 10.517 34.7801 9.40404C34.6323 8.86821 35.4576 9.01594 35.5832 8.25297C35.6861 7.62511 35.3347 7.11451 34.5237 6.88983C34.9353 6.7658 35.2328 6.43094 35.2328 6.0336C35.2328 5.53101 35.1397 4.86867 34.4315 4.73325C33.7884 4.61107 33.1228 5.53101 33.1228 6.0336C33.1228 6.33984 33.2999 6.61006 33.5688 6.77472C32.3505 6.79965 31.4318 7.17852 31.527 7.97443C31.562 8.26343 31.7643 8.49395 31.6815 8.70478C31.5982 8.91561 29.5844 10.7244 28.258 10.7244C26.8176 10.7244 24.784 8.89098 24.6249 8.20895C24.5927 8.20803 25.5217 7.68512 25.5896 7.13667C25.7137 6.12963 24.8291 5.33926 23.7726 5.03918C23.8836 4.86313 23.949 4.65292 23.949 4.42578C23.949 3.8127 23.4468 2.56344 22.8642 2.56344C22.846 2.56344 22.828 2.56775 22.8098 2.57021C22.7915 2.56775 22.7736 2.56344 22.755 2.56344C22.1725 2.56344 21.6705 3.8127 21.6705 4.42578C21.6705 4.65292 21.7359 4.86313 21.8473 5.03918C20.7902 5.33926 19.9055 6.12963 20.03 7.13667C20.0978 7.68512 21.0265 8.20803 20.9946 8.20895C20.8355 8.89098 18.8022 10.7244 17.3615 10.7244C16.0352 10.7244 14.0213 8.91561 13.9383 8.70478C13.855 8.49395 14.0575 8.26343 14.0922 7.97443C14.1874 7.17852 13.2691 6.79965 12.0507 6.77472C12.3199 6.61006 12.4967 6.33984 12.4967 6.0336C12.4967 5.53101 11.8311 4.61107 11.188 4.73325C10.4798 4.86867 10.3867 5.53101 10.3867 6.0336C10.3867 6.43094 10.6839 6.7658 11.0958 6.88983C10.2848 7.11451 9.93317 7.62511 10.0363 8.25297C10.1616 9.01594 10.9872 8.86821 10.8394 9.40404C10.5315 10.517 10.1844 11.8576 8.51467 12.1186C7.38608 12.295 5.61684 11.3898 5.2305 10.3191C5.24389 10.252 5.25149 10.1833 5.25149 10.1125C5.25149 9.52808 4.8107 9.12766 4.21081 9.14828C3.75755 9.16367 3.47069 9.74321 2.96267 9.92911C2.35335 10.0251 0.301201 9.54716 0.149404 9.75429C0.149404 9.75429 0.012207 9.90387 0.012207 10.119C0.012207 10.2874 7.43719 16.5023 8.00604 17.2689C8.55756 18.0128 9.24233 22.6294 9.54896 23.5829C9.56448 23.6943 9.60737 23.8027 9.68311 23.8996C10.5273 24.9759 17.1084 25.6989 22.7261 25.6989C22.7541 25.6989 22.7821 25.6986 22.8098 25.6986C22.8377 25.6986 22.8654 25.6989 22.8934 25.6989C28.5111 25.6989 35.0926 24.9759 35.9361 23.8996C36.0122 23.8027 36.0554 23.6943 36.0703 23.5829C36.3772 22.6294 37.062 18.0128 37.6135 17.2689C38.1823 16.5023 45.607 10.2874 45.607 10.119C45.607 9.90387 45.4704 9.75429 45.4704 9.75429Z" fill="#00395A"/>
<path d="M22.8095 15.5207C21.8422 15.5207 21.0576 16.437 21.0576 17.5659C21.0576 18.6954 21.8422 19.6111 22.8095 19.6111C23.7772 19.6111 24.5614 18.6954 24.5614 17.5659C24.5614 16.437 23.7772 15.5207 22.8095 15.5207Z" fill="#00395A"/>
<path d="M30.6126 20.4867C31.4133 20.7147 32.28 20.1195 32.5477 19.1568C32.8154 18.1937 32.3831 17.2273 31.5824 17.0002C30.7809 16.7728 29.9145 17.368 29.6465 18.331C29.3785 19.2937 29.8114 20.2589 30.6126 20.4867Z" fill="#00395A"/>
<path d="M15.0069 20.4867C14.2062 20.7147 13.3395 20.1195 13.0718 19.1568C12.8038 18.1937 13.2364 17.2273 14.0371 17.0002C14.8386 16.7728 15.7047 17.368 15.9727 18.331C16.241 19.2937 15.8081 20.2589 15.0069 20.4867Z" fill="#00395A"/>
<path d="M116.104 20.5795H115.669C115.492 20.5795 115.259 20.6109 114.969 20.674C114.678 20.737 114.339 20.8445 113.949 20.9965C113.784 21.0596 113.602 21.1171 113.405 21.1695C113.208 21.2221 113.007 21.2667 112.802 21.3034C112.597 21.34 112.394 21.3689 112.192 21.3901C111.99 21.4111 111.8 21.4215 111.624 21.4215C110.825 21.4215 110.094 21.2917 109.43 21.0322C108.766 20.7724 108.196 20.3997 107.719 19.9144C107.242 19.4293 106.871 18.8362 106.607 18.136C106.342 17.4355 106.21 16.6446 106.21 15.7631C106.21 15.2596 106.26 14.7573 106.362 14.2562C106.463 13.7549 106.616 13.2775 106.82 12.8238C107.025 12.3702 107.281 11.9476 107.587 11.5567C107.893 11.1659 108.252 10.8264 108.664 10.5377C109.076 10.249 109.54 10.0234 110.057 9.86089C110.572 9.69808 111.139 9.61683 111.756 9.61683C112.041 9.61683 112.332 9.63776 112.627 9.67992C112.923 9.72209 113.213 9.78087 113.498 9.85689C113.784 9.93291 114.058 10.0259 114.323 10.136C114.587 10.2462 114.831 10.3696 115.054 10.506L114.984 9.73471H115.863V13.4259H115.287C115.251 12.9208 115.14 12.4711 114.953 12.0769C114.766 11.6823 114.521 11.3508 114.218 11.0828C113.915 10.8147 113.562 10.6094 113.16 10.4672C112.758 10.3253 112.327 10.2542 111.865 10.2542C111.3 10.2542 110.768 10.3816 110.27 10.6365C109.772 10.891 109.34 11.2453 108.971 11.6995C108.603 12.1538 108.311 12.6946 108.096 13.3218C107.881 13.9494 107.774 14.6385 107.774 15.3891C107.774 16.1506 107.877 16.8529 108.084 17.4962C108.292 18.1394 108.584 18.6931 108.96 19.1579C109.336 19.6226 109.786 19.9861 110.309 20.2486C110.833 20.5111 111.408 20.6423 112.036 20.6423C112.248 20.6423 112.472 20.6266 112.705 20.5952C112.938 20.5638 113.173 20.5164 113.409 20.4536C113.645 20.3905 113.878 20.3077 114.109 20.2055C114.34 20.1033 114.559 19.9815 114.766 19.8396V16.314L113.646 16.3771V15.6689H117.248V16.1958C117.051 16.1958 116.884 16.234 116.75 16.31C116.615 16.386 116.506 16.4833 116.423 16.6015C116.34 16.7194 116.277 16.8505 116.233 16.9948C116.188 17.1392 116.157 17.282 116.139 17.4235C116.121 17.5651 116.111 17.6978 116.108 17.8209C116.105 17.9443 116.104 18.0428 116.104 18.1163V20.5795Z" fill="#00395A"/>
<path d="M122.567 13.7249C122.364 13.7197 122.159 13.7575 121.952 13.8388C121.745 13.9204 121.541 14.0398 121.341 14.197C121.142 14.3543 120.954 14.5433 120.778 14.7637C120.601 14.984 120.443 15.2281 120.303 15.4959L120.319 19.4541C120.319 19.6693 120.316 19.8592 120.311 20.0248C120.305 20.19 120.287 20.3645 120.256 20.548L121.26 20.5009V21.162H117.993V20.6819C118.236 20.6819 118.422 20.6332 118.549 20.5363C118.676 20.4393 118.768 20.3042 118.825 20.1309C118.882 19.958 118.915 19.7505 118.922 19.5092C118.93 19.2679 118.934 19.0029 118.934 18.7143V15.0311C118.934 14.8634 118.937 14.6944 118.942 14.5236C118.947 14.3531 118.965 14.1761 118.996 13.9924L117.868 14.0398V13.3787H118.359C118.586 13.3787 118.776 13.367 118.926 13.3433C119.076 13.3196 119.202 13.287 119.303 13.2451C119.404 13.2029 119.489 13.1571 119.556 13.1069C119.623 13.0574 119.689 13.0035 119.751 12.9459H120.21C120.225 13.1137 120.239 13.3223 120.252 13.5713C120.265 13.8206 120.277 14.1419 120.287 14.5353C120.407 14.3362 120.559 14.1355 120.746 13.9333C120.933 13.7314 121.143 13.5504 121.376 13.3904C121.61 13.2306 121.861 13.0992 122.131 12.997C122.4 12.8945 122.678 12.8434 122.963 12.8434C123.108 12.8434 123.25 12.8631 123.387 12.9025C123.525 12.9419 123.644 13.0035 123.745 13.0875C123.846 13.1715 123.928 13.2762 123.99 13.4021C124.052 13.5282 124.083 13.6803 124.083 13.8588C124.083 13.9324 124.069 14.0133 124.04 14.1029C124.012 14.1921 123.965 14.2758 123.901 14.3543C123.835 14.4331 123.754 14.499 123.656 14.5513C123.557 14.6036 123.435 14.6298 123.29 14.6298C123.17 14.6298 123.063 14.6036 122.967 14.5513C122.871 14.499 122.791 14.4319 122.726 14.3503C122.661 14.2691 122.614 14.1749 122.586 14.0672C122.557 13.9597 122.551 13.8456 122.567 13.7249Z" fill="#00395A"/>
<path d="M127.835 13.4574C127.414 13.4574 127.055 13.5519 126.757 13.7408C126.459 13.9301 126.214 14.1822 126.022 14.4973C125.83 14.8125 125.689 15.1748 125.598 15.5847C125.507 15.994 125.462 16.4194 125.462 16.8607C125.462 17.36 125.513 17.8456 125.614 18.3184C125.715 18.7908 125.869 19.2097 126.077 19.575C126.284 19.9397 126.544 20.2324 126.858 20.4531C127.172 20.6738 127.539 20.784 127.959 20.784C128.379 20.784 128.733 20.6882 129.021 20.4968C129.309 20.3047 129.542 20.0514 129.721 19.7363C129.9 19.4211 130.028 19.0613 130.106 18.6569C130.184 18.2525 130.223 17.8376 130.223 17.412C130.223 16.9291 130.178 16.4511 130.09 15.9784C130.002 15.5056 129.862 15.0827 129.67 14.71C129.479 14.337 129.231 14.0351 128.928 13.8039C128.624 13.5728 128.26 13.4574 127.835 13.4574ZM127.835 12.8437C128.395 12.8437 128.918 12.9471 129.406 13.1542C129.893 13.3616 130.317 13.6476 130.678 14.0123C131.038 14.3767 131.323 14.8097 131.533 15.3108C131.743 15.8118 131.848 16.3532 131.848 16.9358C131.848 17.5603 131.746 18.1451 131.541 18.6908C131.336 19.2365 131.054 19.7114 130.693 20.1152C130.333 20.5193 129.907 20.8378 129.418 21.0714C128.928 21.3047 128.4 21.4217 127.835 21.4217C127.275 21.4217 126.752 21.3204 126.267 21.1185C125.782 20.9166 125.36 20.6347 124.999 20.2724C124.639 19.9105 124.355 19.479 124.148 18.9779C123.94 18.4769 123.836 17.9272 123.836 17.3292C123.836 16.6945 123.939 16.103 124.144 15.5545C124.348 15.0064 124.63 14.5315 124.988 14.1302C125.345 13.7288 125.768 13.414 126.255 13.1856C126.743 12.9575 127.269 12.8437 127.835 12.8437Z" fill="#00395A"/>
<path d="M138.519 15.2215C138.519 14.9587 138.524 14.7343 138.535 14.5478C138.545 14.3613 138.566 14.1763 138.597 13.9923L137.453 14.0397V13.3786H137.943C138.171 13.3786 138.366 13.3669 138.527 13.3432C138.687 13.3195 138.824 13.2869 138.939 13.245C139.053 13.2028 139.147 13.157 139.223 13.1071C139.298 13.0573 139.367 13.0034 139.429 12.9458H139.888L139.872 19.037C139.872 19.1207 139.871 19.2272 139.868 19.3556C139.865 19.4842 139.862 19.6181 139.857 19.7569C139.851 19.896 139.845 20.0351 139.837 20.1739C139.83 20.3131 139.82 20.4377 139.81 20.5479L140.954 20.4851V21.1619H138.674C138.648 20.9782 138.626 20.8089 138.608 20.6541C138.59 20.4996 138.576 20.346 138.566 20.1939C138.399 20.3617 138.215 20.5205 138.013 20.6701C137.811 20.8193 137.597 20.9492 137.371 21.0594C137.146 21.1696 136.914 21.2576 136.675 21.3232C136.437 21.3887 136.201 21.4217 135.967 21.4217C135.532 21.4217 135.151 21.3623 134.824 21.2444C134.497 21.1262 134.225 20.9311 134.007 20.6581C133.79 20.3854 133.626 20.0247 133.517 19.5759C133.408 19.1275 133.354 18.5701 133.354 17.9038V15.039C133.354 14.8713 133.356 14.7008 133.362 14.5275C133.367 14.3542 133.385 14.176 133.416 13.9923L132.319 14.0397V13.3786H132.817C133.04 13.3786 133.232 13.3669 133.393 13.3432C133.553 13.3195 133.691 13.2869 133.805 13.245C133.919 13.2028 134.014 13.157 134.089 13.1071C134.164 13.0573 134.233 13.0034 134.295 12.9458H134.754V17.8616C134.754 18.3291 134.785 18.7348 134.847 19.0789C134.909 19.4227 135.009 19.7089 135.147 19.9373C135.284 20.1659 135.462 20.334 135.68 20.4417C135.897 20.5494 136.164 20.6033 136.481 20.6033C136.683 20.6033 136.881 20.5688 137.076 20.5005C137.27 20.4325 137.456 20.3404 137.632 20.2247C137.808 20.1093 137.973 19.9779 138.126 19.8311C138.279 19.684 138.41 19.5261 138.519 19.358V18.6883V15.2215Z" fill="#00395A"/>
<path d="M145.297 13.6305C145.11 13.6305 144.928 13.6554 144.752 13.7053C144.576 13.7551 144.407 13.821 144.246 13.9023C144.086 13.9835 143.934 14.0798 143.791 14.1897C143.649 14.3002 143.523 14.4156 143.414 14.5363C143.414 14.5784 143.415 14.6271 143.418 14.6822C143.421 14.7372 143.422 14.8305 143.422 14.9619V15.5175C143.422 15.7563 143.421 16.0767 143.418 16.4786C143.415 16.8803 143.413 17.3807 143.41 17.9794C143.408 18.5783 143.406 19.3028 143.406 20.1538C143.671 20.3535 143.961 20.5083 144.278 20.6185C144.594 20.729 144.926 20.7841 145.273 20.7841C145.652 20.7841 145.991 20.6921 146.292 20.5083C146.593 20.3246 146.85 20.0685 147.062 19.7401C147.275 19.4117 147.438 19.023 147.552 18.574C147.666 18.1249 147.724 17.6328 147.724 17.097C147.724 16.6612 147.678 16.2355 147.587 15.8206C147.496 15.4057 147.354 15.0355 147.16 14.7099C146.965 14.3842 146.715 14.1229 146.409 13.926C146.103 13.729 145.732 13.6305 145.297 13.6305ZM142.053 15.0392C142.053 14.8714 142.055 14.7006 142.061 14.5277C142.066 14.3544 142.084 14.1762 142.115 13.9924L140.987 14.0555V13.3787C141.334 13.3787 141.617 13.3667 141.835 13.3433C142.053 13.3196 142.228 13.287 142.36 13.2448C142.493 13.203 142.595 13.1568 142.667 13.107C142.74 13.0574 142.805 13.0036 142.862 12.9457H143.328C143.339 13.0506 143.349 13.1738 143.36 13.3156C143.37 13.4575 143.38 13.6225 143.391 13.8115C143.551 13.6696 143.729 13.5388 143.923 13.4181C144.118 13.2972 144.323 13.195 144.538 13.111C144.753 13.0273 144.972 12.9614 145.196 12.9143C145.418 12.8669 145.641 12.8435 145.865 12.8435C146.326 12.8435 146.768 12.9352 147.191 13.119C147.613 13.3027 147.985 13.5662 148.307 13.91C148.628 14.2534 148.885 14.6732 149.077 15.1691C149.269 15.6649 149.365 16.2247 149.365 16.8492C149.365 17.3056 149.314 17.7359 149.213 18.1397C149.112 18.5441 148.97 18.915 148.789 19.2532C148.608 19.5918 148.391 19.8946 148.14 20.1624C147.888 20.4299 147.612 20.657 147.311 20.8432C147.01 21.0294 146.69 21.1722 146.35 21.2719C146.011 21.3716 145.662 21.4215 145.304 21.4215C144.568 21.4215 143.933 21.2458 143.398 20.8943L143.391 23.5621C143.391 23.7772 143.388 23.9674 143.383 24.1327C143.378 24.298 143.36 24.4725 143.328 24.6562L144.332 24.6088V25.2699H141.081V24.7898C141.324 24.7898 141.51 24.7412 141.637 24.6442C141.764 24.547 141.855 24.4122 141.909 24.2389C141.963 24.0656 141.995 23.8585 142.002 23.6172C142.01 23.3759 142.017 23.1109 142.022 22.8225L142.053 15.0392Z" fill="#00395A"/>
</g>
<defs>
<clipPath id="clip0">
<rect width="149.385" height="25.8197" fill="white"/>
</clipPath>
</defs>
</svg>
